G04 Layer_Physical_Order=1*
G04 Layer_Color=255*
%FSLAX43Y43*%
%MOMM*%
G71*
G01*
G75*
%ADD10R,1.500X1.300*%
%ADD11R,1.300X1.500*%
%ADD12R,0.900X1.300*%
%ADD13R,0.100X0.100*%
%ADD14R,1.350X0.400*%
%ADD15R,1.900X1.900*%
%ADD16R,1.397X1.016*%
%ADD17R,1.016X1.397*%
%ADD18R,1.550X1.300*%
%ADD19R,0.305X1.194*%
%ADD20R,1.194X0.305*%
%ADD21R,1.118X0.254*%
%ADD22R,1.250X0.420*%
%ADD23C,0.381*%
%ADD24C,0.254*%
%ADD25C,0.508*%
%ADD26C,1.500*%
%ADD27R,1.500X1.500*%
%ADD28R,1.500X1.500*%
%ADD29C,0.350*%
%ADD30C,0.500*%
%ADD31C,1.000*%
G36*
X27285Y35055D02*
X27373Y34996D01*
X27652Y34717D01*
Y33614D01*
X27534Y33565D01*
X27251Y33849D01*
Y34400D01*
X27235Y34479D01*
X27190Y34547D01*
X27123Y34591D01*
X27044Y34607D01*
X26004D01*
X25465Y35146D01*
X25444Y35308D01*
X25373Y35479D01*
X25261Y35626D01*
X25114Y35738D01*
X25056Y35762D01*
X25081Y35889D01*
X26450D01*
X27285Y35055D01*
D02*
G37*
G36*
X6518Y36158D02*
X6597Y36142D01*
X7143D01*
X7156Y36139D01*
X7593D01*
X7672Y36061D01*
Y34216D01*
X7310D01*
X7231Y34200D01*
X7163Y34155D01*
X7118Y34088D01*
X7103Y34009D01*
Y32999D01*
X6636D01*
X6625Y33010D01*
Y33948D01*
X6609Y34027D01*
X6564Y34094D01*
X6497Y34139D01*
X6418Y34155D01*
X5021D01*
X5017Y34158D01*
Y35833D01*
X5323Y36139D01*
X5683D01*
X5695Y36142D01*
X6241D01*
X6321Y36158D01*
X6388Y36202D01*
X6450D01*
X6518Y36158D01*
D02*
G37*
G36*
X2188Y32832D02*
X2204Y32753D01*
X2249Y32685D01*
X2316Y32640D01*
X2395Y32625D01*
X3792D01*
X3871Y32640D01*
X3893Y32655D01*
X4099Y32449D01*
Y32086D01*
X4044Y32068D01*
X3972Y32065D01*
X3939Y32115D01*
X3871Y32160D01*
X3792Y32175D01*
X2395D01*
X2316Y32160D01*
X2249Y32115D01*
X2204Y32047D01*
X2188Y31968D01*
Y30952D01*
X2204Y30873D01*
X2249Y30806D01*
X2316Y30761D01*
X2395Y30745D01*
X2777D01*
Y30146D01*
X2000Y29369D01*
X1927Y29260D01*
X1902Y29131D01*
Y28892D01*
X1758Y28833D01*
X1623Y28729D01*
X1496Y28792D01*
Y29995D01*
X1500Y29998D01*
X1613Y30145D01*
X1684Y30316D01*
X1708Y30500D01*
X1684Y30684D01*
X1613Y30855D01*
X1500Y31002D01*
X1496Y31005D01*
Y32679D01*
X1756Y32938D01*
X2188D01*
Y32832D01*
D02*
G37*
G36*
X30691Y309D02*
X309D01*
Y30035D01*
X436Y30078D01*
X497Y29998D01*
X597Y29922D01*
Y24245D01*
X628Y24092D01*
X715Y23962D01*
X1213Y23464D01*
X1343Y23377D01*
X1497Y23346D01*
X2836D01*
X2849Y23334D01*
Y23041D01*
X2670D01*
X2591Y23025D01*
X2524Y22980D01*
X2479Y22913D01*
X2463Y22833D01*
Y21437D01*
X2479Y21357D01*
X2524Y21290D01*
X2591Y21245D01*
X2670Y21229D01*
X3686D01*
X3766Y21245D01*
X3833Y21290D01*
X3878Y21357D01*
X3893Y21437D01*
Y22833D01*
X3878Y22913D01*
X3833Y22980D01*
X3766Y23025D01*
X3686Y23041D01*
X3651D01*
Y23500D01*
X3621Y23654D01*
X3534Y23784D01*
X3286Y24031D01*
X3156Y24118D01*
X3002Y24149D01*
X1663D01*
X1496Y24316D01*
Y24451D01*
X2112D01*
Y25460D01*
Y26469D01*
X1496D01*
Y27208D01*
X1623Y27271D01*
X1758Y27167D01*
X1990Y27071D01*
X2239Y27039D01*
X2487Y27071D01*
X2719Y27167D01*
X2918Y27320D01*
X3071Y27519D01*
X3131Y27663D01*
X4624D01*
Y27452D01*
X4640Y27372D01*
X4684Y27305D01*
X4752Y27260D01*
X4831Y27244D01*
X6331D01*
X6410Y27260D01*
X6477Y27305D01*
X6522Y27372D01*
X6538Y27452D01*
Y28752D01*
X6522Y28831D01*
X6477Y28898D01*
X6410Y28943D01*
X6331Y28959D01*
X4831D01*
X4752Y28943D01*
X4684Y28898D01*
X4640Y28831D01*
X4624Y28752D01*
Y28337D01*
X3131D01*
X3071Y28481D01*
X2918Y28680D01*
X2719Y28833D01*
X2608Y28879D01*
X2593Y29010D01*
X3352Y29769D01*
X3425Y29878D01*
X3451Y30007D01*
Y30745D01*
X3792D01*
X3871Y30761D01*
X3939Y30806D01*
X4015Y30813D01*
X5060Y29769D01*
X5169Y29696D01*
X5298Y29670D01*
X7878D01*
X7886Y29652D01*
X7998Y29505D01*
X8145Y29392D01*
X8316Y29322D01*
X8500Y29297D01*
X8684Y29322D01*
X8855Y29392D01*
X9002Y29505D01*
X9114Y29652D01*
X9185Y29823D01*
X9209Y30007D01*
X9185Y30190D01*
X9114Y30361D01*
X9002Y30508D01*
X8855Y30621D01*
X8684Y30692D01*
X8500Y30716D01*
X8316Y30692D01*
X8145Y30621D01*
X7998Y30508D01*
X7886Y30361D01*
X7878Y30343D01*
X5438D01*
X5063Y30718D01*
X5115Y30845D01*
X6418D01*
X6497Y30861D01*
X6564Y30906D01*
X6609Y30973D01*
X6625Y31052D01*
Y31159D01*
X7103D01*
Y31113D01*
X7118Y31034D01*
X7163Y30967D01*
X7231Y30922D01*
X7310Y30906D01*
X8707D01*
X8786Y30922D01*
X8853Y30967D01*
X8898Y31034D01*
X8914Y31113D01*
Y31220D01*
X9621D01*
X9775Y31250D01*
X9905Y31337D01*
X10003Y31435D01*
X10054Y31429D01*
X10135Y31292D01*
X10120Y31257D01*
X10111Y31187D01*
X10728D01*
Y31808D01*
X10642Y31921D01*
X10685Y32025D01*
X10709Y32209D01*
X10685Y32392D01*
X10643Y32493D01*
X11524Y33374D01*
X11642Y33325D01*
Y33300D01*
X11657Y33221D01*
X11702Y33153D01*
X11769Y33109D01*
X11849Y33093D01*
X13349D01*
X13428Y33109D01*
X13495Y33153D01*
X13540Y33221D01*
X13556Y33300D01*
Y34419D01*
X14368Y35231D01*
X16181D01*
X16268Y35144D01*
X16349Y35090D01*
Y35070D01*
X16328Y34966D01*
Y34750D01*
X16358Y34596D01*
X16433Y34485D01*
Y34153D01*
X16481Y34036D01*
X16598Y33988D01*
X16902D01*
X16914Y33970D01*
X16998Y33914D01*
X17098Y33894D01*
X17123D01*
Y34711D01*
X17131Y34750D01*
Y34882D01*
X17151Y34986D01*
Y35275D01*
X17123Y35418D01*
Y35606D01*
X17098D01*
X17005Y35587D01*
X16881Y35711D01*
X16751Y35798D01*
X16748Y35799D01*
X16631Y35916D01*
X16501Y36003D01*
X16347Y36034D01*
X14202D01*
X14048Y36003D01*
X13918Y35916D01*
X12809Y34807D01*
X11849D01*
X11826Y34803D01*
X11763Y34920D01*
X13085Y36241D01*
X18165D01*
X18777Y35629D01*
X18728Y35512D01*
X18598D01*
X18500Y35471D01*
X18402Y35512D01*
X18098D01*
X18000Y35471D01*
X17902Y35512D01*
X17598D01*
X17586Y35530D01*
X17501Y35586D01*
X17402Y35606D01*
X17377D01*
Y34750D01*
Y33894D01*
X17402D01*
X17501Y33914D01*
X17586Y33970D01*
X17598Y33988D01*
X17902D01*
X17920Y33976D01*
Y33622D01*
X17902Y33614D01*
X17756Y33502D01*
X17643Y33355D01*
X17572Y33184D01*
X17548Y33000D01*
X17572Y32816D01*
X17643Y32645D01*
X17756Y32498D01*
X17902Y32386D01*
X18074Y32315D01*
X18257Y32291D01*
X18441Y32315D01*
X18612Y32386D01*
X18759Y32498D01*
X18838Y32602D01*
X18965Y32559D01*
Y32372D01*
X18947Y32364D01*
X18800Y32252D01*
X18688Y32105D01*
X18617Y31934D01*
X18593Y31750D01*
X18617Y31566D01*
X18688Y31395D01*
X18800Y31248D01*
X18947Y31136D01*
X19118Y31065D01*
X19302Y31041D01*
X19485Y31065D01*
X19656Y31136D01*
X19803Y31248D01*
X19916Y31395D01*
X19987Y31566D01*
X20011Y31750D01*
X20009Y31769D01*
X20130Y31819D01*
X20212Y31712D01*
X20370Y31591D01*
X20553Y31515D01*
X20623Y31506D01*
Y32250D01*
Y32994D01*
X20553Y32985D01*
X20370Y32909D01*
X20212Y32788D01*
X20091Y32630D01*
X20015Y32447D01*
X19989Y32250D01*
X19995Y32211D01*
X19873Y32161D01*
X19803Y32252D01*
X19656Y32364D01*
X19638Y32372D01*
Y33388D01*
X19613Y33517D01*
X19540Y33626D01*
X19295Y33871D01*
X19344Y33988D01*
X19402D01*
X19500Y34029D01*
X19598Y33988D01*
X19902D01*
X20000Y34029D01*
X20098Y33988D01*
X20402D01*
X20500Y34029D01*
X20598Y33988D01*
X20902D01*
X21000Y34029D01*
X21098Y33988D01*
X21402D01*
X21500Y34029D01*
X21598Y33988D01*
X21902D01*
X22000Y34029D01*
X22098Y33988D01*
X22332D01*
X22385Y33861D01*
X22312Y33752D01*
X22286Y33623D01*
Y32651D01*
X22223Y32560D01*
X22200Y32534D01*
X22160Y32539D01*
X21976Y32515D01*
X21805Y32444D01*
X21658Y32332D01*
X21632Y32298D01*
X21500Y32333D01*
X21485Y32447D01*
X21409Y32630D01*
X21288Y32788D01*
X21130Y32909D01*
X20947Y32985D01*
X20877Y32994D01*
Y32250D01*
Y31441D01*
X20906Y31382D01*
X20111Y30587D01*
X16019D01*
X16012Y30598D01*
Y30902D01*
X15971Y31000D01*
X16012Y31098D01*
Y31402D01*
X15971Y31500D01*
X16012Y31598D01*
Y31902D01*
X15971Y32000D01*
X16012Y32098D01*
Y32402D01*
X15971Y32500D01*
X16012Y32598D01*
Y32902D01*
X16030Y32914D01*
X16086Y32998D01*
X16106Y33098D01*
Y33123D01*
X14394D01*
Y33098D01*
X14414Y32998D01*
X14470Y32914D01*
X14488Y32902D01*
Y32598D01*
X14529Y32500D01*
X14488Y32402D01*
Y32098D01*
X14529Y32000D01*
X14488Y31902D01*
Y31598D01*
X14529Y31500D01*
X14488Y31402D01*
Y31098D01*
X14529Y31000D01*
X14488Y30902D01*
Y30598D01*
X14467Y30567D01*
X11569D01*
X11557Y30593D01*
X11519Y30694D01*
X11590Y30863D01*
X11616Y31060D01*
X11610Y31101D01*
X11729Y31175D01*
X11750Y31161D01*
X11849Y31141D01*
X12472D01*
Y31923D01*
X11590D01*
Y31550D01*
X11463Y31507D01*
X11393Y31598D01*
X11235Y31719D01*
X11052Y31795D01*
X10982Y31804D01*
Y31060D01*
X10855D01*
Y30933D01*
X10111D01*
X10120Y30863D01*
X10196Y30680D01*
X10260Y30597D01*
X10240Y30471D01*
X10235Y30468D01*
X7443Y27676D01*
X7370Y27567D01*
X7344Y27438D01*
Y25265D01*
X7370Y25137D01*
X7443Y25027D01*
X9110Y23361D01*
Y20042D01*
X8672D01*
X8592Y20026D01*
X8525Y19982D01*
X8480Y19914D01*
X8464Y19835D01*
Y19522D01*
X6310D01*
Y21219D01*
X6624D01*
X6703Y21235D01*
X6770Y21279D01*
X6815Y21347D01*
X6831Y21426D01*
Y22926D01*
X6815Y23005D01*
X6770Y23072D01*
X6703Y23117D01*
X6624Y23133D01*
X5324D01*
X5244Y23117D01*
X5177Y23072D01*
X5132Y23005D01*
X5117Y22926D01*
Y21426D01*
X5132Y21347D01*
X5177Y21279D01*
X5244Y21235D01*
X5324Y21219D01*
X5637D01*
Y19522D01*
X2479D01*
Y19835D01*
X2463Y19914D01*
X2418Y19982D01*
X2351Y20026D01*
X2272Y20042D01*
X1833D01*
Y20302D01*
X1808Y20431D01*
X1735Y20540D01*
X1635Y20639D01*
Y21229D01*
X1807D01*
X1886Y21245D01*
X1953Y21290D01*
X1998Y21357D01*
X2014Y21437D01*
Y22833D01*
X1998Y22913D01*
X1953Y22980D01*
X1886Y23025D01*
X1807Y23041D01*
X791D01*
X711Y23025D01*
X644Y22980D01*
X599Y22913D01*
X584Y22833D01*
Y21437D01*
X599Y21357D01*
X644Y21290D01*
X711Y21245D01*
X791Y21229D01*
X962D01*
Y20500D01*
X988Y20371D01*
X1061Y20262D01*
X1153Y20169D01*
X1144Y20042D01*
X722D01*
X642Y20026D01*
X575Y19982D01*
X530Y19914D01*
X514Y19835D01*
Y18535D01*
X530Y18456D01*
X575Y18389D01*
X642Y18344D01*
X722Y18328D01*
X2272D01*
X2351Y18344D01*
X2418Y18389D01*
X2463Y18456D01*
X2479Y18535D01*
Y18848D01*
X8464D01*
Y18535D01*
X8408Y18466D01*
X5250D01*
X5121Y18441D01*
X5012Y18368D01*
X4752Y18107D01*
X4735Y18111D01*
X4607Y18085D01*
X4497Y18012D01*
X4375Y17890D01*
X4268Y17818D01*
X4157Y17707D01*
X2122D01*
X2114Y17725D01*
X2002Y17872D01*
X1855Y17985D01*
X1684Y18056D01*
X1500Y18080D01*
X1316Y18056D01*
X1145Y17985D01*
X998Y17872D01*
X886Y17725D01*
X815Y17554D01*
X791Y17371D01*
X815Y17187D01*
X886Y17016D01*
X998Y16869D01*
X1145Y16756D01*
X1316Y16685D01*
X1500Y16661D01*
X1684Y16685D01*
X1855Y16756D01*
X2002Y16869D01*
X2114Y17016D01*
X2122Y17034D01*
X4087D01*
X4161Y16907D01*
X4140Y16750D01*
X4165Y16566D01*
X4235Y16395D01*
X4348Y16248D01*
X4495Y16136D01*
X4666Y16065D01*
X4850Y16041D01*
X5033Y16065D01*
X5204Y16136D01*
X5351Y16248D01*
X5432Y16354D01*
X5565Y16320D01*
X5636Y16149D01*
X5748Y16002D01*
X5895Y15889D01*
X6066Y15818D01*
X6250Y15794D01*
X6434Y15818D01*
X6605Y15889D01*
X6752Y16002D01*
X6864Y16149D01*
X6877Y16179D01*
X6943Y16193D01*
X7052Y16266D01*
X7587Y16801D01*
X8759D01*
X8822Y16674D01*
X8788Y16630D01*
X8712Y16447D01*
X8703Y16377D01*
X10190D01*
X10181Y16447D01*
X10105Y16630D01*
X10072Y16674D01*
X10134Y16801D01*
X11399D01*
X11528Y16827D01*
X11637Y16900D01*
X14100Y19363D01*
X14173Y19472D01*
X14199Y19601D01*
Y21460D01*
X14326Y21468D01*
X14340Y21362D01*
X14411Y21191D01*
X14523Y21044D01*
X14670Y20931D01*
X14841Y20860D01*
X15025Y20836D01*
X15150Y20852D01*
X16361Y19641D01*
X16492Y19554D01*
X16645Y19524D01*
X24439D01*
X24593Y19554D01*
X24723Y19641D01*
X25373Y20291D01*
X25498Y20275D01*
X25682Y20299D01*
X25853Y20370D01*
X26000Y20482D01*
X26077Y20583D01*
X26541D01*
X26695Y20613D01*
X26825Y20700D01*
X29734Y23609D01*
X29821Y23739D01*
X29851Y23893D01*
Y27265D01*
X29931Y27297D01*
X30130Y27450D01*
X30283Y27649D01*
X30379Y27881D01*
X30411Y28130D01*
X30379Y28379D01*
X30283Y28611D01*
X30130Y28810D01*
X29931Y28963D01*
X29699Y29059D01*
X29450Y29091D01*
X29201Y29059D01*
X28969Y28963D01*
X28828Y28855D01*
X28701Y28917D01*
Y29883D01*
X28828Y29945D01*
X28969Y29837D01*
X29201Y29741D01*
X29450Y29709D01*
X29699Y29741D01*
X29931Y29837D01*
X30130Y29990D01*
X30283Y30189D01*
X30379Y30421D01*
X30411Y30670D01*
X30379Y30919D01*
X30283Y31151D01*
X30130Y31350D01*
X29931Y31503D01*
X29699Y31599D01*
X29450Y31631D01*
X29201Y31599D01*
X28969Y31503D01*
X28828Y31395D01*
X28701Y31457D01*
Y32232D01*
X28671Y32385D01*
X28584Y32516D01*
X28343Y32756D01*
X28392Y32873D01*
X28558D01*
X28617Y32729D01*
X28770Y32530D01*
X28969Y32377D01*
X29201Y32281D01*
X29450Y32249D01*
X29699Y32281D01*
X29931Y32377D01*
X30130Y32530D01*
X30283Y32729D01*
X30379Y32961D01*
X30411Y33210D01*
X30379Y33459D01*
X30283Y33691D01*
X30130Y33890D01*
X29931Y34043D01*
X29699Y34139D01*
X29450Y34171D01*
X29201Y34139D01*
X28969Y34043D01*
X28770Y33890D01*
X28617Y33691D01*
X28558Y33547D01*
X28325D01*
Y34857D01*
X28299Y34985D01*
X28227Y35095D01*
X28025Y35296D01*
X28074Y35413D01*
X28558D01*
X28617Y35269D01*
X28770Y35070D01*
X28969Y34917D01*
X29201Y34821D01*
X29450Y34789D01*
X29699Y34821D01*
X29931Y34917D01*
X30130Y35070D01*
X30283Y35269D01*
X30379Y35501D01*
X30411Y35750D01*
X30379Y35999D01*
X30283Y36231D01*
X30130Y36430D01*
X29931Y36583D01*
X29699Y36679D01*
X29450Y36711D01*
X29201Y36679D01*
X28969Y36583D01*
X28770Y36430D01*
X28617Y36231D01*
X28558Y36087D01*
X27852D01*
X27017Y36921D01*
X26908Y36994D01*
X26779Y37020D01*
X23433D01*
X23304Y36994D01*
X23195Y36921D01*
X22012Y35738D01*
X21939Y35629D01*
X21917Y35520D01*
X21902Y35512D01*
X21598D01*
X21500Y35471D01*
X21402Y35512D01*
X21098D01*
X21000Y35471D01*
X20902Y35512D01*
X20598D01*
X20587Y35519D01*
Y36059D01*
X20577Y36108D01*
X20647Y36158D01*
X20694Y36171D01*
X20827Y36069D01*
X20998Y35998D01*
X21182Y35974D01*
X21365Y35998D01*
X21536Y36069D01*
X21683Y36182D01*
X21796Y36329D01*
X21867Y36500D01*
X21891Y36683D01*
X21867Y36867D01*
X21796Y37038D01*
X21683Y37185D01*
X21536Y37297D01*
X21365Y37368D01*
X21182Y37392D01*
X20998Y37368D01*
X20827Y37297D01*
X20680Y37185D01*
X20649Y37143D01*
X20522Y37135D01*
X20190Y37467D01*
X20242Y37594D01*
X20318D01*
X20397Y37610D01*
X20465Y37655D01*
X20510Y37722D01*
X20525Y37801D01*
Y39199D01*
X20510Y39278D01*
X20465Y39345D01*
X20397Y39390D01*
X20318Y39406D01*
X19302D01*
X19223Y39390D01*
X19156Y39345D01*
X19111Y39278D01*
X19095Y39199D01*
Y37856D01*
X18982Y37787D01*
X18972Y37785D01*
X18946Y37803D01*
X18817Y37829D01*
X11175D01*
X11046Y37803D01*
X10937Y37730D01*
X10732Y37525D01*
X9794D01*
X9715Y37510D01*
X9648Y37465D01*
X9603Y37397D01*
X9587Y37318D01*
Y37280D01*
X9460Y37228D01*
X8958Y37730D01*
X8848Y37803D01*
X8720Y37829D01*
X7156D01*
X7143Y37826D01*
X6597D01*
X6518Y37810D01*
X6450Y37765D01*
X6450D01*
X6447Y37769D01*
X6424Y37802D01*
X6340Y37858D01*
X6241Y37878D01*
X5810D01*
Y37492D01*
X5556D01*
Y37878D01*
X5124D01*
X5025Y37858D01*
X4941Y37802D01*
X4884Y37718D01*
X4865Y37619D01*
Y37378D01*
X4747Y37355D01*
X4617Y37268D01*
X2926Y35577D01*
X2839Y35446D01*
X2808Y35293D01*
Y34055D01*
X2395D01*
X2316Y34039D01*
X2249Y33994D01*
X2204Y33927D01*
X2188Y33848D01*
Y33741D01*
X1590D01*
X1436Y33711D01*
X1306Y33624D01*
X811Y33129D01*
X724Y32998D01*
X693Y32845D01*
Y31135D01*
X644Y31114D01*
X497Y31002D01*
X436Y30922D01*
X309Y30965D01*
Y40691D01*
X30691D01*
Y309D01*
D02*
G37*
G36*
X9163Y36572D02*
X9273Y36499D01*
X9401Y36474D01*
X9587D01*
Y36302D01*
X9603Y36223D01*
X9648Y36156D01*
X9715Y36111D01*
X9794Y36095D01*
X10981D01*
X11029Y35978D01*
X10763Y35711D01*
X10694Y35666D01*
X9033Y34004D01*
X8905Y34055D01*
X8898Y34088D01*
X8853Y34155D01*
X8786Y34200D01*
X8707Y34216D01*
X8345D01*
Y34922D01*
X8472Y34965D01*
X8474Y34962D01*
X8632Y34841D01*
X8815Y34765D01*
X8885Y34756D01*
Y35500D01*
Y36244D01*
X8815Y36235D01*
X8632Y36159D01*
X8474Y36038D01*
X8472Y36035D01*
X8345Y36078D01*
Y36200D01*
X8319Y36329D01*
X8246Y36438D01*
X7971Y36714D01*
X7961Y36720D01*
X7954Y36758D01*
X7974Y36857D01*
X7156D01*
Y37111D01*
X7974D01*
Y37111D01*
X8010Y37155D01*
X8580D01*
X9163Y36572D01*
D02*
G37*
G36*
X24463Y35762D02*
X24404Y35738D01*
X24258Y35626D01*
X24145Y35479D01*
X24074Y35308D01*
X24050Y35124D01*
X24074Y34940D01*
X24145Y34769D01*
X24258Y34622D01*
X24404Y34510D01*
X24576Y34439D01*
X24759Y34415D01*
X24943Y34439D01*
X25009Y34467D01*
X25207Y34269D01*
X25159Y34151D01*
X24874D01*
X24721Y34121D01*
X24590Y34034D01*
X24229Y33672D01*
X23750D01*
X23596Y33642D01*
X23485Y33567D01*
X23223D01*
X23170Y33694D01*
X23488Y34012D01*
X23561Y34121D01*
X23587Y34250D01*
Y35276D01*
X24200Y35889D01*
X24437D01*
X24463Y35762D01*
D02*
G37*
G36*
X10438Y26505D02*
X10554Y26445D01*
X10559Y26422D01*
X10604Y26355D01*
X10671Y26310D01*
X10750Y26294D01*
X12250D01*
X12262Y26285D01*
Y21639D01*
X11012Y20389D01*
X10939Y20280D01*
X10913Y20151D01*
Y19019D01*
X10556Y18662D01*
X10429Y18714D01*
Y19835D01*
X10413Y19914D01*
X10368Y19982D01*
X10301Y20026D01*
X10222Y20042D01*
X9783D01*
Y23217D01*
X9901Y23266D01*
X10557Y22609D01*
X10541Y22484D01*
X10565Y22300D01*
X10636Y22129D01*
X10748Y21982D01*
X10895Y21870D01*
X11066Y21799D01*
X11250Y21775D01*
X11434Y21799D01*
X11605Y21870D01*
X11752Y21982D01*
X11864Y22129D01*
X11935Y22300D01*
X11959Y22484D01*
X11935Y22668D01*
X11864Y22839D01*
X11752Y22986D01*
X11605Y23098D01*
X11434Y23169D01*
X11250Y23193D01*
X11125Y23177D01*
X10401Y23900D01*
Y25750D01*
Y26496D01*
X10416Y26505D01*
X10438Y26505D01*
D02*
G37*
G36*
X16261Y24279D02*
Y21545D01*
X16286Y21416D01*
X16359Y21307D01*
X16904Y20762D01*
X17014Y20689D01*
X17142Y20663D01*
X19876D01*
X19884Y20645D01*
X19996Y20498D01*
X20055Y20453D01*
X20012Y20326D01*
X16811D01*
X15718Y21420D01*
X15734Y21545D01*
X15710Y21729D01*
X15639Y21900D01*
X15527Y22047D01*
X15380Y22159D01*
X15209Y22230D01*
X15025Y22254D01*
X14841Y22230D01*
X14670Y22159D01*
X14523Y22047D01*
X14411Y21900D01*
X14340Y21729D01*
X14326Y21622D01*
X14199Y21631D01*
Y22383D01*
X16143Y24327D01*
X16261Y24279D01*
D02*
G37*
G36*
X13068Y26679D02*
Y19929D01*
X11112Y17974D01*
X10986D01*
X10937Y18091D01*
X11488Y18642D01*
X11561Y18751D01*
X11587Y18880D01*
Y20012D01*
X12837Y21262D01*
X12910Y21371D01*
X12935Y21500D01*
Y26743D01*
X12941Y26747D01*
X13068Y26679D01*
D02*
G37*
G36*
X22988Y31761D02*
Y31598D01*
X23029Y31500D01*
X22988Y31402D01*
Y31098D01*
X23029Y31000D01*
X22988Y30902D01*
Y30598D01*
X23029Y30500D01*
X22988Y30402D01*
Y30098D01*
X23029Y30000D01*
X22988Y29902D01*
Y29598D01*
X23029Y29500D01*
X22988Y29402D01*
Y29098D01*
X23029Y29000D01*
X22988Y28902D01*
Y28598D01*
X23029Y28500D01*
X22988Y28402D01*
Y28098D01*
X23029Y28000D01*
X22988Y27902D01*
Y27598D01*
X23036Y27481D01*
X23153Y27433D01*
X23653D01*
X23750Y27413D01*
X24361D01*
X24478Y27296D01*
X24509Y27250D01*
X24623Y27135D01*
Y26732D01*
X24605Y26724D01*
X24458Y26612D01*
X24346Y26465D01*
X24275Y26294D01*
X24251Y26110D01*
X24275Y25927D01*
X24346Y25756D01*
X24458Y25609D01*
X24563Y25528D01*
X24520Y25401D01*
X23076D01*
X22651Y25826D01*
Y26250D01*
X22621Y26404D01*
X22567Y26484D01*
Y26847D01*
X22519Y26964D01*
X22402Y27012D01*
X22098D01*
X22086Y27030D01*
X22002Y27086D01*
X21902Y27106D01*
X21877D01*
Y26393D01*
X21849Y26250D01*
Y25660D01*
X21877Y25517D01*
Y25394D01*
X21902D01*
X21948Y25403D01*
X21966Y25376D01*
X22596Y24747D01*
X22616Y24716D01*
X22746Y24629D01*
X22824Y24614D01*
X22842Y24527D01*
X22838Y24482D01*
X22765Y24433D01*
X22709Y24349D01*
X22689Y24250D01*
Y23627D01*
X23598D01*
X24507D01*
Y24250D01*
X24488Y24349D01*
X24432Y24433D01*
X24374Y24472D01*
X24399Y24599D01*
X24867D01*
X24876Y24584D01*
X24866Y24536D01*
X24813Y24450D01*
X24769Y24441D01*
X24702Y24396D01*
X24657Y24329D01*
X24641Y24250D01*
Y22750D01*
X24657Y22671D01*
X24702Y22604D01*
X24769Y22559D01*
X24848Y22543D01*
X25097D01*
Y21562D01*
X24997Y21486D01*
X24884Y21339D01*
X24813Y21168D01*
X24789Y20984D01*
X24806Y20859D01*
X24273Y20326D01*
X20984D01*
X20941Y20453D01*
X20999Y20498D01*
X21112Y20645D01*
X21183Y20816D01*
X21207Y21000D01*
X21183Y21184D01*
X21112Y21355D01*
X20999Y21502D01*
X20852Y21614D01*
X20681Y21685D01*
X20498Y21709D01*
X20314Y21685D01*
X20143Y21614D01*
X19996Y21502D01*
X19884Y21355D01*
X19876Y21337D01*
X17961D01*
X17953Y21464D01*
X18009Y21471D01*
X18180Y21542D01*
X18327Y21655D01*
X18439Y21801D01*
X18510Y21973D01*
X18534Y22156D01*
X18510Y22340D01*
X18439Y22511D01*
X18327Y22658D01*
X18180Y22770D01*
X18162Y22778D01*
Y24196D01*
X18279Y24245D01*
X18500Y24024D01*
X18498Y24002D01*
X18386Y23855D01*
X18315Y23684D01*
X18291Y23500D01*
X18315Y23316D01*
X18386Y23145D01*
X18498Y22998D01*
X18645Y22886D01*
X18816Y22815D01*
X18947Y22798D01*
X18981Y22718D01*
X18990Y22667D01*
X18886Y22531D01*
X18815Y22359D01*
X18791Y22176D01*
X18815Y21992D01*
X18886Y21821D01*
X18998Y21674D01*
X19145Y21562D01*
X19316Y21491D01*
X19500Y21467D01*
X19684Y21491D01*
X19855Y21562D01*
X20002Y21674D01*
X20114Y21821D01*
X20185Y21992D01*
X20209Y22176D01*
X20185Y22359D01*
X20178Y22377D01*
X20568Y22768D01*
X20641Y22877D01*
X20667Y23006D01*
Y23748D01*
X20641Y23876D01*
X20568Y23986D01*
X19193Y25361D01*
X19245Y25488D01*
X19402D01*
X19500Y25529D01*
X19598Y25488D01*
X19902D01*
X20000Y25529D01*
X20098Y25488D01*
X20402D01*
X20500Y25529D01*
X20598Y25488D01*
X20902D01*
X21000Y25529D01*
X21098Y25488D01*
X21402D01*
X21414Y25470D01*
X21498Y25414D01*
X21598Y25394D01*
X21623D01*
Y26250D01*
Y27106D01*
X21598D01*
X21498Y27086D01*
X21414Y27030D01*
X21402Y27012D01*
X21098D01*
X21000Y26971D01*
X20902Y27012D01*
X20598D01*
X20500Y26971D01*
X20402Y27012D01*
X20098D01*
X20000Y26971D01*
X19902Y27012D01*
X19598D01*
X19500Y26971D01*
X19402Y27012D01*
X19098D01*
X19000Y26971D01*
X18902Y27012D01*
X18598D01*
X18500Y26971D01*
X18402Y27012D01*
X18098D01*
X18000Y26971D01*
X17902Y27012D01*
X17598D01*
X17500Y26971D01*
X17402Y27012D01*
X17098D01*
X17000Y26971D01*
X16902Y27012D01*
X16598D01*
X16481Y26964D01*
X16433Y26847D01*
Y26347D01*
X16413Y26250D01*
Y25550D01*
X13859Y22995D01*
X13742Y23044D01*
Y26901D01*
X14254Y27413D01*
X15250D01*
X15347Y27433D01*
X15847D01*
X15964Y27481D01*
X16012Y27598D01*
Y27902D01*
X15971Y28000D01*
X16012Y28098D01*
Y28402D01*
X15971Y28500D01*
X16012Y28598D01*
Y28902D01*
X15971Y29000D01*
X16012Y29098D01*
Y29402D01*
X16030Y29414D01*
X16086Y29498D01*
X16106Y29598D01*
Y29623D01*
X15250D01*
Y29877D01*
X16106D01*
Y29902D01*
X16115Y29913D01*
X20250D01*
X20379Y29939D01*
X20489Y30012D01*
X20632Y30155D01*
X20689Y30127D01*
X21373D01*
Y30811D01*
X21345Y30868D01*
X21741Y31265D01*
X21805Y31216D01*
X21976Y31145D01*
X22160Y31121D01*
X22344Y31145D01*
X22515Y31216D01*
X22661Y31329D01*
X22774Y31476D01*
X22845Y31647D01*
X22861Y31769D01*
X22988Y31761D01*
D02*
G37*
G36*
X10491Y29593D02*
Y29179D01*
X11500D01*
Y29052D01*
X11627D01*
Y28143D01*
X11937D01*
X12004Y28016D01*
X12000Y28009D01*
X10750D01*
X10671Y27993D01*
X10604Y27948D01*
X10559Y27881D01*
X10543Y27802D01*
Y27553D01*
X10373D01*
X10219Y27522D01*
X10089Y27435D01*
X9716Y27063D01*
X9629Y26933D01*
X9599Y26779D01*
Y26421D01*
X9493Y26350D01*
X9434Y26375D01*
X9250Y26399D01*
X9066Y26375D01*
X8895Y26304D01*
X8748Y26191D01*
X8636Y26044D01*
X8565Y25873D01*
X8541Y25690D01*
X8565Y25506D01*
X8636Y25335D01*
X8748Y25188D01*
X8895Y25076D01*
X9066Y25005D01*
X9250Y24981D01*
X9434Y25005D01*
X9493Y25029D01*
X9599Y24959D01*
Y23990D01*
X9481Y23941D01*
X8018Y25405D01*
Y27299D01*
X10364Y29645D01*
X10491Y29593D01*
D02*
G37*
G36*
X25336Y33100D02*
X25352Y33021D01*
X25397Y32953D01*
X25464Y32909D01*
X25544Y32893D01*
X26954D01*
X26962Y32886D01*
X26930Y32792D01*
X26897Y32759D01*
X26421D01*
Y31977D01*
X27303D01*
Y32482D01*
X27346Y32514D01*
X27424Y32540D01*
X27899Y32066D01*
Y28291D01*
X27929Y28137D01*
X28016Y28007D01*
X28216Y27807D01*
X28346Y27720D01*
X28500Y27689D01*
X28555Y27700D01*
X28596D01*
X28617Y27649D01*
X28770Y27450D01*
X28969Y27297D01*
X29049Y27265D01*
Y24059D01*
X26375Y21385D01*
X26077D01*
X26000Y21486D01*
X25900Y21562D01*
Y22543D01*
X26148D01*
X26228Y22559D01*
X26295Y22604D01*
X26340Y22671D01*
X26356Y22750D01*
Y24250D01*
X26340Y24329D01*
X26295Y24396D01*
X26228Y24441D01*
X26148Y24457D01*
X25900D01*
Y24652D01*
X25869Y24805D01*
X25782Y24935D01*
X25434Y25284D01*
X25319Y25360D01*
X25310Y25434D01*
X25317Y25498D01*
X25462Y25609D01*
X25574Y25756D01*
X25645Y25927D01*
X25669Y26110D01*
X25645Y26294D01*
X25611Y26375D01*
X25728Y26424D01*
X25841Y26277D01*
X25988Y26165D01*
X26159Y26094D01*
X26342Y26070D01*
X26526Y26094D01*
X26697Y26165D01*
X26844Y26277D01*
X26957Y26424D01*
X27028Y26595D01*
X27052Y26779D01*
X27028Y26962D01*
X26957Y27134D01*
X26844Y27280D01*
X26697Y27393D01*
X26614Y27428D01*
X26631Y27558D01*
X26684Y27565D01*
X26855Y27636D01*
X27002Y27748D01*
X27114Y27895D01*
X27185Y28066D01*
X27209Y28250D01*
X27185Y28434D01*
X27114Y28605D01*
X27002Y28752D01*
X26855Y28864D01*
X26684Y28935D01*
X26693Y29062D01*
X26715Y29065D01*
X26886Y29136D01*
X27033Y29248D01*
X27145Y29395D01*
X27216Y29566D01*
X27240Y29750D01*
X27216Y29934D01*
X27145Y30105D01*
X27033Y30252D01*
X26886Y30364D01*
X26715Y30435D01*
X26531Y30459D01*
X26347Y30435D01*
X26176Y30364D01*
X26029Y30252D01*
X25917Y30105D01*
X25909Y30087D01*
X25335D01*
X25207Y30061D01*
X25097Y29988D01*
X24764Y29655D01*
X24512D01*
Y29902D01*
X24471Y30000D01*
X24512Y30098D01*
Y30402D01*
X24471Y30500D01*
X24512Y30598D01*
Y30902D01*
X24471Y31000D01*
X24512Y31098D01*
Y31402D01*
X24471Y31500D01*
X24512Y31598D01*
Y31902D01*
X24471Y32000D01*
X24512Y32098D01*
Y32402D01*
X24530Y32414D01*
X24586Y32498D01*
X24606Y32598D01*
Y32623D01*
X23750D01*
Y32869D01*
X24395D01*
X24434Y32877D01*
X24606D01*
Y32902D01*
X24600Y32934D01*
X24679Y32987D01*
X25040Y33349D01*
X25336D01*
Y33100D01*
D02*
G37*
%LPC*%
G36*
X2521Y12638D02*
X1898D01*
Y11856D01*
X2780D01*
Y12379D01*
X2761Y12478D01*
X2704Y12562D01*
X2620Y12619D01*
X2521Y12638D01*
D02*
G37*
G36*
X1644D02*
X1021D01*
X922Y12619D01*
X838Y12562D01*
X782Y12478D01*
X762Y12379D01*
Y11856D01*
X1644D01*
Y12638D01*
D02*
G37*
G36*
X22250Y12116D02*
X21627D01*
Y11334D01*
X22509D01*
Y11857D01*
X22489Y11956D01*
X22433Y12040D01*
X22349Y12096D01*
X22250Y12116D01*
D02*
G37*
G36*
X2531Y14558D02*
X1624D01*
Y13776D01*
X2272D01*
X2371Y13796D01*
X2455Y13852D01*
X2511Y13936D01*
X2531Y14035D01*
Y14558D01*
D02*
G37*
G36*
X1370D02*
X463D01*
Y14035D01*
X482Y13936D01*
X538Y13852D01*
X622Y13796D01*
X722Y13776D01*
X1370D01*
Y14558D01*
D02*
G37*
G36*
X22250Y16907D02*
X20750D01*
X20671Y16891D01*
X20604Y16847D01*
X20559Y16779D01*
X20543Y16700D01*
Y16387D01*
X19050D01*
X18921Y16361D01*
X18812Y16288D01*
X17848Y15324D01*
X17775Y15215D01*
X17749Y15086D01*
Y14003D01*
X17387D01*
X17308Y13987D01*
X17241Y13942D01*
X17196Y13875D01*
X17180Y13796D01*
Y12780D01*
X17147Y12739D01*
X16737D01*
X16406Y13070D01*
Y13796D01*
X16390Y13875D01*
X16345Y13942D01*
X16278Y13987D01*
X16198Y14003D01*
X14802D01*
X14722Y13987D01*
X14655Y13942D01*
X14610Y13875D01*
X14594Y13796D01*
Y12780D01*
X14610Y12700D01*
X14655Y12633D01*
X14722Y12588D01*
X14802Y12572D01*
X15951D01*
X16289Y12235D01*
X16227Y12118D01*
X16198Y12123D01*
X14802D01*
X14722Y12107D01*
X14655Y12063D01*
X14610Y11995D01*
X14594Y11916D01*
Y10900D01*
X14610Y10821D01*
X14655Y10754D01*
X14722Y10709D01*
X14802Y10693D01*
X15153D01*
Y8379D01*
X14886Y8112D01*
X13816D01*
X13707Y8215D01*
Y8635D01*
X13691Y8714D01*
X13646Y8781D01*
X13579Y8826D01*
X13500Y8842D01*
X12250D01*
X12171Y8826D01*
X11596D01*
Y10292D01*
X11566Y10445D01*
X11479Y10575D01*
X10693Y11361D01*
X10709Y11487D01*
X10685Y11670D01*
X10614Y11841D01*
X10502Y11988D01*
X10355Y12101D01*
X10184Y12172D01*
X10000Y12196D01*
X9816Y12172D01*
X9645Y12101D01*
X9498Y11988D01*
X9422Y11888D01*
X9155D01*
Y12203D01*
X9139Y12282D01*
X9094Y12350D01*
X9027Y12394D01*
X8948Y12410D01*
X7932D01*
X7853Y12394D01*
X7785Y12350D01*
X7740Y12282D01*
X7725Y12203D01*
Y10806D01*
X7740Y10727D01*
X7785Y10660D01*
X7853Y10615D01*
X7932Y10599D01*
X8948D01*
X9027Y10615D01*
X9094Y10660D01*
X9139Y10727D01*
X9155Y10806D01*
Y11085D01*
X9422D01*
X9498Y10985D01*
X9645Y10872D01*
X9816Y10801D01*
X10000Y10777D01*
X10125Y10794D01*
X10794Y10125D01*
Y9254D01*
X10667Y9228D01*
X10614Y9355D01*
X10502Y9502D01*
X10355Y9614D01*
X10184Y9685D01*
X10000Y9709D01*
X9816Y9685D01*
X9735Y9651D01*
X7300D01*
X7146Y9621D01*
X7016Y9534D01*
X6929Y9404D01*
X6899Y9250D01*
Y8932D01*
X6886Y8913D01*
X6772Y8838D01*
X6750Y8842D01*
X5500D01*
X5442Y8831D01*
X5345Y8916D01*
Y11059D01*
X5455Y11168D01*
X5845D01*
Y10806D01*
X5861Y10727D01*
X5906Y10660D01*
X5973Y10615D01*
X6052Y10599D01*
X7068D01*
X7147Y10615D01*
X7215Y10660D01*
X7260Y10727D01*
X7275Y10806D01*
Y12203D01*
X7260Y12282D01*
X7215Y12350D01*
X7147Y12394D01*
X7068Y12410D01*
X6052D01*
X5973Y12394D01*
X5906Y12350D01*
X5861Y12282D01*
X5845Y12203D01*
Y11841D01*
X5315D01*
X5186Y11816D01*
X5077Y11743D01*
X4771Y11436D01*
X4698Y11327D01*
X4672Y11198D01*
Y8874D01*
X4545Y8811D01*
X4533Y8821D01*
X4362Y8891D01*
X4178Y8916D01*
X3995Y8891D01*
X3824Y8821D01*
X3677Y8708D01*
X3564Y8561D01*
X3493Y8390D01*
X3469Y8206D01*
X3493Y8023D01*
X3564Y7852D01*
X3677Y7705D01*
X3824Y7592D01*
X3995Y7521D01*
X4178Y7497D01*
X4300Y7513D01*
X4322Y7491D01*
X4453Y7404D01*
X4606Y7374D01*
X5209D01*
X5241Y7335D01*
Y7252D01*
X6125D01*
X7009D01*
Y7312D01*
X7009Y7335D01*
X7067Y7450D01*
X7101Y7473D01*
X7101Y7473D01*
X7113Y7481D01*
X7197Y7537D01*
X7584Y7924D01*
X7671Y8055D01*
X7701Y8208D01*
Y8849D01*
X8121D01*
X8183Y8722D01*
X8136Y8660D01*
X8065Y8489D01*
X8041Y8305D01*
X8065Y8122D01*
X8136Y7951D01*
X8248Y7804D01*
X8395Y7691D01*
X8512Y7643D01*
Y5889D01*
X8486Y5877D01*
X8385Y5839D01*
X8216Y5910D01*
X8146Y5919D01*
Y5175D01*
Y4431D01*
X8216Y4440D01*
X8385Y4511D01*
X8416Y4507D01*
X8521Y4450D01*
X8538Y4367D01*
X8611Y4258D01*
X10532Y2337D01*
X10641Y2264D01*
X10770Y2238D01*
X12090D01*
X12104Y2218D01*
X12171Y2174D01*
X12250Y2158D01*
X13500D01*
X13579Y2174D01*
X13646Y2218D01*
X13691Y2286D01*
X13707Y2365D01*
Y2785D01*
X13691Y2864D01*
X13668Y2900D01*
X13691Y2936D01*
X13707Y3015D01*
Y3435D01*
X13694Y3499D01*
X13739Y3566D01*
X13759Y3665D01*
Y3748D01*
X12875D01*
X11991D01*
Y3665D01*
X12011Y3566D01*
X12056Y3499D01*
X12043Y3435D01*
Y3015D01*
X11934Y2912D01*
X10909D01*
X9186Y4636D01*
Y5387D01*
X9313Y5449D01*
X9395Y5386D01*
X9566Y5315D01*
X9750Y5291D01*
X9934Y5315D01*
X10105Y5386D01*
X10252Y5498D01*
X10364Y5645D01*
X10435Y5816D01*
X10459Y6000D01*
X10435Y6184D01*
X10364Y6355D01*
X10252Y6502D01*
X10151Y6578D01*
Y6814D01*
X11361Y8024D01*
X12011D01*
X12043Y7985D01*
Y7565D01*
X12059Y7486D01*
X12082Y7450D01*
X12059Y7414D01*
X12043Y7335D01*
Y6915D01*
X12059Y6836D01*
X12082Y6800D01*
X12059Y6764D01*
X12043Y6685D01*
Y6265D01*
X12059Y6186D01*
X12082Y6150D01*
X12059Y6114D01*
X12043Y6035D01*
Y5615D01*
X12059Y5536D01*
X12082Y5500D01*
X12059Y5464D01*
X12043Y5385D01*
Y4965D01*
X12059Y4886D01*
X12082Y4850D01*
X12059Y4814D01*
X12043Y4735D01*
Y4315D01*
X12056Y4251D01*
X12011Y4184D01*
X11991Y4085D01*
Y4002D01*
X12875D01*
X13759D01*
Y4085D01*
X13739Y4184D01*
X13694Y4251D01*
X13707Y4315D01*
Y4735D01*
X13691Y4814D01*
X13668Y4850D01*
X13691Y4886D01*
X13707Y4965D01*
Y5385D01*
X13691Y5464D01*
X13668Y5500D01*
X13691Y5536D01*
X13707Y5615D01*
Y6035D01*
X13691Y6114D01*
X13668Y6150D01*
X13691Y6186D01*
X13707Y6265D01*
Y6685D01*
X13816Y6788D01*
X15225D01*
X15354Y6814D01*
X15463Y6887D01*
X18324Y9748D01*
X18397Y9857D01*
X18422Y9986D01*
Y10693D01*
X18784D01*
X18864Y10709D01*
X18931Y10754D01*
X18976Y10821D01*
X18991Y10900D01*
Y11916D01*
X18987Y11939D01*
X19060Y12052D01*
X19081Y12066D01*
X19653D01*
X19782Y12092D01*
X19891Y12165D01*
X20416Y12690D01*
X20543Y12637D01*
Y12457D01*
X20559Y12378D01*
X20604Y12311D01*
X20671Y12266D01*
X20750Y12250D01*
X22250D01*
X22329Y12266D01*
X22396Y12311D01*
X22441Y12378D01*
X22457Y12457D01*
Y12770D01*
X22623D01*
X22752Y12796D01*
X22861Y12869D01*
X23505Y13513D01*
X23687D01*
X23740Y13386D01*
X23012Y12659D01*
X22939Y12549D01*
X22913Y12421D01*
Y9000D01*
Y8139D01*
X22611Y7837D01*
X22059D01*
Y8250D01*
X22043Y8329D01*
X21998Y8396D01*
X21931Y8441D01*
X21852Y8457D01*
X20552D01*
X20472Y8441D01*
X20405Y8396D01*
X20360Y8329D01*
X20345Y8250D01*
Y6750D01*
X20360Y6671D01*
X20405Y6603D01*
X20472Y6559D01*
X20552Y6543D01*
X21852D01*
X21931Y6559D01*
X21998Y6603D01*
X22043Y6671D01*
X22059Y6750D01*
Y7163D01*
X22750D01*
X22879Y7189D01*
X22988Y7262D01*
X23488Y7762D01*
X23561Y7871D01*
X23587Y8000D01*
Y8663D01*
X27926D01*
X28509Y8080D01*
X28468Y7943D01*
X28462Y7941D01*
X28394Y7897D01*
X28349Y7829D01*
X28334Y7750D01*
Y6250D01*
X28349Y6171D01*
X28394Y6103D01*
X28462Y6059D01*
X28541Y6043D01*
X30041D01*
X30120Y6059D01*
X30187Y6103D01*
X30232Y6171D01*
X30248Y6250D01*
Y7750D01*
X30232Y7829D01*
X30187Y7897D01*
X30120Y7941D01*
X30041Y7957D01*
X29566D01*
X29529Y8013D01*
X28304Y9238D01*
X28195Y9311D01*
X28066Y9337D01*
X23587D01*
Y12281D01*
X24169Y12863D01*
X25325D01*
X25454Y12889D01*
X25507Y12924D01*
X26000D01*
X26054Y12946D01*
X26076Y13000D01*
Y13400D01*
X26054Y13454D01*
X26046Y13457D01*
Y13593D01*
X26054Y13596D01*
X26076Y13650D01*
Y14050D01*
X26054Y14104D01*
X26046Y14107D01*
Y14243D01*
X26054Y14246D01*
X26076Y14300D01*
Y14700D01*
X26054Y14754D01*
X26046Y14757D01*
Y14893D01*
X26054Y14896D01*
X26076Y14950D01*
Y15350D01*
X26079Y15357D01*
X26099Y15361D01*
X26183Y15417D01*
X26239Y15501D01*
X26259Y15600D01*
Y15673D01*
X25325D01*
X24391D01*
Y15600D01*
X24411Y15501D01*
X24467Y15417D01*
X24551Y15361D01*
X24571Y15357D01*
X24574Y15350D01*
Y14964D01*
X24574Y14950D01*
X24490Y14837D01*
X24139D01*
X22688Y16288D01*
X22579Y16361D01*
X22457Y16385D01*
Y16700D01*
X22441Y16779D01*
X22396Y16847D01*
X22329Y16891D01*
X22250Y16907D01*
D02*
G37*
G36*
X21373Y12116D02*
X20750D01*
X20651Y12096D01*
X20567Y12040D01*
X20511Y11956D01*
X20491Y11857D01*
Y11334D01*
X21373D01*
Y12116D01*
D02*
G37*
G36*
Y11080D02*
X20491D01*
Y10557D01*
X20511Y10458D01*
X20567Y10374D01*
X20651Y10318D01*
X20750Y10298D01*
X21373D01*
Y11080D01*
D02*
G37*
G36*
X19952Y8509D02*
X19429D01*
Y7627D01*
X20211D01*
Y8250D01*
X20191Y8349D01*
X20135Y8433D01*
X20051Y8489D01*
X19952Y8509D01*
D02*
G37*
G36*
X19175D02*
X18652D01*
X18553Y8489D01*
X18469Y8433D01*
X18413Y8349D01*
X18393Y8250D01*
Y7627D01*
X19175D01*
Y8509D01*
D02*
G37*
G36*
X2780Y11602D02*
X1898D01*
Y10820D01*
X2521D01*
X2620Y10840D01*
X2704Y10896D01*
X2761Y10980D01*
X2780Y11079D01*
Y11602D01*
D02*
G37*
G36*
X1644D02*
X762D01*
Y11079D01*
X782Y10980D01*
X838Y10896D01*
X922Y10840D01*
X1021Y10820D01*
X1644D01*
Y11602D01*
D02*
G37*
G36*
X22509Y11080D02*
X21627D01*
Y10298D01*
X22250D01*
X22349Y10318D01*
X22433Y10374D01*
X22489Y10458D01*
X22509Y10557D01*
Y11080D01*
D02*
G37*
G36*
X9320Y14558D02*
X8413D01*
Y14035D01*
X8432Y13936D01*
X8488Y13852D01*
X8572Y13796D01*
X8672Y13776D01*
X9320D01*
Y14558D01*
D02*
G37*
G36*
X21373Y18859D02*
X20750D01*
X20651Y18839D01*
X20567Y18783D01*
X20511Y18699D01*
X20491Y18600D01*
Y18077D01*
X21373D01*
Y18859D01*
D02*
G37*
G36*
X7000Y40401D02*
X3898D01*
X3744Y40371D01*
X3614Y40284D01*
X3355Y40024D01*
X3329Y40041D01*
X3250Y40057D01*
X1750D01*
X1671Y40041D01*
X1604Y39996D01*
X1559Y39929D01*
X1543Y39850D01*
Y38550D01*
X1559Y38471D01*
X1604Y38403D01*
X1671Y38359D01*
X1750Y38343D01*
X3250D01*
X3329Y38359D01*
X3397Y38403D01*
X3441Y38471D01*
X3457Y38550D01*
Y38991D01*
X4064Y39599D01*
X6834D01*
X8026Y38406D01*
X8157Y38319D01*
X8310Y38288D01*
X9587D01*
Y38182D01*
X9603Y38103D01*
X9648Y38035D01*
X9715Y37990D01*
X9794Y37975D01*
X11191D01*
X11271Y37990D01*
X11338Y38035D01*
X11383Y38103D01*
X11398Y38182D01*
Y38288D01*
X13718D01*
X13795Y38188D01*
X13942Y38076D01*
X14113Y38005D01*
X14296Y37981D01*
X14480Y38005D01*
X14651Y38076D01*
X14798Y38188D01*
X14911Y38335D01*
X14982Y38506D01*
X15006Y38690D01*
X14982Y38873D01*
X14911Y39044D01*
X14798Y39191D01*
X14651Y39304D01*
X14480Y39375D01*
X14296Y39399D01*
X14113Y39375D01*
X13942Y39304D01*
X13795Y39191D01*
X13718Y39091D01*
X11398D01*
Y39198D01*
X11383Y39277D01*
X11338Y39344D01*
X11271Y39389D01*
X11191Y39405D01*
X9794D01*
X9715Y39389D01*
X9648Y39344D01*
X9603Y39277D01*
X9587Y39198D01*
Y39091D01*
X8476D01*
X7284Y40284D01*
X7154Y40371D01*
X7000Y40401D01*
D02*
G37*
G36*
X22509Y17823D02*
X21627D01*
Y17041D01*
X22250D01*
X22349Y17061D01*
X22433Y17117D01*
X22489Y17201D01*
X22509Y17300D01*
Y17823D01*
D02*
G37*
G36*
X29164Y20691D02*
X28547D01*
X28556Y20622D01*
X28632Y20438D01*
X28753Y20281D01*
X28911Y20160D01*
X29094Y20084D01*
X29164Y20075D01*
Y20691D01*
D02*
G37*
G36*
X26115Y18771D02*
X25085D01*
X25083Y18770D01*
X25081Y18771D01*
X25051Y18769D01*
X25049Y18768D01*
X25047Y18769D01*
X25016Y18766D01*
X25014Y18765D01*
X25012Y18765D01*
X24982Y18760D01*
X24981Y18759D01*
X24979Y18760D01*
X24949Y18753D01*
X24947Y18752D01*
X24945Y18752D01*
X24916Y18744D01*
X24914Y18743D01*
X24912Y18743D01*
X24883Y18734D01*
X24881Y18733D01*
X24879Y18733D01*
X24851Y18722D01*
X24849Y18720D01*
X24847Y18720D01*
X24819Y18708D01*
X24818Y18706D01*
X24816Y18706D01*
X24789Y18692D01*
X24787Y18691D01*
X24785Y18691D01*
X24759Y18675D01*
X24758Y18674D01*
X24756Y18673D01*
X24730Y18657D01*
X24729Y18655D01*
X24727Y18654D01*
X24702Y18637D01*
X24701Y18635D01*
X24699Y18634D01*
X24675Y18615D01*
X24674Y18613D01*
X24672Y18612D01*
X24650Y18592D01*
X24649Y18590D01*
X24647Y18589D01*
X24626Y18568D01*
X24625Y18566D01*
X24623Y18565D01*
X24603Y18543D01*
X24602Y18541D01*
X24600Y18539D01*
X24581Y18516D01*
X24580Y18514D01*
X24578Y18513D01*
X24561Y18488D01*
X24560Y18486D01*
X24558Y18485D01*
X24542Y18459D01*
X24541Y18457D01*
X24540Y18456D01*
X24524Y18430D01*
X24524Y18428D01*
X24523Y18426D01*
X24509Y18399D01*
X24509Y18397D01*
X24507Y18396D01*
X24495Y18368D01*
X24495Y18366D01*
X24493Y18364D01*
X24482Y18336D01*
X24482Y18334D01*
X24481Y18332D01*
X24472Y18303D01*
X24472Y18301D01*
X24471Y18299D01*
X24463Y18270D01*
X24463Y18268D01*
X24462Y18266D01*
X24455Y18236D01*
X24456Y18234D01*
X24455Y18233D01*
X24450Y18203D01*
X24450Y18201D01*
X24449Y18199D01*
X24446Y18168D01*
X24447Y18166D01*
X24446Y18164D01*
X24444Y18134D01*
X24445Y18132D01*
X24444Y18130D01*
Y18100D01*
X24445Y18098D01*
X24444Y18096D01*
X24446Y18066D01*
X24447Y18064D01*
X24446Y18062D01*
X24449Y18031D01*
X24450Y18029D01*
X24450Y18027D01*
X24455Y17997D01*
X24456Y17996D01*
X24455Y17994D01*
X24462Y17964D01*
X24463Y17962D01*
X24463Y17960D01*
X24471Y17931D01*
X24472Y17929D01*
X24472Y17927D01*
X24481Y17898D01*
X24482Y17896D01*
X24482Y17894D01*
X24493Y17866D01*
X24495Y17864D01*
X24495Y17862D01*
X24507Y17834D01*
X24509Y17833D01*
X24509Y17831D01*
X24523Y17804D01*
X24524Y17802D01*
X24524Y17800D01*
X24540Y17774D01*
X24541Y17773D01*
X24542Y17771D01*
X24558Y17745D01*
X24560Y17744D01*
X24561Y17742D01*
X24578Y17717D01*
X24580Y17716D01*
X24581Y17714D01*
X24600Y17690D01*
X24602Y17689D01*
X24603Y17687D01*
X24623Y17665D01*
X24625Y17664D01*
X24626Y17662D01*
X24647Y17641D01*
X24649Y17640D01*
X24650Y17638D01*
X24672Y17618D01*
X24674Y17617D01*
X24676Y17615D01*
X24699Y17596D01*
X24701Y17595D01*
X24702Y17593D01*
X24727Y17576D01*
X24729Y17575D01*
X24730Y17573D01*
X24756Y17557D01*
X24758Y17556D01*
X24759Y17555D01*
X24785Y17539D01*
X24787Y17539D01*
X24789Y17538D01*
X24816Y17524D01*
X24818Y17524D01*
X24819Y17522D01*
X24847Y17510D01*
X24849Y17510D01*
X24851Y17508D01*
X24879Y17497D01*
X24881Y17497D01*
X24883Y17496D01*
X24912Y17487D01*
X24914Y17487D01*
X24916Y17486D01*
X24945Y17478D01*
X24947Y17478D01*
X24949Y17477D01*
X24979Y17470D01*
X24981Y17471D01*
X24982Y17470D01*
X25012Y17465D01*
X25014Y17465D01*
X25016Y17464D01*
X25047Y17461D01*
X25049Y17462D01*
X25051Y17461D01*
X25081Y17459D01*
X25083Y17460D01*
X25085Y17459D01*
X26115D01*
X26117Y17460D01*
X26119Y17459D01*
X26149Y17461D01*
X26151Y17462D01*
X26153Y17461D01*
X26184Y17464D01*
X26186Y17465D01*
X26188Y17465D01*
X26218Y17470D01*
X26219Y17471D01*
X26221Y17470D01*
X26251Y17477D01*
X26253Y17478D01*
X26255Y17478D01*
X26284Y17486D01*
X26286Y17487D01*
X26288Y17487D01*
X26317Y17496D01*
X26319Y17497D01*
X26321Y17497D01*
X26349Y17508D01*
X26351Y17510D01*
X26353Y17510D01*
X26381Y17522D01*
X26382Y17524D01*
X26384Y17524D01*
X26411Y17538D01*
X26413Y17539D01*
X26415Y17539D01*
X26441Y17555D01*
X26442Y17556D01*
X26444Y17557D01*
X26470Y17573D01*
X26471Y17575D01*
X26473Y17576D01*
X26498Y17593D01*
X26499Y17595D01*
X26501Y17596D01*
X26524Y17615D01*
X26643Y17609D01*
X26677Y17582D01*
X26695Y17539D01*
X26706Y17506D01*
X26707Y17505D01*
X26707Y17502D01*
X26719Y17470D01*
X26721Y17469D01*
X26721Y17467D01*
X26735Y17435D01*
X26736Y17433D01*
X26737Y17431D01*
X26752Y17401D01*
X26754Y17399D01*
X26754Y17397D01*
X26771Y17367D01*
X26773Y17366D01*
X26774Y17364D01*
X26792Y17335D01*
X26794Y17334D01*
X26795Y17331D01*
X26815Y17304D01*
X26817Y17302D01*
X26817Y17300D01*
X26839Y17274D01*
X26841Y17273D01*
X26842Y17271D01*
X26865Y17245D01*
X26867Y17244D01*
X26868Y17242D01*
X26892Y17218D01*
X26894Y17217D01*
X26895Y17215D01*
X26921Y17192D01*
X26923Y17191D01*
X26924Y17189D01*
X26950Y17167D01*
X26952Y17167D01*
X26954Y17165D01*
X26982Y17145D01*
X26984Y17144D01*
X26985Y17142D01*
X27014Y17124D01*
X27016Y17123D01*
X27017Y17121D01*
X27047Y17104D01*
X27049Y17104D01*
X27051Y17102D01*
X27065Y17095D01*
X27089Y16975D01*
X27162Y16866D01*
X27184Y16843D01*
X27136Y16726D01*
X27050D01*
X26996Y16704D01*
X26974Y16650D01*
Y14750D01*
X26996Y14696D01*
X27050Y14674D01*
X27663D01*
Y14326D01*
X27050D01*
X26996Y14304D01*
X26974Y14250D01*
Y12350D01*
X26996Y12296D01*
X27050Y12274D01*
X27663D01*
Y11986D01*
X27383D01*
X27381Y11985D01*
X27379Y11986D01*
X27344Y11984D01*
X27342Y11983D01*
X27340Y11984D01*
X27306Y11980D01*
X27304Y11979D01*
X27302Y11979D01*
X27268Y11974D01*
X27266Y11973D01*
X27264Y11973D01*
X27230Y11966D01*
X27228Y11965D01*
X27226Y11965D01*
X27193Y11956D01*
X27191Y11955D01*
X27189Y11955D01*
X27156Y11944D01*
X27155Y11943D01*
X27152Y11943D01*
X27120Y11931D01*
X27119Y11929D01*
X27117Y11929D01*
X27085Y11915D01*
X27083Y11914D01*
X27081Y11913D01*
X27051Y11898D01*
X27049Y11896D01*
X27047Y11896D01*
X27017Y11879D01*
X27016Y11877D01*
X27014Y11876D01*
X26985Y11858D01*
X26984Y11856D01*
X26982Y11855D01*
X26954Y11835D01*
X26952Y11833D01*
X26950Y11833D01*
X26924Y11811D01*
X26923Y11809D01*
X26920Y11808D01*
X26895Y11785D01*
X26894Y11783D01*
X26892Y11782D01*
X26868Y11758D01*
X26867Y11756D01*
X26865Y11755D01*
X26842Y11729D01*
X26841Y11727D01*
X26839Y11726D01*
X26817Y11700D01*
X26817Y11698D01*
X26815Y11696D01*
X26795Y11668D01*
X26794Y11666D01*
X26792Y11665D01*
X26774Y11636D01*
X26773Y11634D01*
X26771Y11633D01*
X26754Y11603D01*
X26754Y11601D01*
X26752Y11599D01*
X26737Y11569D01*
X26736Y11567D01*
X26735Y11565D01*
X26721Y11533D01*
X26721Y11531D01*
X26719Y11530D01*
X26711Y11507D01*
X26682Y11488D01*
X26652Y11458D01*
X26465D01*
X26431Y11451D01*
X26415Y11461D01*
X26413Y11461D01*
X26411Y11462D01*
X26384Y11476D01*
X26382Y11476D01*
X26381Y11478D01*
X26353Y11490D01*
X26351Y11490D01*
X26349Y11492D01*
X26321Y11503D01*
X26319Y11503D01*
X26317Y11504D01*
X26288Y11513D01*
X26286Y11513D01*
X26284Y11514D01*
X26255Y11522D01*
X26253Y11522D01*
X26251Y11523D01*
X26221Y11530D01*
X26219Y11529D01*
X26218Y11530D01*
X26188Y11535D01*
X26186Y11535D01*
X26184Y11536D01*
X26153Y11539D01*
X26151Y11538D01*
X26149Y11539D01*
X26119Y11541D01*
X26117Y11540D01*
X26115Y11541D01*
X25085D01*
X25083Y11540D01*
X25081Y11541D01*
X25051Y11539D01*
X25049Y11538D01*
X25047Y11539D01*
X25016Y11536D01*
X25014Y11535D01*
X25012Y11535D01*
X24982Y11530D01*
X24981Y11529D01*
X24979Y11530D01*
X24949Y11523D01*
X24947Y11522D01*
X24945Y11522D01*
X24916Y11514D01*
X24914Y11513D01*
X24912Y11513D01*
X24883Y11504D01*
X24881Y11503D01*
X24879Y11503D01*
X24851Y11492D01*
X24849Y11490D01*
X24847Y11490D01*
X24819Y11478D01*
X24818Y11476D01*
X24816Y11476D01*
X24789Y11462D01*
X24787Y11461D01*
X24785Y11461D01*
X24759Y11445D01*
X24758Y11444D01*
X24756Y11443D01*
X24730Y11427D01*
X24729Y11425D01*
X24727Y11424D01*
X24702Y11407D01*
X24701Y11405D01*
X24699Y11404D01*
X24676Y11385D01*
X24674Y11383D01*
X24672Y11382D01*
X24650Y11362D01*
X24649Y11360D01*
X24647Y11359D01*
X24626Y11338D01*
X24625Y11336D01*
X24623Y11335D01*
X24603Y11313D01*
X24602Y11311D01*
X24600Y11309D01*
X24581Y11286D01*
X24580Y11284D01*
X24578Y11283D01*
X24561Y11258D01*
X24560Y11256D01*
X24558Y11255D01*
X24542Y11229D01*
X24541Y11227D01*
X24540Y11226D01*
X24524Y11200D01*
X24524Y11198D01*
X24523Y11196D01*
X24509Y11169D01*
X24509Y11167D01*
X24507Y11166D01*
X24495Y11138D01*
X24495Y11136D01*
X24493Y11134D01*
X24482Y11106D01*
X24482Y11104D01*
X24481Y11102D01*
X24472Y11073D01*
X24472Y11071D01*
X24471Y11069D01*
X24463Y11040D01*
X24463Y11038D01*
X24462Y11036D01*
X24455Y11006D01*
X24456Y11004D01*
X24455Y11003D01*
X24450Y10973D01*
X24450Y10971D01*
X24449Y10969D01*
X24446Y10938D01*
X24447Y10936D01*
X24446Y10934D01*
X24444Y10904D01*
X24445Y10902D01*
X24444Y10900D01*
Y10870D01*
X24445Y10868D01*
X24444Y10866D01*
X24446Y10835D01*
X24447Y10834D01*
X24446Y10832D01*
X24449Y10801D01*
X24450Y10799D01*
X24450Y10797D01*
X24455Y10767D01*
X24456Y10766D01*
X24455Y10764D01*
X24462Y10734D01*
X24463Y10732D01*
X24463Y10730D01*
X24471Y10701D01*
X24472Y10699D01*
X24472Y10697D01*
X24481Y10668D01*
X24482Y10666D01*
X24482Y10664D01*
X24493Y10636D01*
X24495Y10634D01*
X24495Y10632D01*
X24507Y10604D01*
X24509Y10603D01*
X24509Y10601D01*
X24523Y10574D01*
X24524Y10572D01*
X24524Y10570D01*
X24540Y10544D01*
X24541Y10543D01*
X24542Y10541D01*
X24558Y10515D01*
X24560Y10514D01*
X24561Y10512D01*
X24578Y10487D01*
X24580Y10486D01*
X24581Y10484D01*
X24600Y10460D01*
X24602Y10459D01*
X24603Y10457D01*
X24623Y10435D01*
X24625Y10434D01*
X24626Y10432D01*
X24647Y10411D01*
X24649Y10410D01*
X24650Y10408D01*
X24672Y10388D01*
X24674Y10387D01*
X24676Y10385D01*
X24699Y10366D01*
X24701Y10365D01*
X24702Y10363D01*
X24727Y10346D01*
X24729Y10345D01*
X24730Y10343D01*
X24756Y10327D01*
X24758Y10326D01*
X24759Y10325D01*
X24785Y10309D01*
X24787Y10309D01*
X24789Y10308D01*
X24816Y10294D01*
X24818Y10294D01*
X24819Y10292D01*
X24847Y10280D01*
X24849Y10280D01*
X24851Y10278D01*
X24879Y10267D01*
X24881Y10267D01*
X24883Y10266D01*
X24912Y10257D01*
X24914Y10257D01*
X24916Y10255D01*
X24945Y10248D01*
X24947Y10248D01*
X24949Y10247D01*
X24979Y10240D01*
X24981Y10241D01*
X24982Y10240D01*
X25012Y10235D01*
X25014Y10235D01*
X25016Y10234D01*
X25047Y10231D01*
X25049Y10232D01*
X25051Y10231D01*
X25081Y10229D01*
X25083Y10230D01*
X25085Y10229D01*
X26115D01*
X26117Y10230D01*
X26119Y10229D01*
X26149Y10231D01*
X26151Y10232D01*
X26153Y10231D01*
X26184Y10234D01*
X26186Y10235D01*
X26188Y10235D01*
X26218Y10240D01*
X26219Y10241D01*
X26221Y10240D01*
X26251Y10247D01*
X26253Y10248D01*
X26255Y10248D01*
X26284Y10255D01*
X26286Y10257D01*
X26288Y10257D01*
X26317Y10266D01*
X26319Y10267D01*
X26321Y10267D01*
X26349Y10278D01*
X26351Y10280D01*
X26353Y10280D01*
X26381Y10292D01*
X26382Y10294D01*
X26384Y10294D01*
X26411Y10308D01*
X26413Y10309D01*
X26415Y10309D01*
X26441Y10325D01*
X26442Y10326D01*
X26444Y10327D01*
X26470Y10343D01*
X26471Y10345D01*
X26473Y10346D01*
X26498Y10363D01*
X26499Y10365D01*
X26501Y10366D01*
X26525Y10385D01*
X26526Y10387D01*
X26528Y10388D01*
X26550Y10408D01*
X26551Y10410D01*
X26553Y10411D01*
X26574Y10432D01*
X26575Y10434D01*
X26577Y10435D01*
X26597Y10457D01*
X26598Y10460D01*
X26600Y10461D01*
X26619Y10484D01*
X26620Y10486D01*
X26622Y10487D01*
X26639Y10512D01*
X26640Y10514D01*
X26642Y10515D01*
X26658Y10541D01*
X26659Y10543D01*
X26660Y10544D01*
X26676Y10570D01*
X26676Y10572D01*
X26677Y10574D01*
X26691Y10601D01*
X26691Y10603D01*
X26693Y10604D01*
X26705Y10632D01*
X26705Y10634D01*
X26707Y10636D01*
X26718Y10664D01*
X26819Y10727D01*
X26895Y10715D01*
X26921Y10692D01*
X26923Y10691D01*
X26924Y10689D01*
X26950Y10667D01*
X26952Y10667D01*
X26954Y10665D01*
X26982Y10645D01*
X26984Y10644D01*
X26985Y10642D01*
X27014Y10624D01*
X27016Y10623D01*
X27017Y10621D01*
X27047Y10604D01*
X27049Y10604D01*
X27051Y10602D01*
X27081Y10587D01*
X27083Y10586D01*
X27085Y10585D01*
X27117Y10571D01*
X27119Y10571D01*
X27120Y10569D01*
X27152Y10557D01*
X27155Y10557D01*
X27156Y10556D01*
X27189Y10545D01*
X27191Y10545D01*
X27193Y10544D01*
X27226Y10535D01*
X27228Y10535D01*
X27230Y10534D01*
X27264Y10527D01*
X27266Y10527D01*
X27268Y10526D01*
X27302Y10521D01*
X27304Y10521D01*
X27306Y10520D01*
X27340Y10516D01*
X27342Y10517D01*
X27344Y10516D01*
X27379Y10514D01*
X27381Y10515D01*
X27383Y10514D01*
X28617D01*
X28619Y10515D01*
X28621Y10514D01*
X28656Y10516D01*
X28658Y10517D01*
X28660Y10516D01*
X28694Y10520D01*
X28696Y10521D01*
X28698Y10521D01*
X28732Y10526D01*
X28734Y10527D01*
X28736Y10527D01*
X28770Y10534D01*
X28772Y10535D01*
X28774Y10535D01*
X28807Y10544D01*
X28809Y10545D01*
X28811Y10545D01*
X28844Y10556D01*
X28845Y10557D01*
X28848Y10557D01*
X28880Y10569D01*
X28881Y10571D01*
X28883Y10571D01*
X28915Y10585D01*
X28917Y10586D01*
X28919Y10587D01*
X28949Y10602D01*
X28951Y10604D01*
X28953Y10604D01*
X28983Y10621D01*
X28984Y10623D01*
X28986Y10624D01*
X29015Y10642D01*
X29016Y10644D01*
X29018Y10645D01*
X29046Y10665D01*
X29048Y10667D01*
X29050Y10667D01*
X29076Y10689D01*
X29077Y10691D01*
X29079Y10692D01*
X29105Y10715D01*
X29106Y10717D01*
X29108Y10718D01*
X29132Y10742D01*
X29133Y10744D01*
X29135Y10745D01*
X29158Y10771D01*
X29159Y10773D01*
X29161Y10774D01*
X29183Y10800D01*
X29183Y10802D01*
X29185Y10804D01*
X29205Y10832D01*
X29206Y10834D01*
X29208Y10835D01*
X29226Y10864D01*
X29227Y10866D01*
X29229Y10867D01*
X29246Y10897D01*
X29246Y10899D01*
X29248Y10901D01*
X29263Y10931D01*
X29264Y10933D01*
X29265Y10935D01*
X29279Y10967D01*
X29279Y10969D01*
X29281Y10970D01*
X29293Y11002D01*
X29293Y11005D01*
X29294Y11006D01*
X29305Y11039D01*
X29305Y11041D01*
X29306Y11043D01*
X29315Y11076D01*
X29315Y11078D01*
X29316Y11080D01*
X29323Y11114D01*
X29323Y11116D01*
X29324Y11118D01*
X29329Y11152D01*
X29329Y11154D01*
X29330Y11156D01*
X29334Y11190D01*
X29333Y11192D01*
X29334Y11194D01*
X29336Y11229D01*
X29335Y11231D01*
X29336Y11233D01*
Y11267D01*
X29335Y11269D01*
X29336Y11271D01*
X29334Y11306D01*
X29333Y11308D01*
X29334Y11310D01*
X29330Y11344D01*
X29329Y11346D01*
X29329Y11348D01*
X29324Y11382D01*
X29323Y11384D01*
X29323Y11386D01*
X29316Y11420D01*
X29315Y11422D01*
X29315Y11424D01*
X29306Y11457D01*
X29305Y11459D01*
X29305Y11461D01*
X29294Y11494D01*
X29293Y11495D01*
X29293Y11498D01*
X29281Y11530D01*
X29279Y11531D01*
X29279Y11533D01*
X29265Y11565D01*
X29264Y11567D01*
X29263Y11569D01*
X29248Y11599D01*
X29246Y11601D01*
X29246Y11603D01*
X29229Y11633D01*
X29227Y11634D01*
X29226Y11636D01*
X29208Y11665D01*
X29206Y11666D01*
X29205Y11668D01*
X29185Y11696D01*
X29183Y11698D01*
X29183Y11700D01*
X29161Y11726D01*
X29159Y11727D01*
X29158Y11729D01*
X29135Y11755D01*
X29133Y11756D01*
X29132Y11758D01*
X29108Y11782D01*
X29106Y11783D01*
X29105Y11785D01*
X29079Y11808D01*
X29077Y11809D01*
X29076Y11811D01*
X29050Y11833D01*
X29048Y11833D01*
X29046Y11835D01*
X29018Y11855D01*
X29016Y11856D01*
X29015Y11858D01*
X28986Y11876D01*
X28984Y11877D01*
X28983Y11879D01*
X28953Y11896D01*
X28951Y11896D01*
X28949Y11898D01*
X28919Y11913D01*
X28917Y11914D01*
X28915Y11915D01*
X28883Y11929D01*
X28881Y11929D01*
X28880Y11931D01*
X28848Y11943D01*
X28845Y11943D01*
X28844Y11944D01*
X28811Y11955D01*
X28809Y11955D01*
X28807Y11956D01*
X28774Y11965D01*
X28772Y11965D01*
X28770Y11966D01*
X28736Y11973D01*
X28734Y11973D01*
X28732Y11974D01*
X28698Y11979D01*
X28696Y11979D01*
X28694Y11980D01*
X28660Y11984D01*
X28658Y11983D01*
X28656Y11984D01*
X28621Y11986D01*
X28619Y11985D01*
X28617Y11986D01*
X28337D01*
Y12274D01*
X28950D01*
X29004Y12296D01*
X29026Y12350D01*
Y14250D01*
X29004Y14304D01*
X28950Y14326D01*
X28337D01*
Y14674D01*
X28950D01*
X29004Y14696D01*
X29026Y14750D01*
Y16650D01*
X29004Y16704D01*
X28950Y16726D01*
X28249D01*
X28238Y16742D01*
X28083Y16897D01*
X28131Y17014D01*
X28617D01*
X28619Y17015D01*
X28621Y17014D01*
X28656Y17016D01*
X28658Y17017D01*
X28660Y17016D01*
X28694Y17020D01*
X28696Y17021D01*
X28698Y17021D01*
X28732Y17026D01*
X28734Y17027D01*
X28736Y17027D01*
X28770Y17034D01*
X28772Y17035D01*
X28774Y17035D01*
X28807Y17044D01*
X28809Y17045D01*
X28811Y17045D01*
X28844Y17056D01*
X28845Y17057D01*
X28848Y17057D01*
X28880Y17069D01*
X28881Y17071D01*
X28883Y17071D01*
X28915Y17085D01*
X28917Y17086D01*
X28919Y17087D01*
X28949Y17102D01*
X28951Y17104D01*
X28953Y17104D01*
X28983Y17121D01*
X28984Y17123D01*
X28986Y17124D01*
X29015Y17142D01*
X29016Y17144D01*
X29018Y17145D01*
X29046Y17165D01*
X29048Y17167D01*
X29050Y17167D01*
X29076Y17189D01*
X29077Y17191D01*
X29079Y17192D01*
X29105Y17215D01*
X29106Y17217D01*
X29108Y17218D01*
X29132Y17242D01*
X29133Y17244D01*
X29135Y17245D01*
X29158Y17271D01*
X29159Y17273D01*
X29161Y17274D01*
X29183Y17300D01*
X29183Y17302D01*
X29185Y17304D01*
X29205Y17332D01*
X29206Y17334D01*
X29208Y17335D01*
X29226Y17364D01*
X29227Y17366D01*
X29229Y17367D01*
X29246Y17397D01*
X29246Y17399D01*
X29248Y17401D01*
X29263Y17431D01*
X29264Y17433D01*
X29265Y17435D01*
X29279Y17467D01*
X29279Y17469D01*
X29281Y17470D01*
X29293Y17502D01*
X29293Y17505D01*
X29294Y17506D01*
X29305Y17539D01*
X29305Y17541D01*
X29306Y17543D01*
X29315Y17576D01*
X29315Y17578D01*
X29316Y17580D01*
X29323Y17614D01*
X29323Y17616D01*
X29324Y17618D01*
X29329Y17652D01*
X29329Y17654D01*
X29330Y17656D01*
X29334Y17690D01*
X29333Y17692D01*
X29334Y17694D01*
X29336Y17729D01*
X29335Y17731D01*
X29336Y17733D01*
Y17767D01*
X29335Y17769D01*
X29336Y17771D01*
X29334Y17806D01*
X29333Y17808D01*
X29334Y17810D01*
X29330Y17844D01*
X29329Y17846D01*
X29329Y17848D01*
X29324Y17882D01*
X29323Y17884D01*
X29323Y17886D01*
X29316Y17920D01*
X29315Y17922D01*
X29315Y17924D01*
X29306Y17957D01*
X29305Y17959D01*
X29305Y17961D01*
X29294Y17994D01*
X29293Y17995D01*
X29293Y17998D01*
X29281Y18030D01*
X29279Y18031D01*
X29279Y18033D01*
X29265Y18065D01*
X29264Y18067D01*
X29263Y18069D01*
X29248Y18099D01*
X29246Y18101D01*
X29246Y18103D01*
X29229Y18133D01*
X29227Y18134D01*
X29226Y18136D01*
X29208Y18165D01*
X29206Y18166D01*
X29205Y18169D01*
X29185Y18196D01*
X29183Y18198D01*
X29183Y18200D01*
X29161Y18226D01*
X29159Y18227D01*
X29158Y18229D01*
X29135Y18255D01*
X29133Y18256D01*
X29132Y18258D01*
X29108Y18282D01*
X29106Y18283D01*
X29105Y18285D01*
X29079Y18308D01*
X29077Y18309D01*
X29076Y18311D01*
X29050Y18333D01*
X29048Y18333D01*
X29046Y18335D01*
X29018Y18355D01*
X29016Y18356D01*
X29015Y18358D01*
X28986Y18376D01*
X28984Y18377D01*
X28983Y18379D01*
X28953Y18396D01*
X28951Y18396D01*
X28949Y18398D01*
X28919Y18413D01*
X28917Y18414D01*
X28915Y18415D01*
X28883Y18429D01*
X28881Y18429D01*
X28880Y18431D01*
X28848Y18443D01*
X28845Y18443D01*
X28844Y18444D01*
X28811Y18455D01*
X28809Y18455D01*
X28807Y18456D01*
X28774Y18465D01*
X28772Y18465D01*
X28770Y18466D01*
X28736Y18473D01*
X28734Y18473D01*
X28732Y18474D01*
X28698Y18479D01*
X28696Y18479D01*
X28694Y18480D01*
X28660Y18484D01*
X28658Y18483D01*
X28656Y18484D01*
X28621Y18486D01*
X28619Y18485D01*
X28617Y18486D01*
X27383D01*
X27381Y18485D01*
X27379Y18486D01*
X27344Y18484D01*
X27342Y18483D01*
X27340Y18484D01*
X27306Y18480D01*
X27304Y18479D01*
X27302Y18479D01*
X27268Y18474D01*
X27266Y18473D01*
X27264Y18473D01*
X27230Y18466D01*
X27228Y18465D01*
X27226Y18465D01*
X27193Y18456D01*
X27191Y18455D01*
X27189Y18455D01*
X27156Y18444D01*
X27155Y18443D01*
X27152Y18443D01*
X27120Y18431D01*
X27119Y18429D01*
X27117Y18429D01*
X27085Y18415D01*
X27083Y18414D01*
X27081Y18413D01*
X27051Y18398D01*
X27049Y18396D01*
X27047Y18396D01*
X27017Y18379D01*
X27016Y18377D01*
X27014Y18376D01*
X26985Y18358D01*
X26984Y18356D01*
X26982Y18355D01*
X26954Y18335D01*
X26952Y18333D01*
X26950Y18333D01*
X26933Y18319D01*
X26910Y18323D01*
X26841D01*
X26718Y18336D01*
X26707Y18364D01*
X26705Y18366D01*
X26705Y18368D01*
X26693Y18396D01*
X26691Y18397D01*
X26691Y18399D01*
X26677Y18426D01*
X26676Y18428D01*
X26676Y18430D01*
X26660Y18456D01*
X26659Y18457D01*
X26658Y18459D01*
X26642Y18485D01*
X26640Y18486D01*
X26639Y18488D01*
X26622Y18513D01*
X26620Y18514D01*
X26619Y18516D01*
X26600Y18540D01*
X26598Y18541D01*
X26597Y18543D01*
X26577Y18565D01*
X26575Y18566D01*
X26574Y18568D01*
X26553Y18589D01*
X26551Y18590D01*
X26550Y18592D01*
X26528Y18612D01*
X26526Y18613D01*
X26524Y18615D01*
X26501Y18634D01*
X26499Y18635D01*
X26498Y18637D01*
X26473Y18654D01*
X26471Y18655D01*
X26470Y18657D01*
X26444Y18673D01*
X26442Y18674D01*
X26441Y18675D01*
X26415Y18691D01*
X26413Y18691D01*
X26411Y18692D01*
X26384Y18706D01*
X26382Y18706D01*
X26381Y18708D01*
X26353Y18720D01*
X26351Y18720D01*
X26349Y18722D01*
X26321Y18733D01*
X26319Y18733D01*
X26317Y18734D01*
X26288Y18743D01*
X26286Y18743D01*
X26284Y18744D01*
X26255Y18752D01*
X26253Y18752D01*
X26251Y18753D01*
X26221Y18760D01*
X26219Y18759D01*
X26218Y18760D01*
X26188Y18765D01*
X26186Y18765D01*
X26184Y18766D01*
X26153Y18769D01*
X26151Y18768D01*
X26149Y18769D01*
X26119Y18771D01*
X26117Y18770D01*
X26115Y18771D01*
D02*
G37*
G36*
X22250Y18859D02*
X21627D01*
Y18077D01*
X22509D01*
Y18600D01*
X22489Y18699D01*
X22433Y18783D01*
X22349Y18839D01*
X22250Y18859D01*
D02*
G37*
G36*
X21373Y17823D02*
X20491D01*
Y17300D01*
X20511Y17201D01*
X20567Y17117D01*
X20651Y17061D01*
X20750Y17041D01*
X21373D01*
Y17823D01*
D02*
G37*
G36*
X10190Y16123D02*
X8703D01*
X8712Y16053D01*
X8788Y15870D01*
X8902Y15721D01*
X8891Y15660D01*
X8869Y15594D01*
X8672D01*
X8572Y15574D01*
X8488Y15518D01*
X8432Y15434D01*
X8413Y15335D01*
Y14812D01*
X9447D01*
X10481D01*
Y15335D01*
X10461Y15434D01*
X10405Y15518D01*
X10321Y15574D01*
X10222Y15594D01*
X10024D01*
X10002Y15660D01*
X9991Y15721D01*
X10105Y15870D01*
X10181Y16053D01*
X10190Y16123D01*
D02*
G37*
G36*
X1370Y15594D02*
X722D01*
X622Y15574D01*
X538Y15518D01*
X482Y15434D01*
X463Y15335D01*
Y14812D01*
X1370D01*
Y15594D01*
D02*
G37*
G36*
X10481Y14558D02*
X9574D01*
Y13776D01*
X10222D01*
X10321Y13796D01*
X10405Y13852D01*
X10461Y13936D01*
X10481Y14035D01*
Y14558D01*
D02*
G37*
G36*
X26000Y16259D02*
X25452D01*
Y15927D01*
X26259D01*
Y16000D01*
X26239Y16099D01*
X26183Y16183D01*
X26099Y16239D01*
X26000Y16259D01*
D02*
G37*
G36*
X25198D02*
X24650D01*
X24551Y16239D01*
X24467Y16183D01*
X24411Y16099D01*
X24391Y16000D01*
Y15927D01*
X25198D01*
Y16259D01*
D02*
G37*
G36*
X2272Y15594D02*
X1624D01*
Y14812D01*
X2531D01*
Y15335D01*
X2511Y15434D01*
X2455Y15518D01*
X2371Y15574D01*
X2272Y15594D01*
D02*
G37*
G36*
X2780Y4323D02*
X1898D01*
Y3541D01*
X2521D01*
X2620Y3561D01*
X2704Y3617D01*
X2761Y3701D01*
X2780Y3800D01*
Y4323D01*
D02*
G37*
G36*
X1644D02*
X762D01*
Y3800D01*
X782Y3701D01*
X838Y3617D01*
X922Y3561D01*
X1021Y3541D01*
X1644D01*
Y4323D01*
D02*
G37*
G36*
X2200Y2759D02*
X1677D01*
Y1877D01*
X2459D01*
Y2500D01*
X2439Y2599D01*
X2383Y2683D01*
X2299Y2739D01*
X2200Y2759D01*
D02*
G37*
G36*
X7892Y5048D02*
X7275D01*
X7284Y4978D01*
X7360Y4795D01*
X7481Y4637D01*
X7638Y4516D01*
X7822Y4440D01*
X7892Y4431D01*
Y5048D01*
D02*
G37*
G36*
X20211Y4623D02*
X19429D01*
Y3741D01*
X19952D01*
X20051Y3761D01*
X20135Y3817D01*
X20191Y3901D01*
X20211Y4000D01*
Y4623D01*
D02*
G37*
G36*
X19175D02*
X18393D01*
Y4000D01*
X18413Y3901D01*
X18469Y3817D01*
X18553Y3761D01*
X18652Y3741D01*
X19175D01*
Y4623D01*
D02*
G37*
G36*
X1423Y2759D02*
X900D01*
X801Y2739D01*
X717Y2683D01*
X661Y2599D01*
X641Y2500D01*
Y1877D01*
X1423D01*
Y2759D01*
D02*
G37*
G36*
X22323Y1873D02*
X21541D01*
Y1250D01*
X21561Y1151D01*
X21617Y1067D01*
X21701Y1011D01*
X21800Y991D01*
X22323D01*
Y1873D01*
D02*
G37*
G36*
X2459Y1623D02*
X1677D01*
Y741D01*
X2200D01*
X2299Y761D01*
X2383Y817D01*
X2439Y901D01*
X2459Y1000D01*
Y1623D01*
D02*
G37*
G36*
X1423D02*
X641D01*
Y1000D01*
X661Y901D01*
X717Y817D01*
X801Y761D01*
X900Y741D01*
X1423D01*
Y1623D01*
D02*
G37*
G36*
X27689Y2373D02*
X26807D01*
Y1491D01*
X27430D01*
X27529Y1511D01*
X27613Y1567D01*
X27669Y1651D01*
X27689Y1750D01*
Y2373D01*
D02*
G37*
G36*
X26553D02*
X25671D01*
Y1750D01*
X25691Y1651D01*
X25747Y1567D01*
X25831Y1511D01*
X25930Y1491D01*
X26553D01*
Y2373D01*
D02*
G37*
G36*
X23359Y1873D02*
X22577D01*
Y991D01*
X23100D01*
X23199Y1011D01*
X23283Y1067D01*
X23339Y1151D01*
X23359Y1250D01*
Y1873D01*
D02*
G37*
G36*
X1644Y5359D02*
X1021D01*
X922Y5339D01*
X838Y5283D01*
X782Y5199D01*
X762Y5100D01*
Y4577D01*
X1644D01*
Y5359D01*
D02*
G37*
G36*
X16873Y6994D02*
X16803Y6985D01*
X16620Y6909D01*
X16462Y6788D01*
X16341Y6630D01*
X16265Y6447D01*
X16256Y6377D01*
X16873D01*
Y6994D01*
D02*
G37*
G36*
X26751Y7961D02*
X26502Y7929D01*
X26270Y7833D01*
X26071Y7680D01*
X25918Y7481D01*
X25885Y7401D01*
X25150D01*
X24996Y7371D01*
X24866Y7284D01*
X23275Y5693D01*
X23150Y5709D01*
X22966Y5685D01*
X22795Y5614D01*
X22648Y5502D01*
X22536Y5355D01*
X22465Y5184D01*
X22461Y5151D01*
X22059D01*
Y5500D01*
X22043Y5579D01*
X21998Y5647D01*
X21931Y5691D01*
X21852Y5707D01*
X20552D01*
X20472Y5691D01*
X20405Y5647D01*
X20360Y5579D01*
X20345Y5500D01*
Y4000D01*
X20360Y3921D01*
X20405Y3853D01*
X20472Y3809D01*
X20552Y3793D01*
X21852D01*
X21931Y3809D01*
X21998Y3853D01*
X22043Y3921D01*
X22059Y4000D01*
Y4349D01*
X22885D01*
X22966Y4315D01*
X23150Y4291D01*
X23334Y4315D01*
X23505Y4386D01*
X23652Y4498D01*
X23764Y4645D01*
X23835Y4816D01*
X23859Y5000D01*
X23843Y5125D01*
X25316Y6599D01*
X25885D01*
X25918Y6519D01*
X26071Y6320D01*
X26270Y6167D01*
X26502Y6071D01*
X26751Y6039D01*
X27000Y6071D01*
X27232Y6167D01*
X27431Y6320D01*
X27583Y6519D01*
X27679Y6751D01*
X27712Y7000D01*
X27679Y7249D01*
X27583Y7481D01*
X27431Y7680D01*
X27232Y7833D01*
X27000Y7929D01*
X26751Y7961D01*
D02*
G37*
G36*
X17744Y6123D02*
X17127D01*
Y5506D01*
X17197Y5515D01*
X17380Y5591D01*
X17538Y5712D01*
X17659Y5870D01*
X17735Y6053D01*
X17744Y6123D01*
D02*
G37*
G36*
X20211Y7373D02*
X19429D01*
Y6491D01*
X19952D01*
X20051Y6511D01*
X20135Y6567D01*
X20191Y6651D01*
X20211Y6750D01*
Y7373D01*
D02*
G37*
G36*
X19175D02*
X18393D01*
Y6750D01*
X18413Y6651D01*
X18469Y6567D01*
X18553Y6511D01*
X18652Y6491D01*
X19175D01*
Y7373D01*
D02*
G37*
G36*
X17127Y6994D02*
Y6377D01*
X17744D01*
X17735Y6447D01*
X17659Y6630D01*
X17538Y6788D01*
X17380Y6909D01*
X17197Y6985D01*
X17127Y6994D01*
D02*
G37*
G36*
X16873Y6123D02*
X16256D01*
X16265Y6053D01*
X16341Y5870D01*
X16462Y5712D01*
X16620Y5591D01*
X16803Y5515D01*
X16873Y5506D01*
Y6123D01*
D02*
G37*
G36*
X19952Y5759D02*
X19429D01*
Y4877D01*
X20211D01*
Y5500D01*
X20191Y5599D01*
X20135Y5683D01*
X20051Y5739D01*
X19952Y5759D01*
D02*
G37*
G36*
X19175D02*
X18652D01*
X18553Y5739D01*
X18469Y5683D01*
X18413Y5599D01*
X18393Y5500D01*
Y4877D01*
X19175D01*
Y5759D01*
D02*
G37*
G36*
X2521Y5359D02*
X1898D01*
Y4577D01*
X2780D01*
Y5100D01*
X2761Y5199D01*
X2704Y5283D01*
X2620Y5339D01*
X2521Y5359D01*
D02*
G37*
G36*
Y10686D02*
X1021D01*
X942Y10671D01*
X875Y10626D01*
X830Y10559D01*
X814Y10479D01*
Y9179D01*
X830Y9100D01*
X875Y9033D01*
X942Y8988D01*
X1021Y8972D01*
X1370D01*
Y8668D01*
X1270Y8591D01*
X1157Y8444D01*
X1086Y8273D01*
X1062Y8090D01*
X1086Y7906D01*
X1157Y7735D01*
X1270Y7588D01*
X1370Y7511D01*
Y7207D01*
X1021D01*
X942Y7191D01*
X875Y7147D01*
X830Y7079D01*
X814Y7000D01*
Y5700D01*
X830Y5621D01*
X875Y5554D01*
X942Y5509D01*
X1021Y5493D01*
X2521D01*
X2601Y5509D01*
X2668Y5554D01*
X2713Y5621D01*
X2729Y5700D01*
Y7000D01*
X2713Y7079D01*
X2668Y7147D01*
X2601Y7191D01*
X2521Y7207D01*
X2173D01*
Y7511D01*
X2273Y7588D01*
X2386Y7735D01*
X2456Y7906D01*
X2481Y8090D01*
X2456Y8273D01*
X2386Y8444D01*
X2273Y8591D01*
X2173Y8668D01*
Y8972D01*
X2521D01*
X2601Y8988D01*
X2668Y9033D01*
X2713Y9100D01*
X2729Y9179D01*
Y10479D01*
X2713Y10559D01*
X2668Y10626D01*
X2601Y10671D01*
X2521Y10686D01*
D02*
G37*
G36*
X7892Y5919D02*
X7822Y5910D01*
X7638Y5834D01*
X7481Y5713D01*
X7360Y5555D01*
X7284Y5372D01*
X7275Y5302D01*
X7892D01*
Y5919D01*
D02*
G37*
G36*
X7009Y6998D02*
X6125D01*
X5241D01*
Y6915D01*
X5261Y6816D01*
X5306Y6749D01*
X5293Y6685D01*
Y6265D01*
X5309Y6186D01*
X5332Y6150D01*
X5309Y6114D01*
X5293Y6035D01*
Y5615D01*
X5309Y5536D01*
X5332Y5500D01*
X5309Y5464D01*
X5293Y5385D01*
Y5038D01*
X5166Y4985D01*
X4746Y5406D01*
X4758Y5500D01*
X4734Y5684D01*
X4663Y5855D01*
X4550Y6002D01*
X4403Y6114D01*
X4232Y6185D01*
X4049Y6209D01*
X3865Y6185D01*
X3694Y6114D01*
X3547Y6002D01*
X3434Y5855D01*
X3364Y5684D01*
X3339Y5500D01*
X3364Y5316D01*
X3434Y5145D01*
X3547Y4998D01*
X3694Y4886D01*
X3865Y4815D01*
X4049Y4791D01*
X4232Y4815D01*
X4340Y4859D01*
X4912Y4287D01*
X5021Y4214D01*
X5150Y4188D01*
X5184D01*
X5293Y4085D01*
Y3665D01*
X5309Y3586D01*
X5332Y3550D01*
X5309Y3514D01*
X5293Y3435D01*
Y3015D01*
X5261Y2976D01*
X5136D01*
X5114Y3010D01*
Y3098D01*
X5083Y3252D01*
X4996Y3382D01*
X4898Y3481D01*
X4927Y3550D01*
X4951Y3734D01*
X4927Y3918D01*
X4856Y4089D01*
X4743Y4236D01*
X4596Y4348D01*
X4425Y4419D01*
X4241Y4443D01*
X4058Y4419D01*
X3887Y4348D01*
X3740Y4236D01*
X3627Y4089D01*
X3556Y3918D01*
X3532Y3734D01*
X3556Y3550D01*
X3627Y3379D01*
X3740Y3232D01*
X3887Y3120D01*
X4058Y3049D01*
X4126Y3040D01*
X4172Y2906D01*
X4170Y2905D01*
X4069Y2753D01*
X4060Y2707D01*
X2800D01*
X2721Y2691D01*
X2654Y2647D01*
X2609Y2579D01*
X2593Y2500D01*
Y1000D01*
X2609Y921D01*
X2654Y854D01*
X2721Y809D01*
X2800Y793D01*
X4100D01*
X4179Y809D01*
X4247Y854D01*
X4291Y921D01*
X4307Y1000D01*
Y1034D01*
X9471D01*
X9498Y998D01*
X9645Y886D01*
X9816Y815D01*
X10000Y791D01*
X10184Y815D01*
X10355Y886D01*
X10502Y998D01*
X10529Y1034D01*
X18500D01*
X18678Y1069D01*
X18830Y1170D01*
X19193Y1534D01*
X19693D01*
Y1250D01*
X19709Y1171D01*
X19753Y1104D01*
X19821Y1059D01*
X19900Y1043D01*
X21200D01*
X21279Y1059D01*
X21347Y1104D01*
X21391Y1171D01*
X21407Y1250D01*
Y2624D01*
X21495Y2678D01*
X21541Y2651D01*
Y2127D01*
X22450D01*
X23359D01*
Y2750D01*
X23359Y2750D01*
X23439Y2849D01*
X23750D01*
X23904Y2879D01*
X24034Y2966D01*
X24666Y3599D01*
X25779D01*
X25804Y3472D01*
X25747Y3433D01*
X25691Y3349D01*
X25671Y3250D01*
Y2627D01*
X27689D01*
Y3250D01*
X27669Y3349D01*
X27613Y3433D01*
X27556Y3472D01*
X27581Y3599D01*
X28530D01*
X28688Y3440D01*
X28670Y3279D01*
X28540Y3180D01*
X28387Y2981D01*
X28291Y2749D01*
X28259Y2500D01*
X28291Y2251D01*
X28387Y2019D01*
X28540Y1820D01*
X28739Y1667D01*
X28971Y1571D01*
X29220Y1539D01*
X29469Y1571D01*
X29701Y1667D01*
X29900Y1820D01*
X30053Y2019D01*
X30149Y2251D01*
X30181Y2500D01*
X30149Y2749D01*
X30053Y2981D01*
X29900Y3180D01*
X29701Y3333D01*
X29597Y3375D01*
Y3500D01*
X29567Y3654D01*
X29480Y3784D01*
X28980Y4284D01*
X28850Y4371D01*
X28696Y4401D01*
X24500D01*
X24346Y4371D01*
X24216Y4284D01*
X23584Y3651D01*
X20800D01*
X20646Y3621D01*
X20516Y3534D01*
X20266Y3284D01*
X20179Y3154D01*
X20149Y3000D01*
Y2957D01*
X19900D01*
X19821Y2941D01*
X19753Y2897D01*
X19709Y2829D01*
X19693Y2750D01*
Y2466D01*
X19000D01*
X18822Y2431D01*
X18670Y2330D01*
X18307Y1966D01*
X10529D01*
X10502Y2002D01*
X10355Y2114D01*
X10184Y2185D01*
X10000Y2209D01*
X9816Y2185D01*
X9645Y2114D01*
X9498Y2002D01*
X9471Y1966D01*
X4719D01*
X4647Y2093D01*
X4678Y2144D01*
X4722Y2174D01*
X5421D01*
X5500Y2158D01*
X6750D01*
X6829Y2174D01*
X6897Y2218D01*
X6941Y2286D01*
X6957Y2365D01*
Y2785D01*
X6941Y2864D01*
X6918Y2900D01*
X6941Y2936D01*
X6957Y3015D01*
Y3435D01*
X6941Y3514D01*
X6918Y3550D01*
X6941Y3586D01*
X6957Y3665D01*
Y4085D01*
X6941Y4164D01*
X6918Y4200D01*
X6941Y4236D01*
X6957Y4315D01*
Y4735D01*
X6941Y4814D01*
X6918Y4850D01*
X6941Y4886D01*
X6957Y4965D01*
Y5385D01*
X6941Y5464D01*
X6918Y5500D01*
X6941Y5536D01*
X6957Y5615D01*
Y6035D01*
X6941Y6114D01*
X6918Y6150D01*
X6941Y6186D01*
X6957Y6265D01*
Y6685D01*
X6944Y6749D01*
X6989Y6816D01*
X7009Y6915D01*
Y6998D01*
D02*
G37*
G36*
X1307Y34873D02*
X690D01*
X699Y34803D01*
X775Y34620D01*
X896Y34462D01*
X1053Y34341D01*
X1237Y34265D01*
X1307Y34256D01*
Y34873D01*
D02*
G37*
G36*
X29323Y39299D02*
X28700D01*
X28601Y39279D01*
X28517Y39223D01*
X28461Y39139D01*
X28441Y39040D01*
Y38417D01*
X29323D01*
Y39299D01*
D02*
G37*
G36*
X5454Y27111D02*
X4831D01*
X4732Y27091D01*
X4648Y27035D01*
X4592Y26951D01*
X4572Y26852D01*
Y26329D01*
X5454D01*
Y27111D01*
D02*
G37*
G36*
X30200Y39299D02*
X29577D01*
Y38417D01*
X30459D01*
Y39040D01*
X30439Y39139D01*
X30383Y39223D01*
X30299Y39279D01*
X30200Y39299D01*
D02*
G37*
G36*
X6331Y27111D02*
X5708D01*
Y26329D01*
X6590D01*
Y26852D01*
X6570Y26951D01*
X6514Y27035D01*
X6430Y27091D01*
X6331Y27111D01*
D02*
G37*
G36*
X2178Y34873D02*
X1561D01*
Y34256D01*
X1631Y34265D01*
X1814Y34341D01*
X1972Y34462D01*
X2092Y34620D01*
X2168Y34803D01*
X2178Y34873D01*
D02*
G37*
G36*
X30459Y38163D02*
X29577D01*
Y37281D01*
X30200D01*
X30299Y37301D01*
X30383Y37357D01*
X30439Y37441D01*
X30459Y37540D01*
Y38163D01*
D02*
G37*
G36*
X15123Y33661D02*
X14653D01*
X14554Y33642D01*
X14470Y33586D01*
X14414Y33502D01*
X14394Y33402D01*
Y33377D01*
X15123D01*
Y33661D01*
D02*
G37*
G36*
X25923Y38373D02*
X25341D01*
Y37850D01*
X25361Y37751D01*
X25417Y37667D01*
X25501Y37611D01*
X25600Y37591D01*
X25923D01*
Y38373D01*
D02*
G37*
G36*
X13349Y32959D02*
X12726D01*
Y32177D01*
X13608D01*
Y32700D01*
X13588Y32799D01*
X13532Y32883D01*
X13448Y32939D01*
X13349Y32959D01*
D02*
G37*
G36*
X2373Y38209D02*
X1750D01*
X1651Y38189D01*
X1567Y38133D01*
X1511Y38049D01*
X1491Y37950D01*
Y37427D01*
X2373D01*
Y38209D01*
D02*
G37*
G36*
X3250D02*
X2627D01*
Y37427D01*
X3509D01*
Y37950D01*
X3489Y38049D01*
X3433Y38133D01*
X3349Y38189D01*
X3250Y38209D01*
D02*
G37*
G36*
X15847Y33661D02*
X15377D01*
Y33377D01*
X16106D01*
Y33402D01*
X16086Y33502D01*
X16030Y33586D01*
X15946Y33642D01*
X15847Y33661D01*
D02*
G37*
G36*
X12472Y32959D02*
X11849D01*
X11750Y32939D01*
X11666Y32883D01*
X11609Y32799D01*
X11590Y32700D01*
Y32177D01*
X12472D01*
Y32959D01*
D02*
G37*
G36*
X22198Y39406D02*
X21182D01*
X21103Y39390D01*
X21035Y39345D01*
X20990Y39278D01*
X20975Y39199D01*
Y37801D01*
X20990Y37722D01*
X21035Y37655D01*
X21103Y37610D01*
X21182Y37594D01*
X22198D01*
X22277Y37610D01*
X22344Y37655D01*
X22389Y37722D01*
X22405Y37801D01*
Y38163D01*
X23493D01*
Y37850D01*
X23509Y37771D01*
X23553Y37703D01*
X23621Y37659D01*
X23700Y37643D01*
X24600D01*
X24679Y37659D01*
X24747Y37703D01*
X24791Y37771D01*
X24807Y37850D01*
Y39150D01*
X24791Y39229D01*
X24747Y39297D01*
X24679Y39341D01*
X24600Y39357D01*
X23700D01*
X23621Y39341D01*
X23553Y39297D01*
X23509Y39229D01*
X23493Y39150D01*
Y38837D01*
X22405D01*
Y39199D01*
X22389Y39278D01*
X22344Y39345D01*
X22277Y39390D01*
X22198Y39406D01*
D02*
G37*
G36*
X26759Y38373D02*
X26177D01*
Y37591D01*
X26500D01*
X26599Y37611D01*
X26683Y37667D01*
X26739Y37751D01*
X26759Y37850D01*
Y38373D01*
D02*
G37*
G36*
X13608Y31923D02*
X12726D01*
Y31141D01*
X13349D01*
X13448Y31161D01*
X13532Y31217D01*
X13588Y31301D01*
X13608Y31400D01*
Y31923D01*
D02*
G37*
G36*
X29418Y21562D02*
Y20945D01*
X30035D01*
X30025Y21015D01*
X29949Y21199D01*
X29829Y21356D01*
X29671Y21477D01*
X29488Y21553D01*
X29418Y21562D01*
D02*
G37*
G36*
X29323Y38163D02*
X28441D01*
Y37540D01*
X28461Y37441D01*
X28517Y37357D01*
X28601Y37301D01*
X28700Y37281D01*
X29323D01*
Y38163D01*
D02*
G37*
G36*
X8783Y22049D02*
X8001D01*
Y21167D01*
X8524D01*
X8623Y21187D01*
X8707Y21243D01*
X8763Y21327D01*
X8783Y21426D01*
Y22049D01*
D02*
G37*
G36*
X7747D02*
X6965D01*
Y21426D01*
X6984Y21327D01*
X7041Y21243D01*
X7125Y21187D01*
X7224Y21167D01*
X7747D01*
Y22049D01*
D02*
G37*
G36*
X2373Y37173D02*
X1491D01*
Y36650D01*
X1511Y36551D01*
X1567Y36467D01*
X1651Y36411D01*
X1750Y36391D01*
X2373D01*
Y37173D01*
D02*
G37*
G36*
X26500Y39409D02*
X26177D01*
Y38627D01*
X26759D01*
Y39150D01*
X26739Y39249D01*
X26683Y39333D01*
X26599Y39389D01*
X26500Y39409D01*
D02*
G37*
G36*
X30035Y20691D02*
X29418D01*
Y20075D01*
X29488Y20084D01*
X29671Y20160D01*
X29829Y20281D01*
X29949Y20438D01*
X30025Y20622D01*
X30035Y20691D01*
D02*
G37*
G36*
X3509Y37173D02*
X2627D01*
Y36391D01*
X3250D01*
X3349Y36411D01*
X3433Y36467D01*
X3489Y36551D01*
X3509Y36650D01*
Y37173D01*
D02*
G37*
G36*
X29164Y21562D02*
X29094Y21553D01*
X28911Y21477D01*
X28753Y21356D01*
X28632Y21199D01*
X28556Y21015D01*
X28547Y20945D01*
X29164D01*
Y21562D01*
D02*
G37*
G36*
X2989Y26469D02*
X2366D01*
Y25587D01*
X3247D01*
Y26210D01*
X3228Y26309D01*
X3172Y26393D01*
X3088Y26449D01*
X2989Y26469D01*
D02*
G37*
G36*
X6590Y26075D02*
X5708D01*
Y25293D01*
X6331D01*
X6430Y25312D01*
X6514Y25368D01*
X6570Y25452D01*
X6590Y25552D01*
Y26075D01*
D02*
G37*
G36*
X5454D02*
X4572D01*
Y25552D01*
X4592Y25452D01*
X4648Y25368D01*
X4732Y25312D01*
X4831Y25293D01*
X5454D01*
Y26075D01*
D02*
G37*
G36*
X1307Y35744D02*
X1237Y35735D01*
X1053Y35659D01*
X896Y35538D01*
X775Y35380D01*
X699Y35197D01*
X690Y35127D01*
X1307D01*
Y35744D01*
D02*
G37*
G36*
X1561D02*
Y35127D01*
X2178D01*
X2168Y35197D01*
X2092Y35380D01*
X1972Y35538D01*
X1814Y35659D01*
X1631Y35735D01*
X1561Y35744D01*
D02*
G37*
G36*
X8524Y23185D02*
X8001D01*
Y22303D01*
X8783D01*
Y22926D01*
X8763Y23025D01*
X8707Y23109D01*
X8623Y23165D01*
X8524Y23185D01*
D02*
G37*
G36*
X7747D02*
X7224D01*
X7125Y23165D01*
X7041Y23109D01*
X6984Y23025D01*
X6965Y22926D01*
Y22303D01*
X7747D01*
Y23185D01*
D02*
G37*
G36*
X25923Y39409D02*
X25600D01*
X25501Y39389D01*
X25417Y39333D01*
X25361Y39249D01*
X25341Y39150D01*
Y38627D01*
X25923D01*
Y39409D01*
D02*
G37*
G36*
X3247Y25333D02*
X2366D01*
Y24451D01*
X2989D01*
X3088Y24471D01*
X3172Y24527D01*
X3228Y24611D01*
X3247Y24710D01*
Y25333D01*
D02*
G37*
%LPD*%
G36*
X20543Y15400D02*
X20559Y15321D01*
X20604Y15253D01*
X20671Y15209D01*
X20750Y15193D01*
X22250D01*
X22329Y15209D01*
X22396Y15253D01*
X22441Y15321D01*
X22455Y15389D01*
X22504Y15420D01*
X22575Y15449D01*
X23710Y14314D01*
X23658Y14187D01*
X23366D01*
X23237Y14161D01*
X23128Y14088D01*
X22584Y13544D01*
X22457Y13597D01*
Y13757D01*
X22441Y13836D01*
X22396Y13904D01*
X22329Y13949D01*
X22250Y13964D01*
X20750D01*
X20671Y13949D01*
X20604Y13904D01*
X20559Y13836D01*
X20543Y13757D01*
Y13444D01*
X20357D01*
X20228Y13418D01*
X20119Y13345D01*
X19513Y12739D01*
X19024D01*
X18991Y12780D01*
Y13796D01*
X18976Y13875D01*
X18931Y13942D01*
X18864Y13987D01*
X18784Y14003D01*
X18422D01*
Y14946D01*
X19189Y15713D01*
X20543D01*
Y15400D01*
D02*
G37*
G36*
X16597Y12066D02*
X17090D01*
X17111Y12052D01*
X17185Y11939D01*
X17180Y11916D01*
Y10900D01*
X17196Y10821D01*
X17241Y10754D01*
X17308Y10709D01*
X17387Y10693D01*
X17749D01*
Y10125D01*
X15953Y8330D01*
X15826Y8382D01*
Y10693D01*
X16198D01*
X16278Y10709D01*
X16345Y10754D01*
X16390Y10821D01*
X16406Y10900D01*
Y11916D01*
X16391Y11991D01*
X16426Y12040D01*
X16441Y12058D01*
X16480Y12090D01*
X16597Y12066D01*
D02*
G37*
G36*
X28652Y18408D02*
X28686Y18405D01*
X28720Y18399D01*
X28754Y18392D01*
X28788Y18383D01*
X28820Y18372D01*
X28853Y18360D01*
X28884Y18346D01*
X28915Y18330D01*
X28945Y18313D01*
X28974Y18294D01*
X29002Y18274D01*
X29029Y18252D01*
X29054Y18229D01*
X29079Y18204D01*
X29102Y18179D01*
X29124Y18152D01*
X29144Y18124D01*
X29163Y18095D01*
X29180Y18065D01*
X29196Y18034D01*
X29210Y18003D01*
X29222Y17970D01*
X29233Y17938D01*
X29242Y17904D01*
X29249Y17870D01*
X29255Y17836D01*
X29258Y17802D01*
X29260Y17767D01*
Y17750D01*
Y17733D01*
X29258Y17698D01*
X29255Y17664D01*
X29249Y17630D01*
X29242Y17596D01*
X29233Y17562D01*
X29222Y17530D01*
X29210Y17497D01*
X29196Y17466D01*
X29180Y17435D01*
X29163Y17405D01*
X29144Y17376D01*
X29124Y17348D01*
X29102Y17321D01*
X29079Y17296D01*
X29054Y17271D01*
X29029Y17248D01*
X29002Y17226D01*
X28974Y17206D01*
X28945Y17187D01*
X28915Y17170D01*
X28884Y17154D01*
X28853Y17140D01*
X28820Y17128D01*
X28788Y17117D01*
X28754Y17108D01*
X28720Y17101D01*
X28686Y17095D01*
X28652Y17092D01*
X28617Y17090D01*
X27383D01*
X27348Y17092D01*
X27314Y17095D01*
X27280Y17101D01*
X27246Y17108D01*
X27212Y17117D01*
X27180Y17128D01*
X27147Y17140D01*
X27116Y17154D01*
X27085Y17170D01*
X27055Y17187D01*
X27026Y17206D01*
X26998Y17226D01*
X26971Y17248D01*
X26946Y17271D01*
X26921Y17296D01*
X26898Y17321D01*
X26876Y17348D01*
X26856Y17376D01*
X26837Y17405D01*
X26820Y17435D01*
X26804Y17466D01*
X26790Y17497D01*
X26778Y17530D01*
X26767Y17562D01*
X26758Y17596D01*
X26751Y17630D01*
X26745Y17664D01*
X26742Y17698D01*
X26740Y17733D01*
Y17750D01*
Y17767D01*
X26742Y17802D01*
X26745Y17836D01*
X26751Y17870D01*
X26758Y17904D01*
X26767Y17938D01*
X26778Y17970D01*
X26790Y18003D01*
X26804Y18034D01*
X26820Y18065D01*
X26837Y18095D01*
X26856Y18124D01*
X26876Y18152D01*
X26898Y18179D01*
X26921Y18204D01*
X26946Y18229D01*
X26971Y18252D01*
X26998Y18274D01*
X27026Y18294D01*
X27055Y18313D01*
X27085Y18330D01*
X27116Y18346D01*
X27147Y18360D01*
X27180Y18372D01*
X27212Y18383D01*
X27246Y18392D01*
X27280Y18399D01*
X27314Y18405D01*
X27348Y18408D01*
X27383Y18410D01*
X28617D01*
X28652Y18408D01*
D02*
G37*
G36*
X26146Y18693D02*
X26176Y18690D01*
X26206Y18685D01*
X26235Y18679D01*
X26265Y18671D01*
X26294Y18662D01*
X26322Y18651D01*
X26350Y18639D01*
X26377Y18625D01*
X26403Y18610D01*
X26429Y18593D01*
X26453Y18575D01*
X26477Y18556D01*
X26499Y18536D01*
X26521Y18514D01*
X26541Y18492D01*
X26560Y18468D01*
X26578Y18444D01*
X26595Y18418D01*
X26610Y18392D01*
X26624Y18365D01*
X26636Y18337D01*
X26647Y18309D01*
X26656Y18280D01*
X26664Y18250D01*
X26670Y18221D01*
X26675Y18191D01*
X26678Y18161D01*
X26680Y18130D01*
Y18115D01*
Y18100D01*
X26678Y18069D01*
X26675Y18039D01*
X26670Y18009D01*
X26664Y17980D01*
X26656Y17950D01*
X26647Y17921D01*
X26636Y17893D01*
X26624Y17865D01*
X26610Y17838D01*
X26595Y17812D01*
X26578Y17786D01*
X26560Y17762D01*
X26541Y17738D01*
X26521Y17716D01*
X26499Y17694D01*
X26477Y17674D01*
X26453Y17655D01*
X26429Y17637D01*
X26403Y17620D01*
X26377Y17605D01*
X26350Y17591D01*
X26322Y17579D01*
X26294Y17568D01*
X26265Y17559D01*
X26235Y17551D01*
X26206Y17545D01*
X26176Y17540D01*
X26146Y17537D01*
X26115Y17535D01*
X25085D01*
X25054Y17537D01*
X25024Y17540D01*
X24994Y17545D01*
X24965Y17551D01*
X24935Y17559D01*
X24906Y17568D01*
X24878Y17579D01*
X24850Y17591D01*
X24823Y17605D01*
X24797Y17620D01*
X24771Y17637D01*
X24747Y17655D01*
X24723Y17674D01*
X24701Y17694D01*
X24679Y17716D01*
X24659Y17738D01*
X24640Y17762D01*
X24622Y17786D01*
X24605Y17812D01*
X24590Y17838D01*
X24576Y17865D01*
X24564Y17893D01*
X24553Y17921D01*
X24544Y17950D01*
X24536Y17980D01*
X24530Y18009D01*
X24525Y18039D01*
X24522Y18069D01*
X24520Y18100D01*
Y18115D01*
Y18130D01*
X24522Y18161D01*
X24525Y18191D01*
X24530Y18221D01*
X24536Y18250D01*
X24544Y18280D01*
X24553Y18309D01*
X24564Y18337D01*
X24576Y18365D01*
X24590Y18392D01*
X24605Y18418D01*
X24622Y18444D01*
X24640Y18468D01*
X24659Y18492D01*
X24679Y18514D01*
X24701Y18536D01*
X24723Y18556D01*
X24747Y18575D01*
X24771Y18593D01*
X24797Y18610D01*
X24823Y18625D01*
X24850Y18639D01*
X24878Y18651D01*
X24906Y18662D01*
X24935Y18671D01*
X24965Y18679D01*
X24994Y18685D01*
X25024Y18690D01*
X25054Y18693D01*
X25085Y18695D01*
X26115D01*
X26146Y18693D01*
D02*
G37*
G36*
Y11463D02*
X26176Y11460D01*
X26206Y11455D01*
X26235Y11449D01*
X26265Y11441D01*
X26294Y11432D01*
X26322Y11421D01*
X26350Y11409D01*
X26377Y11395D01*
X26403Y11380D01*
X26429Y11363D01*
X26453Y11345D01*
X26477Y11326D01*
X26499Y11306D01*
X26521Y11284D01*
X26541Y11262D01*
X26560Y11238D01*
X26578Y11214D01*
X26595Y11188D01*
X26610Y11162D01*
X26624Y11135D01*
X26636Y11107D01*
X26647Y11079D01*
X26656Y11050D01*
X26664Y11020D01*
X26670Y10991D01*
X26675Y10961D01*
X26678Y10931D01*
X26680Y10900D01*
Y10885D01*
Y10870D01*
X26678Y10839D01*
X26675Y10809D01*
X26670Y10779D01*
X26664Y10750D01*
X26656Y10720D01*
X26647Y10691D01*
X26636Y10663D01*
X26624Y10635D01*
X26610Y10608D01*
X26595Y10582D01*
X26578Y10556D01*
X26560Y10532D01*
X26541Y10508D01*
X26521Y10486D01*
X26499Y10464D01*
X26477Y10444D01*
X26453Y10425D01*
X26429Y10407D01*
X26403Y10390D01*
X26377Y10375D01*
X26350Y10361D01*
X26322Y10349D01*
X26294Y10338D01*
X26265Y10329D01*
X26235Y10321D01*
X26206Y10315D01*
X26176Y10310D01*
X26146Y10307D01*
X26115Y10305D01*
X25085D01*
X25054Y10307D01*
X25024Y10310D01*
X24994Y10315D01*
X24965Y10321D01*
X24935Y10329D01*
X24906Y10338D01*
X24878Y10349D01*
X24850Y10361D01*
X24823Y10375D01*
X24797Y10390D01*
X24771Y10407D01*
X24747Y10425D01*
X24723Y10444D01*
X24701Y10464D01*
X24679Y10486D01*
X24659Y10508D01*
X24640Y10532D01*
X24622Y10556D01*
X24605Y10582D01*
X24590Y10608D01*
X24576Y10635D01*
X24564Y10663D01*
X24553Y10691D01*
X24544Y10720D01*
X24536Y10750D01*
X24530Y10779D01*
X24525Y10809D01*
X24522Y10839D01*
X24520Y10870D01*
Y10885D01*
Y10900D01*
X24522Y10931D01*
X24525Y10961D01*
X24530Y10991D01*
X24536Y11020D01*
X24544Y11050D01*
X24553Y11079D01*
X24564Y11107D01*
X24576Y11135D01*
X24590Y11162D01*
X24605Y11188D01*
X24622Y11214D01*
X24640Y11238D01*
X24659Y11262D01*
X24679Y11284D01*
X24701Y11306D01*
X24723Y11326D01*
X24747Y11345D01*
X24771Y11363D01*
X24797Y11380D01*
X24823Y11395D01*
X24850Y11409D01*
X24878Y11421D01*
X24906Y11432D01*
X24935Y11441D01*
X24965Y11449D01*
X24994Y11455D01*
X25024Y11460D01*
X25054Y11463D01*
X25085Y11465D01*
X26115D01*
X26146Y11463D01*
D02*
G37*
G36*
X28652Y11908D02*
X28686Y11905D01*
X28720Y11899D01*
X28754Y11892D01*
X28788Y11883D01*
X28820Y11872D01*
X28853Y11860D01*
X28884Y11846D01*
X28915Y11830D01*
X28945Y11813D01*
X28974Y11794D01*
X29002Y11774D01*
X29029Y11752D01*
X29054Y11729D01*
X29079Y11704D01*
X29102Y11679D01*
X29124Y11652D01*
X29144Y11624D01*
X29163Y11595D01*
X29180Y11565D01*
X29196Y11534D01*
X29210Y11503D01*
X29222Y11470D01*
X29233Y11438D01*
X29242Y11404D01*
X29249Y11370D01*
X29255Y11336D01*
X29258Y11302D01*
X29260Y11267D01*
Y11250D01*
Y11233D01*
X29258Y11198D01*
X29255Y11164D01*
X29249Y11130D01*
X29242Y11096D01*
X29233Y11062D01*
X29222Y11030D01*
X29210Y10997D01*
X29196Y10966D01*
X29180Y10935D01*
X29163Y10905D01*
X29144Y10876D01*
X29124Y10848D01*
X29102Y10821D01*
X29079Y10796D01*
X29054Y10771D01*
X29029Y10748D01*
X29002Y10726D01*
X28974Y10706D01*
X28945Y10687D01*
X28915Y10670D01*
X28884Y10654D01*
X28853Y10640D01*
X28820Y10628D01*
X28788Y10617D01*
X28754Y10608D01*
X28720Y10601D01*
X28686Y10595D01*
X28652Y10592D01*
X28617Y10590D01*
X27383D01*
X27348Y10592D01*
X27314Y10595D01*
X27280Y10601D01*
X27246Y10608D01*
X27212Y10617D01*
X27180Y10628D01*
X27147Y10640D01*
X27116Y10654D01*
X27085Y10670D01*
X27055Y10687D01*
X27026Y10706D01*
X26998Y10726D01*
X26971Y10748D01*
X26946Y10771D01*
X26921Y10796D01*
X26898Y10821D01*
X26876Y10848D01*
X26856Y10876D01*
X26837Y10905D01*
X26820Y10935D01*
X26804Y10966D01*
X26790Y10997D01*
X26778Y11030D01*
X26767Y11062D01*
X26758Y11096D01*
X26751Y11130D01*
X26745Y11164D01*
X26742Y11198D01*
X26740Y11233D01*
Y11250D01*
Y11267D01*
X26742Y11302D01*
X26745Y11336D01*
X26751Y11370D01*
X26758Y11404D01*
X26767Y11438D01*
X26778Y11470D01*
X26790Y11503D01*
X26804Y11534D01*
X26820Y11565D01*
X26837Y11595D01*
X26856Y11624D01*
X26876Y11652D01*
X26898Y11679D01*
X26921Y11704D01*
X26946Y11729D01*
X26971Y11752D01*
X26998Y11774D01*
X27026Y11794D01*
X27055Y11813D01*
X27085Y11830D01*
X27116Y11846D01*
X27147Y11860D01*
X27180Y11872D01*
X27212Y11883D01*
X27246Y11892D01*
X27280Y11899D01*
X27314Y11905D01*
X27348Y11908D01*
X27383Y11910D01*
X28617D01*
X28652Y11908D01*
D02*
G37*
%LPC*%
G36*
X28609Y18110D02*
X27391D01*
X27372Y18109D01*
X27353Y18107D01*
X27334Y18104D01*
X27316Y18100D01*
X27298Y18095D01*
X27280Y18089D01*
X27262Y18083D01*
X27245Y18075D01*
X27228Y18066D01*
X27212Y18057D01*
X27196Y18047D01*
X27181Y18036D01*
X27166Y18024D01*
X27152Y18011D01*
X27139Y17998D01*
X27126Y17984D01*
X27114Y17969D01*
X27103Y17954D01*
X27093Y17938D01*
X27084Y17922D01*
X27075Y17905D01*
X27067Y17888D01*
X27061Y17870D01*
X27055Y17852D01*
X27050Y17834D01*
X27046Y17816D01*
X27043Y17797D01*
X27041Y17778D01*
X27040Y17759D01*
Y17750D01*
Y17741D01*
X27041Y17722D01*
X27043Y17703D01*
X27046Y17684D01*
X27050Y17666D01*
X27055Y17648D01*
X27061Y17630D01*
X27067Y17612D01*
X27075Y17595D01*
X27084Y17578D01*
X27093Y17562D01*
X27103Y17546D01*
X27114Y17531D01*
X27126Y17516D01*
X27139Y17502D01*
X27152Y17489D01*
X27166Y17476D01*
X27181Y17464D01*
X27196Y17453D01*
X27212Y17443D01*
X27228Y17434D01*
X27245Y17425D01*
X27262Y17417D01*
X27280Y17411D01*
X27298Y17405D01*
X27316Y17400D01*
X27334Y17396D01*
X27353Y17393D01*
X27372Y17391D01*
X27391Y17390D01*
X28609D01*
X28628Y17391D01*
X28647Y17393D01*
X28666Y17396D01*
X28684Y17400D01*
X28702Y17405D01*
X28720Y17411D01*
X28738Y17417D01*
X28755Y17425D01*
X28772Y17434D01*
X28788Y17443D01*
X28804Y17453D01*
X28819Y17464D01*
X28834Y17476D01*
X28848Y17489D01*
X28861Y17502D01*
X28874Y17516D01*
X28886Y17531D01*
X28897Y17546D01*
X28907Y17562D01*
X28916Y17578D01*
X28925Y17595D01*
X28933Y17612D01*
X28939Y17630D01*
X28945Y17648D01*
X28950Y17666D01*
X28954Y17684D01*
X28957Y17703D01*
X28959Y17722D01*
X28960Y17741D01*
Y17750D01*
Y17759D01*
X28959Y17778D01*
X28957Y17797D01*
X28954Y17816D01*
X28950Y17834D01*
X28945Y17852D01*
X28939Y17870D01*
X28933Y17888D01*
X28925Y17905D01*
X28916Y17922D01*
X28907Y17938D01*
X28897Y17954D01*
X28886Y17969D01*
X28874Y17984D01*
X28861Y17998D01*
X28848Y18011D01*
X28834Y18024D01*
X28819Y18036D01*
X28804Y18047D01*
X28788Y18057D01*
X28772Y18066D01*
X28755Y18075D01*
X28738Y18083D01*
X28720Y18089D01*
X28702Y18095D01*
X28684Y18100D01*
X28666Y18104D01*
X28647Y18107D01*
X28628Y18109D01*
X28609Y18110D01*
D02*
G37*
G36*
X26107Y18395D02*
X25093D01*
X25078Y18394D01*
X25063Y18393D01*
X25049Y18390D01*
X25035Y18387D01*
X25020Y18384D01*
X25007Y18379D01*
X24993Y18374D01*
X24979Y18368D01*
X24966Y18361D01*
X24954Y18354D01*
X24941Y18346D01*
X24929Y18337D01*
X24918Y18328D01*
X24907Y18318D01*
X24897Y18308D01*
X24887Y18297D01*
X24878Y18286D01*
X24869Y18274D01*
X24861Y18261D01*
X24854Y18249D01*
X24847Y18236D01*
X24841Y18222D01*
X24836Y18208D01*
X24831Y18195D01*
X24828Y18180D01*
X24825Y18166D01*
X24822Y18152D01*
X24821Y18137D01*
X24820Y18122D01*
Y18115D01*
Y18108D01*
X24821Y18093D01*
X24822Y18078D01*
X24825Y18064D01*
X24828Y18050D01*
X24831Y18035D01*
X24836Y18021D01*
X24841Y18008D01*
X24847Y17994D01*
X24854Y17981D01*
X24861Y17969D01*
X24869Y17956D01*
X24878Y17944D01*
X24887Y17933D01*
X24897Y17922D01*
X24907Y17912D01*
X24918Y17902D01*
X24929Y17893D01*
X24941Y17884D01*
X24954Y17876D01*
X24966Y17869D01*
X24979Y17862D01*
X24993Y17856D01*
X25007Y17851D01*
X25020Y17846D01*
X25035Y17843D01*
X25049Y17840D01*
X25063Y17837D01*
X25078Y17836D01*
X25093Y17835D01*
X26107D01*
X26122Y17836D01*
X26137Y17837D01*
X26151Y17840D01*
X26165Y17843D01*
X26180Y17846D01*
X26194Y17851D01*
X26207Y17856D01*
X26221Y17862D01*
X26234Y17869D01*
X26246Y17876D01*
X26259Y17884D01*
X26271Y17893D01*
X26282Y17902D01*
X26293Y17912D01*
X26303Y17922D01*
X26313Y17933D01*
X26322Y17944D01*
X26331Y17956D01*
X26339Y17969D01*
X26346Y17981D01*
X26353Y17994D01*
X26359Y18008D01*
X26364Y18021D01*
X26369Y18035D01*
X26372Y18050D01*
X26375Y18064D01*
X26378Y18078D01*
X26379Y18093D01*
X26380Y18108D01*
Y18115D01*
Y18122D01*
X26379Y18137D01*
X26378Y18152D01*
X26375Y18166D01*
X26372Y18180D01*
X26369Y18195D01*
X26364Y18208D01*
X26359Y18222D01*
X26353Y18236D01*
X26346Y18249D01*
X26339Y18261D01*
X26331Y18274D01*
X26322Y18286D01*
X26313Y18297D01*
X26303Y18308D01*
X26293Y18318D01*
X26282Y18328D01*
X26271Y18337D01*
X26259Y18346D01*
X26246Y18354D01*
X26234Y18361D01*
X26221Y18368D01*
X26207Y18374D01*
X26194Y18379D01*
X26180Y18384D01*
X26165Y18387D01*
X26151Y18390D01*
X26137Y18393D01*
X26122Y18394D01*
X26107Y18395D01*
D02*
G37*
G36*
Y11165D02*
X25093D01*
X25078Y11164D01*
X25063Y11163D01*
X25049Y11160D01*
X25035Y11157D01*
X25020Y11154D01*
X25007Y11149D01*
X24993Y11144D01*
X24979Y11138D01*
X24966Y11131D01*
X24954Y11124D01*
X24941Y11116D01*
X24929Y11107D01*
X24918Y11098D01*
X24907Y11088D01*
X24897Y11078D01*
X24887Y11067D01*
X24878Y11056D01*
X24869Y11044D01*
X24861Y11031D01*
X24854Y11019D01*
X24847Y11006D01*
X24841Y10992D01*
X24836Y10979D01*
X24831Y10965D01*
X24828Y10950D01*
X24825Y10936D01*
X24822Y10922D01*
X24821Y10907D01*
X24820Y10892D01*
Y10885D01*
Y10878D01*
X24821Y10863D01*
X24822Y10848D01*
X24825Y10834D01*
X24828Y10820D01*
X24831Y10805D01*
X24836Y10792D01*
X24841Y10778D01*
X24847Y10764D01*
X24854Y10751D01*
X24861Y10739D01*
X24869Y10726D01*
X24878Y10714D01*
X24887Y10703D01*
X24897Y10692D01*
X24907Y10682D01*
X24918Y10672D01*
X24929Y10663D01*
X24941Y10654D01*
X24954Y10646D01*
X24966Y10639D01*
X24979Y10632D01*
X24993Y10626D01*
X25007Y10621D01*
X25020Y10616D01*
X25035Y10613D01*
X25049Y10610D01*
X25063Y10607D01*
X25078Y10606D01*
X25093Y10605D01*
X26107D01*
X26122Y10606D01*
X26137Y10607D01*
X26151Y10610D01*
X26165Y10613D01*
X26180Y10616D01*
X26194Y10621D01*
X26207Y10626D01*
X26221Y10632D01*
X26234Y10639D01*
X26246Y10646D01*
X26259Y10654D01*
X26271Y10663D01*
X26282Y10672D01*
X26293Y10682D01*
X26303Y10692D01*
X26313Y10703D01*
X26322Y10714D01*
X26331Y10726D01*
X26339Y10739D01*
X26346Y10751D01*
X26353Y10764D01*
X26359Y10778D01*
X26364Y10792D01*
X26369Y10805D01*
X26372Y10820D01*
X26375Y10834D01*
X26378Y10848D01*
X26379Y10863D01*
X26380Y10878D01*
Y10885D01*
Y10892D01*
X26379Y10907D01*
X26378Y10922D01*
X26375Y10936D01*
X26372Y10950D01*
X26369Y10965D01*
X26364Y10979D01*
X26359Y10992D01*
X26353Y11006D01*
X26346Y11019D01*
X26339Y11031D01*
X26331Y11044D01*
X26322Y11056D01*
X26313Y11067D01*
X26303Y11078D01*
X26293Y11088D01*
X26282Y11098D01*
X26271Y11107D01*
X26259Y11116D01*
X26246Y11124D01*
X26234Y11131D01*
X26221Y11138D01*
X26207Y11144D01*
X26194Y11149D01*
X26180Y11154D01*
X26165Y11157D01*
X26151Y11160D01*
X26137Y11163D01*
X26122Y11164D01*
X26107Y11165D01*
D02*
G37*
G36*
X28609Y11610D02*
X27391D01*
X27372Y11609D01*
X27353Y11607D01*
X27334Y11604D01*
X27316Y11600D01*
X27298Y11595D01*
X27280Y11589D01*
X27262Y11583D01*
X27245Y11575D01*
X27228Y11566D01*
X27212Y11557D01*
X27196Y11547D01*
X27181Y11536D01*
X27166Y11524D01*
X27152Y11511D01*
X27139Y11498D01*
X27126Y11484D01*
X27114Y11469D01*
X27103Y11454D01*
X27093Y11438D01*
X27084Y11422D01*
X27075Y11405D01*
X27067Y11388D01*
X27061Y11370D01*
X27055Y11352D01*
X27050Y11334D01*
X27046Y11316D01*
X27043Y11297D01*
X27041Y11278D01*
X27040Y11259D01*
Y11250D01*
Y11241D01*
X27041Y11222D01*
X27043Y11203D01*
X27046Y11184D01*
X27050Y11166D01*
X27055Y11148D01*
X27061Y11130D01*
X27067Y11112D01*
X27075Y11095D01*
X27084Y11078D01*
X27093Y11062D01*
X27103Y11046D01*
X27114Y11031D01*
X27126Y11016D01*
X27139Y11002D01*
X27152Y10989D01*
X27166Y10976D01*
X27181Y10964D01*
X27196Y10953D01*
X27212Y10943D01*
X27228Y10934D01*
X27245Y10925D01*
X27262Y10917D01*
X27280Y10911D01*
X27298Y10905D01*
X27316Y10900D01*
X27334Y10896D01*
X27353Y10893D01*
X27372Y10891D01*
X27391Y10890D01*
X28609D01*
X28628Y10891D01*
X28647Y10893D01*
X28666Y10896D01*
X28684Y10900D01*
X28702Y10905D01*
X28720Y10911D01*
X28738Y10917D01*
X28755Y10925D01*
X28772Y10934D01*
X28788Y10943D01*
X28804Y10953D01*
X28819Y10964D01*
X28834Y10976D01*
X28848Y10989D01*
X28861Y11002D01*
X28874Y11016D01*
X28886Y11031D01*
X28897Y11046D01*
X28907Y11062D01*
X28916Y11078D01*
X28925Y11095D01*
X28933Y11112D01*
X28939Y11130D01*
X28945Y11148D01*
X28950Y11166D01*
X28954Y11184D01*
X28957Y11203D01*
X28959Y11222D01*
X28960Y11241D01*
Y11250D01*
Y11259D01*
X28959Y11278D01*
X28957Y11297D01*
X28954Y11316D01*
X28950Y11334D01*
X28945Y11352D01*
X28939Y11370D01*
X28933Y11388D01*
X28925Y11405D01*
X28916Y11422D01*
X28907Y11438D01*
X28897Y11454D01*
X28886Y11469D01*
X28874Y11484D01*
X28861Y11498D01*
X28848Y11511D01*
X28834Y11524D01*
X28819Y11536D01*
X28804Y11547D01*
X28788Y11557D01*
X28772Y11566D01*
X28755Y11575D01*
X28738Y11583D01*
X28720Y11589D01*
X28702Y11595D01*
X28684Y11600D01*
X28666Y11604D01*
X28647Y11607D01*
X28628Y11609D01*
X28609Y11610D01*
D02*
G37*
G36*
X9756Y35373D02*
X9139D01*
Y34756D01*
X9209Y34765D01*
X9392Y34841D01*
X9550Y34962D01*
X9671Y35120D01*
X9747Y35303D01*
X9756Y35373D01*
D02*
G37*
G36*
X9139Y36244D02*
Y35627D01*
X9756D01*
X9747Y35697D01*
X9671Y35880D01*
X9550Y36038D01*
X9392Y36159D01*
X9209Y36235D01*
X9139Y36244D01*
D02*
G37*
G36*
X22244Y29873D02*
X21627D01*
Y29256D01*
X21697Y29265D01*
X21880Y29341D01*
X22038Y29462D01*
X22159Y29620D01*
X22235Y29803D01*
X22244Y29873D01*
D02*
G37*
G36*
X21373D02*
X20756D01*
X20765Y29803D01*
X20841Y29620D01*
X20962Y29462D01*
X21120Y29341D01*
X21303Y29265D01*
X21373Y29256D01*
Y29873D01*
D02*
G37*
G36*
X21627Y30744D02*
Y30127D01*
X22244D01*
X22235Y30197D01*
X22159Y30380D01*
X22038Y30538D01*
X21880Y30659D01*
X21697Y30735D01*
X21627Y30744D01*
D02*
G37*
G36*
X22873Y22289D02*
X22803Y22280D01*
X22620Y22204D01*
X22462Y22083D01*
X22341Y21925D01*
X22265Y21742D01*
X22256Y21672D01*
X22873D01*
Y22289D01*
D02*
G37*
G36*
Y21418D02*
X22256D01*
X22265Y21348D01*
X22341Y21165D01*
X22462Y21007D01*
X22620Y20887D01*
X22803Y20811D01*
X22873Y20801D01*
Y21418D01*
D02*
G37*
G36*
X23744D02*
X23127D01*
Y20801D01*
X23197Y20811D01*
X23380Y20887D01*
X23538Y21007D01*
X23659Y21165D01*
X23735Y21348D01*
X23744Y21418D01*
D02*
G37*
G36*
X23127Y22289D02*
Y21672D01*
X23744D01*
X23735Y21742D01*
X23659Y21925D01*
X23538Y22083D01*
X23380Y22204D01*
X23197Y22280D01*
X23127Y22289D01*
D02*
G37*
G36*
X24507Y23373D02*
X23725D01*
Y22491D01*
X24248D01*
X24347Y22511D01*
X24432Y22567D01*
X24488Y22651D01*
X24507Y22750D01*
Y23373D01*
D02*
G37*
G36*
X23471D02*
X22689D01*
Y22750D01*
X22709Y22651D01*
X22765Y22567D01*
X22849Y22511D01*
X22948Y22491D01*
X23471D01*
Y23373D01*
D02*
G37*
G36*
X11373Y28925D02*
X10491D01*
Y28402D01*
X10511Y28302D01*
X10567Y28218D01*
X10651Y28162D01*
X10750Y28143D01*
X11373D01*
Y28925D01*
D02*
G37*
G36*
X28197Y27494D02*
Y26877D01*
X28814D01*
X28805Y26947D01*
X28729Y27130D01*
X28608Y27288D01*
X28450Y27409D01*
X28267Y27485D01*
X28197Y27494D01*
D02*
G37*
G36*
X27943D02*
X27873Y27485D01*
X27690Y27409D01*
X27532Y27288D01*
X27411Y27130D01*
X27335Y26947D01*
X27326Y26877D01*
X27943D01*
Y27494D01*
D02*
G37*
G36*
X27303Y31723D02*
X26421D01*
Y30941D01*
X27044D01*
X27143Y30961D01*
X27227Y31017D01*
X27283Y31101D01*
X27303Y31200D01*
Y31723D01*
D02*
G37*
G36*
X26167D02*
X25285D01*
Y31200D01*
X25304Y31101D01*
X25361Y31017D01*
X25445Y30961D01*
X25544Y30941D01*
X26167D01*
Y31723D01*
D02*
G37*
G36*
Y32759D02*
X25544D01*
X25445Y32739D01*
X25361Y32683D01*
X25304Y32599D01*
X25285Y32500D01*
Y31977D01*
X26167D01*
Y32759D01*
D02*
G37*
G36*
X28814Y26623D02*
X28197D01*
Y26006D01*
X28267Y26015D01*
X28450Y26091D01*
X28608Y26212D01*
X28729Y26370D01*
X28805Y26553D01*
X28814Y26623D01*
D02*
G37*
G36*
X27943D02*
X27326D01*
X27335Y26553D01*
X27411Y26370D01*
X27532Y26212D01*
X27690Y26091D01*
X27873Y26015D01*
X27943Y26006D01*
Y26623D01*
D02*
G37*
%LPD*%
D10*
X21500Y16050D02*
D03*
Y17950D02*
D03*
Y13107D02*
D03*
Y11207D02*
D03*
X11500Y27152D02*
D03*
Y29052D02*
D03*
X26294Y33750D02*
D03*
Y31850D02*
D03*
X12599Y33950D02*
D03*
Y32050D02*
D03*
X2500Y39200D02*
D03*
Y37300D02*
D03*
X5581Y28102D02*
D03*
Y26202D02*
D03*
X1771Y6350D02*
D03*
Y4450D02*
D03*
Y9829D02*
D03*
Y11729D02*
D03*
D11*
X21202Y7500D02*
D03*
X19302D02*
D03*
X21202Y4750D02*
D03*
X19302D02*
D03*
X20550Y2000D02*
D03*
X22450D02*
D03*
X25498Y23500D02*
D03*
X23598D02*
D03*
X5974Y22176D02*
D03*
X7874D02*
D03*
X3450Y1750D02*
D03*
X1550D02*
D03*
D12*
X26050Y38500D02*
D03*
X24150D02*
D03*
D13*
X24631Y18115D02*
D03*
Y10885D02*
D03*
X26920Y17750D02*
D03*
Y11250D02*
D03*
D14*
X25325Y15150D02*
D03*
Y14500D02*
D03*
Y13850D02*
D03*
Y13200D02*
D03*
Y15800D02*
D03*
D15*
X28000Y15700D02*
D03*
Y13300D02*
D03*
D16*
X5719Y33440D02*
D03*
Y31560D02*
D03*
X10493Y36810D02*
D03*
Y38690D02*
D03*
X8008Y33501D02*
D03*
Y31621D02*
D03*
X3094Y31460D02*
D03*
Y33340D02*
D03*
X15500Y13288D02*
D03*
Y11408D02*
D03*
X18086Y13288D02*
D03*
Y11408D02*
D03*
D17*
X1299Y22135D02*
D03*
X3178D02*
D03*
X6560Y11505D02*
D03*
X8440D02*
D03*
X19810Y38500D02*
D03*
X21690D02*
D03*
D18*
X1497Y19185D02*
D03*
X9447D02*
D03*
X1497Y14685D02*
D03*
X9447D02*
D03*
D19*
X16750Y34750D02*
D03*
X17250D02*
D03*
X17750D02*
D03*
X18250D02*
D03*
X18750D02*
D03*
X19250D02*
D03*
X19750D02*
D03*
X20250D02*
D03*
X20750D02*
D03*
X21250D02*
D03*
X21750D02*
D03*
X22250D02*
D03*
Y26250D02*
D03*
X21750D02*
D03*
X21250D02*
D03*
X20750D02*
D03*
X20250D02*
D03*
X19750D02*
D03*
X19250D02*
D03*
X18750D02*
D03*
X18250D02*
D03*
X17750D02*
D03*
X17250D02*
D03*
X16750D02*
D03*
D20*
X23750Y33250D02*
D03*
Y32750D02*
D03*
Y32250D02*
D03*
Y31750D02*
D03*
Y31250D02*
D03*
Y30750D02*
D03*
Y30250D02*
D03*
Y29750D02*
D03*
Y29250D02*
D03*
Y28750D02*
D03*
Y28250D02*
D03*
Y27750D02*
D03*
X15250D02*
D03*
Y28250D02*
D03*
Y28750D02*
D03*
Y29250D02*
D03*
Y29750D02*
D03*
Y30250D02*
D03*
Y30750D02*
D03*
Y31250D02*
D03*
Y31750D02*
D03*
Y32250D02*
D03*
Y32750D02*
D03*
Y33250D02*
D03*
D21*
X7156Y36476D02*
D03*
Y36984D02*
D03*
Y37492D02*
D03*
X5683D02*
D03*
Y36984D02*
D03*
Y36476D02*
D03*
D22*
X6125Y2575D02*
D03*
Y3225D02*
D03*
Y3875D02*
D03*
Y4525D02*
D03*
Y5175D02*
D03*
Y5825D02*
D03*
Y6475D02*
D03*
Y7125D02*
D03*
Y7775D02*
D03*
Y8425D02*
D03*
X12875D02*
D03*
Y7775D02*
D03*
Y7125D02*
D03*
Y6475D02*
D03*
Y5825D02*
D03*
Y5175D02*
D03*
Y4525D02*
D03*
Y3875D02*
D03*
Y3225D02*
D03*
Y2575D02*
D03*
D23*
X4175Y8206D02*
X4606Y7775D01*
X23150Y5000D02*
X25150Y7000D01*
X22900Y4750D02*
X23150Y5000D01*
X9750Y9250D02*
X10000Y9000D01*
X7300Y9250D02*
X9750D01*
X7300Y8208D02*
Y9250D01*
X6913Y7821D02*
X7300Y8208D01*
X6171Y7821D02*
X6913D01*
X6125Y7775D02*
X6171Y7821D01*
X1771Y8090D02*
Y9829D01*
Y6350D02*
Y8090D01*
X4175Y8206D02*
X4178D01*
X4606Y7775D02*
X6125D01*
X23750Y33271D02*
X24395D01*
X16729Y34750D02*
Y34966D01*
X1095Y24149D02*
Y32845D01*
X10000Y32000D02*
Y32209D01*
X9621Y31621D02*
X10000Y32000D01*
Y32209D02*
Y32417D01*
X1095Y24149D02*
X1497Y23748D01*
X999Y24245D02*
X1095Y24149D01*
X999Y24245D02*
Y30500D01*
X3700Y1775D02*
X4500Y2575D01*
X4500D01*
X24439Y19925D02*
X25498Y20984D01*
X16645Y19925D02*
X24439D01*
X15025Y21545D02*
X16645Y19925D01*
X28300Y28291D02*
X28500Y28091D01*
Y28102D01*
X29422D01*
X28300Y28291D02*
Y32232D01*
X26782Y33750D02*
X28300Y32232D01*
X10000Y25750D02*
Y26779D01*
Y23734D02*
Y25750D01*
X9250Y25690D02*
X9310Y25750D01*
X10000D01*
Y23734D02*
X11250Y22484D01*
X10000Y26779D02*
X10373Y27152D01*
X11500D01*
X3178Y22135D02*
X3250Y22207D01*
Y23500D01*
X3002Y23748D02*
X3250Y23500D01*
X1497Y23748D02*
X3002D01*
X1095Y32845D02*
X1590Y33340D01*
X3094D01*
X5711Y31568D02*
X5719Y31560D01*
X4789Y31568D02*
X5711D01*
X4507Y31850D02*
X4789Y31568D01*
X4500Y31850D02*
X4507D01*
X4500D02*
Y32616D01*
X3776Y33340D02*
X4500Y32616D01*
X3094Y33340D02*
X3776D01*
X8008Y31621D02*
X9621D01*
X7947Y31560D02*
X8008Y31621D01*
X5719Y31560D02*
X7947D01*
X3094Y33340D02*
X3209Y33456D01*
Y35293D01*
X10493Y38690D02*
X14296D01*
X3098Y39200D02*
X3898Y40000D01*
X2500Y39200D02*
X3098D01*
X3209Y35293D02*
X4901Y36984D01*
X2643Y38800D02*
X2670Y38772D01*
X3898Y40000D02*
X7000D01*
X8310Y38690D01*
X10493D01*
X10000Y32417D02*
X11583Y34000D01*
X11633Y33950D01*
X12599D01*
X16729Y34966D02*
X16750Y34986D01*
Y35275D01*
X16597Y35428D02*
X16750Y35275D01*
X16552Y35428D02*
X16597D01*
X16347Y35632D02*
X16552Y35428D01*
X14202Y35632D02*
X16347D01*
X12599Y34029D02*
X14202Y35632D01*
X12599Y33950D02*
Y34029D01*
X29422Y28102D02*
X29450Y28130D01*
X26294Y33750D02*
X26782D01*
X24759Y35124D02*
X24920D01*
X26294Y33750D01*
X24395Y33271D02*
X24874Y33750D01*
X26294D01*
X26541Y20984D02*
X29450Y23893D01*
Y28130D01*
X25498Y20984D02*
X26541D01*
X25498D02*
Y23500D01*
X4500Y2575D02*
X6125D01*
X4241Y3569D02*
X4713Y3098D01*
Y2787D02*
Y3098D01*
X25498Y23500D02*
Y24652D01*
X25150Y25000D02*
X25498Y24652D01*
X22900Y25000D02*
X25150D01*
X22900D02*
Y25010D01*
X22250Y25660D02*
X22900Y25010D01*
X22250Y25660D02*
Y26250D01*
X25150Y7000D02*
X26751D01*
X21202Y4750D02*
X22900D01*
X8440Y11505D02*
X8458Y11487D01*
X10000D01*
X11195Y10292D01*
Y8425D02*
Y10292D01*
X20550Y2000D02*
Y3000D01*
X20800Y3250D01*
X23750D01*
X9750Y6000D02*
Y7000D01*
X9770D01*
X11195Y8425D01*
X12875D01*
X23750Y3250D02*
X24500Y4000D01*
X29196Y2524D02*
X29220Y2500D01*
X29196Y2524D02*
Y3500D01*
X28696Y4000D02*
X29196Y3500D01*
X24500Y4000D02*
X28696D01*
D24*
X4049Y5241D02*
X4178Y5370D01*
X3094Y4651D02*
Y6850D01*
X3369Y7125D01*
X3625D01*
X6125D01*
X3250Y7500D02*
Y11548D01*
Y7500D02*
X3625Y7125D01*
X3069Y11729D02*
X3250Y11548D01*
X8849Y4496D02*
X10770Y2575D01*
X7625Y7125D02*
X8019Y6731D01*
X6125Y7125D02*
X7625D01*
X8849Y4496D02*
Y8206D01*
X8750Y8305D02*
X8849Y8206D01*
X8019Y5175D02*
Y6731D01*
X4541Y17580D02*
X4735Y17774D01*
X4506Y17580D02*
X4541D01*
X4296Y17371D02*
X4506Y17580D01*
X1500Y17371D02*
X4296D01*
X9012Y35500D02*
Y35894D01*
X7922Y36984D02*
X9012Y35894D01*
X20250Y30250D02*
X22000Y32000D01*
X22160Y31830D02*
Y31840D01*
X22000Y32000D02*
X22160Y31840D01*
X19744Y30920D02*
X20330Y31506D01*
X16786Y32275D02*
X18140Y30920D01*
X19744D01*
X3872Y24409D02*
Y25500D01*
Y24409D02*
X4781Y23500D01*
X3832Y25460D02*
X3872Y25500D01*
X1434Y35000D02*
Y36234D01*
X2500Y37300D01*
X6250Y16504D02*
X6814D01*
X7448Y17138D01*
X4850Y16750D02*
X5737Y17637D01*
X5250Y18130D02*
X10500D01*
X4880Y17759D02*
X5250Y18130D01*
X4750Y17759D02*
X4880D01*
X4735Y17774D02*
X4750Y17759D01*
X11500Y27152D02*
X11747D01*
X13840Y29245D01*
X10500Y18130D02*
X11250Y18880D01*
X5737Y17637D02*
X11252D01*
X7448Y17138D02*
X11399D01*
X13862Y19601D01*
X11250Y18880D02*
Y20151D01*
X12599Y21500D01*
Y26998D01*
X13850Y28250D01*
X15250D01*
X1299Y20500D02*
Y22135D01*
X13840Y29245D02*
X15245D01*
X13211Y29766D02*
X15234D01*
X12575Y29130D02*
X13211Y29766D01*
X11578Y29130D02*
X12575D01*
X26294Y31850D02*
X27356D01*
X27700Y31506D01*
Y27120D02*
Y31506D01*
Y27120D02*
X28070Y26750D01*
X11845Y32050D02*
X12599D01*
X10855Y31060D02*
X11845Y32050D01*
X10473Y30230D02*
X15230D01*
X15250Y30250D01*
X7681Y27438D02*
X10473Y30230D01*
X7156Y36984D02*
X7922D01*
X16786Y32275D02*
Y33210D01*
X20330Y31506D02*
Y31830D01*
X20750Y32250D01*
X21250Y29750D02*
X21500Y30000D01*
X15250Y30250D02*
X20250D01*
X15250Y29750D02*
X21250D01*
X3872Y25500D02*
Y25750D01*
X2239Y25460D02*
X3832D01*
X5490Y26110D02*
X5581Y26202D01*
X4232Y26110D02*
X5490D01*
X3872Y25750D02*
X4232Y26110D01*
X4781Y23500D02*
X7750D01*
X7874Y23376D01*
Y22176D02*
Y23376D01*
X9447Y14685D02*
Y16250D01*
X1750Y4429D02*
X1771Y4450D01*
X1750Y3250D02*
Y4429D01*
X1550Y3050D02*
X1750Y3250D01*
X1550Y1750D02*
Y3050D01*
Y1750D02*
X2800Y500D01*
X22450Y700D02*
Y2000D01*
X22250Y500D02*
X22450Y700D01*
X2800Y500D02*
X22250D01*
X1497Y13535D02*
Y14685D01*
Y13535D02*
X1771Y13260D01*
Y11729D02*
Y13260D01*
X1497Y14685D02*
X9447D01*
X1771Y11729D02*
X3069D01*
X1771Y4450D02*
X2893D01*
X3094Y4651D01*
X29291Y20818D02*
X30530Y22058D01*
Y37970D01*
X30210Y38290D02*
X30530Y37970D01*
X29450Y38290D02*
X30210D01*
X29054Y19250D02*
X29291Y19486D01*
Y20818D01*
X23000Y21545D02*
Y22000D01*
X23598Y22598D01*
Y23500D01*
X21915Y17950D02*
X22770D01*
X26605Y1449D02*
X27304Y750D01*
X29750D01*
X30500Y1500D01*
Y8240D01*
X30000Y8740D02*
X30500Y8240D01*
X30000Y8740D02*
Y18304D01*
X29054Y19250D02*
X30000Y18304D01*
X23215Y19250D02*
X29054D01*
X21915Y17950D02*
X23215Y19250D01*
X21500Y17950D02*
X21915D01*
X18250Y7500D02*
X19302D01*
X17000Y6250D02*
X18250Y7500D01*
X20417Y11207D02*
X21500D01*
X19302Y10091D02*
X20417Y11207D01*
X19302Y7500D02*
Y10091D01*
X18086Y4750D02*
X19302D01*
X17211Y3875D02*
X18086Y4750D01*
X12875Y3875D02*
X17211D01*
X19302Y4750D02*
Y7500D01*
X28600Y38290D02*
X29450D01*
X28390Y38500D02*
X28600Y38290D01*
X26050Y38500D02*
X28390D01*
X9447Y19185D02*
Y23500D01*
X7681Y25265D02*
X9447Y23500D01*
X7681Y25265D02*
Y27438D01*
X15245Y29245D02*
X15250Y29250D01*
X15234Y29766D02*
X15250Y29750D01*
X11500Y29052D02*
X11578Y29130D01*
X3094Y31460D02*
X3765D01*
X3805Y31500D01*
X22770Y17950D02*
X23250Y17470D01*
Y17000D02*
Y17470D01*
Y17000D02*
X24450Y15800D01*
X25325D01*
X2500Y37300D02*
X3800D01*
X4148Y37648D01*
X5098D01*
X5255Y37492D01*
X5683D01*
X4901Y36984D02*
X5683D01*
X12599Y32050D02*
X13500D01*
X13862Y32412D02*
Y32776D01*
X13500Y32050D02*
X13862Y32412D01*
X15210Y33210D02*
X15250Y33250D01*
X14296Y33210D02*
X15210D01*
X13862Y32776D02*
X14296Y33210D01*
X15250Y33250D02*
X15290Y33210D01*
X16786D01*
X17250Y33674D01*
Y34750D01*
X22623Y32627D02*
Y33623D01*
X23250Y35416D02*
X24060Y36226D01*
X22623Y33623D02*
X23250Y34250D01*
Y35416D01*
X24060Y36226D02*
X26590D01*
X27552Y35293D02*
X27988Y34857D01*
X27523Y35293D02*
X27552D01*
X26590Y36226D02*
X27523Y35293D01*
X22250Y35500D02*
X23433Y36683D01*
X27712Y35750D02*
X29450D01*
X26779Y36683D02*
X27712Y35750D01*
X23750Y32750D02*
X24800D01*
X25700Y31850D01*
X26294D01*
X4175Y5500D02*
X5150Y4525D01*
X4049Y5500D02*
X4175D01*
X4049Y5245D02*
Y5500D01*
X5150Y4525D02*
X6125D01*
X21729Y24268D02*
X22498Y23500D01*
X23598D01*
X18250Y24750D02*
X19500Y23500D01*
X5298Y30007D02*
X8500D01*
X3805Y31500D02*
X5298Y30007D01*
X18750Y33940D02*
Y34750D01*
X11252Y17637D02*
X13405Y19790D01*
X13862Y19601D02*
Y22522D01*
X6000Y19185D02*
X9447D01*
X1497D02*
X6000D01*
X5974Y19211D02*
X6000Y19185D01*
X5974Y19211D02*
Y22176D01*
X1299Y20500D02*
X1497Y20302D01*
Y19185D02*
Y20302D01*
X5315Y11505D02*
X6560D01*
X5009Y11198D02*
X5315Y11505D01*
X5009Y8764D02*
Y11198D01*
Y8764D02*
X5348Y8425D01*
X6125D01*
X13862Y22522D02*
X16750Y25410D01*
Y26250D01*
X10770Y2575D02*
X12875D01*
X13405Y19790D02*
Y27040D01*
X14115Y27750D01*
X15250D01*
X3094Y31460D02*
X3114Y31440D01*
Y30007D02*
Y31440D01*
X2239Y29131D02*
X3114Y30007D01*
X2239Y28000D02*
Y29131D01*
X5479Y28000D02*
X5581Y28102D01*
X2239Y28000D02*
X5479D01*
X18750Y25328D02*
X20330Y23748D01*
X17142Y21000D02*
X20498D01*
X16597Y21545D02*
X17142Y21000D01*
X16597Y21545D02*
Y24507D01*
X19500Y22176D02*
X20330Y23006D01*
X19000Y23500D02*
X19500D01*
X20330Y23006D02*
Y23748D01*
X16597Y12403D02*
X19653D01*
X17825Y22156D02*
Y24425D01*
X17750Y24500D02*
X17825Y24425D01*
X18250Y24750D02*
Y26250D01*
X17750Y24500D02*
Y26250D01*
X18750Y25328D02*
Y26250D01*
X19050Y16050D02*
X21500D01*
X18086Y15086D02*
X19050Y16050D01*
X16597Y24507D02*
X17250Y25160D01*
Y26250D01*
X23000Y32250D02*
X23750D01*
X22623Y32627D02*
X23000Y32250D01*
X27988Y33402D02*
Y34857D01*
Y33402D02*
X28180Y33210D01*
X29450D01*
X22250Y34750D02*
Y35500D01*
X23433Y36683D02*
X26779D01*
X19810Y37371D02*
X20498Y36683D01*
X21182D01*
X19810Y37371D02*
Y38500D01*
X19750Y34750D02*
Y35912D01*
X18817Y37492D02*
X20250Y36059D01*
Y34750D02*
Y36059D01*
X18250Y34750D02*
X18257Y34743D01*
Y33000D02*
Y34743D01*
X21055Y36810D02*
X21182Y36683D01*
X18305Y36578D02*
X19250Y35632D01*
X12945Y36578D02*
X18305D01*
X9030Y32663D02*
X12945Y36578D01*
X18627Y37035D02*
X19750Y35912D01*
X12562Y37035D02*
X18627D01*
X10955Y35428D02*
X12562Y37035D01*
X11175Y37492D02*
X18817D01*
X10493Y36810D02*
X11175Y37492D01*
X21690Y38500D02*
X24150D01*
X10932Y35428D02*
X10955D01*
X9006Y33501D02*
X10932Y35428D01*
X8008Y33501D02*
X9006D01*
X19250Y34750D02*
Y35632D01*
X6496Y32663D02*
X9030D01*
X5719Y33440D02*
X6496Y32663D01*
X24960Y26110D02*
Y27275D01*
X24747Y27488D02*
X24960Y27275D01*
X25925Y26779D02*
X26342D01*
X25500Y27204D02*
X25925Y26779D01*
X25500Y27204D02*
Y27600D01*
X24850Y28250D02*
X25500Y27600D01*
X25590Y28750D02*
X26090Y28250D01*
X23750Y28750D02*
X25590D01*
X26090Y28250D02*
X26500D01*
X25335Y29750D02*
X26531D01*
X24904Y29318D02*
X25335Y29750D01*
X23818Y29318D02*
X24904D01*
X23750Y29250D02*
X23818Y29318D01*
X24747Y27488D02*
X24759Y27500D01*
X24750D02*
X24759D01*
X24500Y27750D02*
X24750Y27500D01*
X23750Y27750D02*
X24500D01*
X23750Y28250D02*
X24850D01*
X4680Y35972D02*
X5184Y36476D01*
X5683D01*
X7156Y37492D02*
X8720D01*
X7156Y36476D02*
X7733D01*
X9401Y36810D02*
X10493D01*
X8720Y37492D02*
X9401Y36810D01*
X4680Y33858D02*
X5098Y33440D01*
X5719D01*
X8008Y33501D02*
Y36200D01*
X7733Y36476D02*
X8008Y36200D01*
X4680Y33858D02*
Y35972D01*
X24000Y14500D02*
X25325D01*
X22450Y16050D02*
X24000Y14500D01*
X21500Y16050D02*
X22450D01*
X23366Y13850D02*
X25325D01*
X22623Y13107D02*
X23366Y13850D01*
X21500Y13107D02*
X22623D01*
X18086Y13288D02*
Y15086D01*
X15500Y13288D02*
X15712D01*
X16597Y12403D01*
X19653D02*
X20357Y13107D01*
X21500D01*
X24029Y13200D02*
X25325D01*
X23250Y12421D02*
X24029Y13200D01*
X22750Y7500D02*
X23250Y8000D01*
X21202Y7500D02*
X22750D01*
X28000Y15700D02*
Y16504D01*
X27400Y17104D02*
X28000Y16504D01*
X27400Y17104D02*
Y17250D01*
X26521Y17987D02*
X26910D01*
X28000Y13300D02*
Y15700D01*
Y11760D02*
Y13300D01*
X26465Y11121D02*
X26791D01*
X26920Y11250D01*
X15490Y11398D02*
X15500Y11408D01*
X12875Y7775D02*
X15025D01*
X15490Y8240D01*
Y11398D01*
X12875Y7125D02*
X15225D01*
X18086Y9986D01*
Y11408D01*
X29291Y7000D02*
Y7775D01*
X28066Y9000D02*
X29291Y7775D01*
X23250Y9000D02*
X28066D01*
X23250Y8000D02*
Y9000D01*
Y12421D01*
X19302Y31750D02*
Y33388D01*
X18750Y33940D02*
X19302Y33388D01*
X26605Y1449D02*
Y2575D01*
X21729Y24268D02*
Y26250D01*
D25*
X3700Y1500D02*
Y1775D01*
Y1500D02*
X10000D01*
X4500Y2575D02*
X4713Y2787D01*
X4241Y3569D02*
Y3734D01*
X19000Y2000D02*
X20550D01*
X18500Y1500D02*
X19000Y2000D01*
X10000Y1500D02*
X18500D01*
D26*
X29220Y2500D02*
D03*
X2239Y28000D02*
D03*
X29450Y35750D02*
D03*
Y33210D02*
D03*
Y30670D02*
D03*
Y28130D02*
D03*
X26751Y7000D02*
D03*
D27*
X26680Y2500D02*
D03*
X29291Y7000D02*
D03*
D28*
X2239Y25460D02*
D03*
X29450Y38290D02*
D03*
D29*
X25600Y18150D02*
D03*
Y10850D02*
D03*
D30*
X28000Y17750D02*
D03*
Y11250D02*
D03*
D31*
X23150Y5000D02*
D03*
X10000Y9000D02*
D03*
X1771Y8090D02*
D03*
X4178Y8206D02*
D03*
X10000Y32209D02*
D03*
X8019Y5175D02*
D03*
X1500Y17371D02*
D03*
X9012Y35500D02*
D03*
X10000Y11487D02*
D03*
X22160Y31830D02*
D03*
X19302Y31750D02*
D03*
X1434Y35000D02*
D03*
X6250Y16504D02*
D03*
X4850Y16750D02*
D03*
X999Y30500D02*
D03*
X28070Y26750D02*
D03*
X10855Y31060D02*
D03*
X20750Y32250D02*
D03*
X21500Y30000D02*
D03*
X8750Y8305D02*
D03*
X9447Y16250D02*
D03*
X29291Y20818D02*
D03*
X23000Y21545D02*
D03*
X17000Y6250D02*
D03*
X15025Y21545D02*
D03*
X9250Y25690D02*
D03*
X11250Y22484D02*
D03*
X14296Y38690D02*
D03*
X24759Y35124D02*
D03*
X25498Y20984D02*
D03*
X4241Y3734D02*
D03*
X4049Y5500D02*
D03*
X10000Y1500D02*
D03*
X9750Y6000D02*
D03*
X8500Y30007D02*
D03*
X20498Y21000D02*
D03*
X19500Y22176D02*
D03*
X19000Y23500D02*
D03*
X17825Y22156D02*
D03*
X18257Y33000D02*
D03*
X21182Y36683D02*
D03*
X24960Y26110D02*
D03*
X26342Y26779D02*
D03*
X26500Y28250D02*
D03*
X26531Y29750D02*
D03*
M02*
