M48
; DRILL file {KiCad (5.1.10)-1} date 07/24/21 18:54:29
; FORMAT={-:-/ absolute / metric / decimal}
; #@! TF.CreationDate,2021-07-24T18:54:29+10:00
; #@! TF.GenerationSoftware,Kicad,Pcbnew,(5.1.10)-1
; #@! TF.FileFunction,Plated,1,2,PTH
FMAT,2
METRIC
T1C0.400
T2C0.600
T3C0.850
T4C1.000
%
G90
G05
T1
X131.8Y-85.3
X134.6Y-86.4
X134.6Y-87.5
X134.7Y-77.3
X136.5Y-90.3
X136.5Y-91.4
X136.9Y-102.8
X137.2Y-88.6
X137.3Y-96.5
X137.587Y-82.887
X137.6Y-83.9
X137.6Y-90.3
X137.6Y-91.4
X137.7Y-81.2
X138.4Y-79.8
X139.294Y-76.072
X139.4Y-84.4
X140.337Y-76.037
X141.4Y-106.8
X141.5Y-76.0
X142.8Y-87.3
X142.8Y-104.2
X143.1Y-78.6
X143.5Y-102.7
X143.8Y-71.7
X144.1Y-67.1
X144.1Y-76.0
X144.2Y-68.3
X144.275Y-82.803
X144.275Y-86.2
X144.7Y-81.859
X145.0Y-88.4
X145.3Y-91.0
X146.6Y-66.9
X146.8Y-88.675
X147.6Y-81.1
X149.1Y-83.6
X149.2Y-87.3
X149.7Y-72.7
X150.1Y-103.1
X150.2Y-71.0
X150.3Y-73.7
X150.3Y-84.6
X150.7Y-77.7
X151.3Y-74.8
X151.3Y-83.6
X152.3Y-87.3
X152.4Y-83.6
X153.3Y-103.5
X154.614Y-76.545
X155.4Y-77.6
X155.45Y-98.15
X155.6Y-101.2
X156.4Y-97.3
X157.25Y-106.25
T3
X143.9Y-105.837
X148.9Y-105.837
T4
X131.8Y-87.3
X131.8Y-89.84
X131.8Y-92.38
X132.3Y-66.7
X132.3Y-69.24
X132.3Y-71.78
X132.3Y-74.32
X132.3Y-76.86
T2
X142.9Y-108.887G85X142.9Y-108.188
G05
X149.9Y-108.188G85X149.9Y-108.887
G05
T0
M30
