%FSLAX45Y45*%
G04 Gerber Fmt 4.5, Leading zero omitted, Abs format (unit mm)*
G04 Created by KiCad (PCBNEW (5.1.10)-1) date 2021-07-24 18:54:30*
%MOMM*%
%LPD*%
G01*
G04 APERTURE LIST*
%TA.AperFunction,Profile*%
%ADD10C,0.050000*%
%TD*%
%ADD11C,0.200000*%
%ADD12C,0.300000*%
G04 APERTURE END LIST*
D10*
X15830000Y-6450000D02*
X15830000Y-6600000D01*
X13000000Y-6450000D02*
X15830000Y-6450000D01*
X13000000Y-6600000D02*
X13000000Y-6450000D01*
X15830000Y-11000000D02*
X15830000Y-6600000D01*
X13000000Y-6600000D02*
X13000000Y-11000000D01*
X13000000Y-11000000D02*
X15830000Y-11000000D01*
D11*
X13160000Y-8510000D02*
X13200000Y-8550000D01*
X13200000Y-8510000D02*
X13160000Y-8550000D01*
X13440000Y-8620000D02*
X13480000Y-8660000D01*
X13480000Y-8620000D02*
X13440000Y-8660000D01*
X13440000Y-8730000D02*
X13480000Y-8770000D01*
X13480000Y-8730000D02*
X13440000Y-8770000D01*
X13450000Y-7710000D02*
X13490000Y-7750000D01*
X13490000Y-7710000D02*
X13450000Y-7750000D01*
X13630000Y-9010000D02*
X13670000Y-9050000D01*
X13670000Y-9010000D02*
X13630000Y-9050000D01*
X13630000Y-9120000D02*
X13670000Y-9160000D01*
X13670000Y-9120000D02*
X13630000Y-9160000D01*
X13670000Y-10260000D02*
X13710000Y-10300000D01*
X13710000Y-10260000D02*
X13670000Y-10300000D01*
X13700000Y-8840000D02*
X13740000Y-8880000D01*
X13740000Y-8840000D02*
X13700000Y-8880000D01*
X13710000Y-9630000D02*
X13750000Y-9670000D01*
X13750000Y-9630000D02*
X13710000Y-9670000D01*
X13738734Y-8268734D02*
X13778734Y-8308734D01*
X13778734Y-8268734D02*
X13738734Y-8308734D01*
X13739999Y-8370000D02*
X13779999Y-8410000D01*
X13779999Y-8370000D02*
X13739999Y-8410000D01*
X13740000Y-9010000D02*
X13780000Y-9050000D01*
X13780000Y-9010000D02*
X13740000Y-9050000D01*
X13740000Y-9120000D02*
X13780000Y-9160000D01*
X13780000Y-9120000D02*
X13740000Y-9160000D01*
X13750000Y-8100000D02*
X13790000Y-8140000D01*
X13790000Y-8100000D02*
X13750000Y-8140000D01*
X13820000Y-7960000D02*
X13860000Y-8000000D01*
X13860000Y-7960000D02*
X13820000Y-8000000D01*
X13909370Y-7587232D02*
X13949370Y-7627232D01*
X13949370Y-7587232D02*
X13909370Y-7627232D01*
X13920000Y-8420000D02*
X13960000Y-8460000D01*
X13960000Y-8420000D02*
X13920000Y-8460000D01*
X14013735Y-7583735D02*
X14053735Y-7623735D01*
X14053735Y-7583735D02*
X14013735Y-7623735D01*
X14120000Y-10660000D02*
X14160000Y-10700000D01*
X14160000Y-10660000D02*
X14120000Y-10700000D01*
X14130000Y-7580000D02*
X14170000Y-7620000D01*
X14170000Y-7580000D02*
X14130000Y-7620000D01*
X14260000Y-8710000D02*
X14300000Y-8750000D01*
X14300000Y-8710000D02*
X14260000Y-8750000D01*
X14260000Y-10400000D02*
X14300000Y-10440000D01*
X14300000Y-10400000D02*
X14260000Y-10440000D01*
X14290000Y-7840000D02*
X14330000Y-7880000D01*
X14330000Y-7840000D02*
X14290000Y-7880000D01*
X14330000Y-10250000D02*
X14370000Y-10290000D01*
X14370000Y-10250000D02*
X14330000Y-10290000D01*
X14360000Y-7150000D02*
X14400000Y-7190000D01*
X14400000Y-7150000D02*
X14360000Y-7190000D01*
X14390000Y-6690000D02*
X14430000Y-6730000D01*
X14430000Y-6690000D02*
X14390000Y-6730000D01*
X14390000Y-7580000D02*
X14430000Y-7620000D01*
X14430000Y-7580000D02*
X14390000Y-7620000D01*
X14400000Y-6810000D02*
X14440000Y-6850000D01*
X14440000Y-6810000D02*
X14400000Y-6850000D01*
X14407499Y-8260342D02*
X14447499Y-8300342D01*
X14447499Y-8260342D02*
X14407499Y-8300342D01*
X14407499Y-8600000D02*
X14447499Y-8640000D01*
X14447499Y-8600000D02*
X14407499Y-8640000D01*
X14450000Y-8165900D02*
X14490000Y-8205900D01*
X14490000Y-8165900D02*
X14450000Y-8205900D01*
X14480000Y-8820000D02*
X14520000Y-8860000D01*
X14520000Y-8820000D02*
X14480000Y-8860000D01*
X14510000Y-9080000D02*
X14550000Y-9120000D01*
X14550000Y-9080000D02*
X14510000Y-9120000D01*
X14640000Y-6670000D02*
X14680000Y-6710000D01*
X14680000Y-6670000D02*
X14640000Y-6710000D01*
X14660000Y-8847500D02*
X14700000Y-8887500D01*
X14700000Y-8847500D02*
X14660000Y-8887500D01*
X14740000Y-8090000D02*
X14780000Y-8130000D01*
X14780000Y-8090000D02*
X14740000Y-8130000D01*
X14890000Y-8340000D02*
X14930000Y-8380000D01*
X14930000Y-8340000D02*
X14890000Y-8380000D01*
X14900000Y-8710000D02*
X14940000Y-8750000D01*
X14940000Y-8710000D02*
X14900000Y-8750000D01*
X14950000Y-7250000D02*
X14990000Y-7290000D01*
X14990000Y-7250000D02*
X14950000Y-7290000D01*
X14990000Y-10290000D02*
X15030000Y-10330000D01*
X15030000Y-10290000D02*
X14990000Y-10330000D01*
X15000000Y-7080000D02*
X15040000Y-7120000D01*
X15040000Y-7080000D02*
X15000000Y-7120000D01*
X15010000Y-7350000D02*
X15050000Y-7390000D01*
X15050000Y-7350000D02*
X15010000Y-7390000D01*
X15010000Y-8440000D02*
X15050000Y-8480000D01*
X15050000Y-8440000D02*
X15010000Y-8480000D01*
X15049999Y-7750000D02*
X15089999Y-7790000D01*
X15089999Y-7750000D02*
X15049999Y-7790000D01*
X15110000Y-7460000D02*
X15150000Y-7500000D01*
X15150000Y-7460000D02*
X15110000Y-7500000D01*
X15110000Y-8340000D02*
X15150000Y-8380000D01*
X15150000Y-8340000D02*
X15110000Y-8380000D01*
X15209999Y-8710000D02*
X15249999Y-8750000D01*
X15249999Y-8710000D02*
X15209999Y-8750000D01*
X15220000Y-8340000D02*
X15260000Y-8380000D01*
X15260000Y-8340000D02*
X15220000Y-8380000D01*
X15310000Y-10330000D02*
X15350000Y-10370000D01*
X15350000Y-10330000D02*
X15310000Y-10370000D01*
X15441366Y-7634515D02*
X15481366Y-7674515D01*
X15481366Y-7634515D02*
X15441366Y-7674515D01*
X15520000Y-7740000D02*
X15560000Y-7780000D01*
X15560000Y-7740000D02*
X15520000Y-7780000D01*
X15525000Y-9795000D02*
X15565000Y-9835000D01*
X15565000Y-9795000D02*
X15525000Y-9835000D01*
X15540000Y-10100000D02*
X15580000Y-10140000D01*
X15580000Y-10100000D02*
X15540000Y-10140000D01*
X15620000Y-9710000D02*
X15660000Y-9750000D01*
X15660000Y-9710000D02*
X15620000Y-9750000D01*
X15705000Y-10605000D02*
X15745000Y-10645000D01*
X15745000Y-10605000D02*
X15705000Y-10645000D01*
X14320000Y-10853750D02*
G75*
G03*
X14320000Y-10853750I-30000J0D01*
G01*
X14310000Y-10888750D02*
X14310000Y-10818750D01*
X14270000Y-10888750D02*
X14270000Y-10818750D01*
X14310000Y-10818750D02*
G75*
G03*
X14270000Y-10818750I-20000J0D01*
G01*
X14270000Y-10888750D02*
G75*
G03*
X14310000Y-10888750I20000J0D01*
G01*
X15020000Y-10853750D02*
G75*
G03*
X15020000Y-10853750I-30000J0D01*
G01*
X14970000Y-10818750D02*
X14970000Y-10888750D01*
X15010000Y-10818750D02*
X15010000Y-10888750D01*
X14970000Y-10888750D02*
G75*
G03*
X15010000Y-10888750I20000J0D01*
G01*
X15010000Y-10818750D02*
G75*
G03*
X14970000Y-10818750I-20000J0D01*
G01*
X14390000Y-10541250D02*
X14390000Y-10626250D01*
X14347500Y-10583750D02*
X14432500Y-10583750D01*
X14890000Y-10541250D02*
X14890000Y-10626250D01*
X14847500Y-10583750D02*
X14932500Y-10583750D01*
X13215356Y-8765356D02*
X13215356Y-8694644D01*
X13144644Y-8694644D01*
X13144644Y-8765356D01*
X13215356Y-8765356D01*
X13215356Y-9019356D02*
X13215356Y-8948644D01*
X13144644Y-8948644D01*
X13144644Y-9019356D01*
X13215356Y-9019356D01*
X13215356Y-9273356D02*
X13215356Y-9202644D01*
X13144644Y-9202644D01*
X13144644Y-9273356D01*
X13215356Y-9273356D01*
X13265356Y-6705356D02*
X13265356Y-6634644D01*
X13194644Y-6634644D01*
X13194644Y-6705356D01*
X13265356Y-6705356D01*
X13265356Y-6959356D02*
X13265356Y-6888644D01*
X13194644Y-6888644D01*
X13194644Y-6959356D01*
X13265356Y-6959356D01*
X13265356Y-7213356D02*
X13265356Y-7142644D01*
X13194644Y-7142644D01*
X13194644Y-7213356D01*
X13265356Y-7213356D01*
X13265356Y-7467356D02*
X13265356Y-7396644D01*
X13194644Y-7396644D01*
X13194644Y-7467356D01*
X13265356Y-7467356D01*
X13265356Y-7721356D02*
X13265356Y-7650644D01*
X13194644Y-7650644D01*
X13194644Y-7721356D01*
X13265356Y-7721356D01*
D12*
X13283928Y-11468214D02*
X13283928Y-11168214D01*
X13355357Y-11168214D01*
X13398214Y-11182500D01*
X13426786Y-11211071D01*
X13441071Y-11239643D01*
X13455357Y-11296786D01*
X13455357Y-11339643D01*
X13441071Y-11396786D01*
X13426786Y-11425357D01*
X13398214Y-11453929D01*
X13355357Y-11468214D01*
X13283928Y-11468214D01*
X13583928Y-11468214D02*
X13583928Y-11268214D01*
X13583928Y-11325357D02*
X13598214Y-11296786D01*
X13612500Y-11282500D01*
X13641071Y-11268214D01*
X13669643Y-11268214D01*
X13769643Y-11468214D02*
X13769643Y-11268214D01*
X13769643Y-11168214D02*
X13755357Y-11182500D01*
X13769643Y-11196786D01*
X13783928Y-11182500D01*
X13769643Y-11168214D01*
X13769643Y-11196786D01*
X13955357Y-11468214D02*
X13926786Y-11453929D01*
X13912500Y-11425357D01*
X13912500Y-11168214D01*
X14112500Y-11468214D02*
X14083928Y-11453929D01*
X14069643Y-11425357D01*
X14069643Y-11168214D01*
X14455357Y-11468214D02*
X14455357Y-11168214D01*
X14555357Y-11382500D01*
X14655357Y-11168214D01*
X14655357Y-11468214D01*
X14926786Y-11468214D02*
X14926786Y-11311071D01*
X14912500Y-11282500D01*
X14883928Y-11268214D01*
X14826786Y-11268214D01*
X14798214Y-11282500D01*
X14926786Y-11453929D02*
X14898214Y-11468214D01*
X14826786Y-11468214D01*
X14798214Y-11453929D01*
X14783928Y-11425357D01*
X14783928Y-11396786D01*
X14798214Y-11368214D01*
X14826786Y-11353929D01*
X14898214Y-11353929D01*
X14926786Y-11339643D01*
X15069643Y-11268214D02*
X15069643Y-11568214D01*
X15069643Y-11282500D02*
X15098214Y-11268214D01*
X15155357Y-11268214D01*
X15183928Y-11282500D01*
X15198214Y-11296786D01*
X15212500Y-11325357D01*
X15212500Y-11411071D01*
X15198214Y-11439643D01*
X15183928Y-11453929D01*
X15155357Y-11468214D01*
X15098214Y-11468214D01*
X15069643Y-11453929D01*
X15341071Y-11439643D02*
X15355357Y-11453929D01*
X15341071Y-11468214D01*
X15326786Y-11453929D01*
X15341071Y-11439643D01*
X15341071Y-11468214D01*
X15341071Y-11282500D02*
X15355357Y-11296786D01*
X15341071Y-11311071D01*
X15326786Y-11296786D01*
X15341071Y-11282500D01*
X15341071Y-11311071D01*
X12957500Y-11942500D02*
X12997500Y-11982500D01*
X12997500Y-11942500D02*
X12957500Y-11982500D01*
X13341071Y-11798214D02*
X13369643Y-11798214D01*
X13398214Y-11812500D01*
X13412500Y-11826786D01*
X13426786Y-11855357D01*
X13441071Y-11912500D01*
X13441071Y-11983929D01*
X13426786Y-12041071D01*
X13412500Y-12069643D01*
X13398214Y-12083929D01*
X13369643Y-12098214D01*
X13341071Y-12098214D01*
X13312500Y-12083929D01*
X13298214Y-12069643D01*
X13283928Y-12041071D01*
X13269643Y-11983929D01*
X13269643Y-11912500D01*
X13283928Y-11855357D01*
X13298214Y-11826786D01*
X13312500Y-11812500D01*
X13341071Y-11798214D01*
X13569643Y-12069643D02*
X13583928Y-12083929D01*
X13569643Y-12098214D01*
X13555357Y-12083929D01*
X13569643Y-12069643D01*
X13569643Y-12098214D01*
X13841071Y-11898214D02*
X13841071Y-12098214D01*
X13769643Y-11783929D02*
X13698214Y-11998214D01*
X13883928Y-11998214D01*
X14055357Y-11798214D02*
X14083928Y-11798214D01*
X14112500Y-11812500D01*
X14126786Y-11826786D01*
X14141071Y-11855357D01*
X14155357Y-11912500D01*
X14155357Y-11983929D01*
X14141071Y-12041071D01*
X14126786Y-12069643D01*
X14112500Y-12083929D01*
X14083928Y-12098214D01*
X14055357Y-12098214D01*
X14026786Y-12083929D01*
X14012500Y-12069643D01*
X13998214Y-12041071D01*
X13983928Y-11983929D01*
X13983928Y-11912500D01*
X13998214Y-11855357D01*
X14012500Y-11826786D01*
X14026786Y-11812500D01*
X14055357Y-11798214D01*
X14341071Y-11798214D02*
X14369643Y-11798214D01*
X14398214Y-11812500D01*
X14412500Y-11826786D01*
X14426786Y-11855357D01*
X14441071Y-11912500D01*
X14441071Y-11983929D01*
X14426786Y-12041071D01*
X14412500Y-12069643D01*
X14398214Y-12083929D01*
X14369643Y-12098214D01*
X14341071Y-12098214D01*
X14312500Y-12083929D01*
X14298214Y-12069643D01*
X14283928Y-12041071D01*
X14269643Y-11983929D01*
X14269643Y-11912500D01*
X14283928Y-11855357D01*
X14298214Y-11826786D01*
X14312500Y-11812500D01*
X14341071Y-11798214D01*
X14569643Y-12098214D02*
X14569643Y-11898214D01*
X14569643Y-11926786D02*
X14583928Y-11912500D01*
X14612500Y-11898214D01*
X14655357Y-11898214D01*
X14683928Y-11912500D01*
X14698214Y-11941071D01*
X14698214Y-12098214D01*
X14698214Y-11941071D02*
X14712500Y-11912500D01*
X14741071Y-11898214D01*
X14783928Y-11898214D01*
X14812500Y-11912500D01*
X14826786Y-11941071D01*
X14826786Y-12098214D01*
X14969643Y-12098214D02*
X14969643Y-11898214D01*
X14969643Y-11926786D02*
X14983928Y-11912500D01*
X15012500Y-11898214D01*
X15055357Y-11898214D01*
X15083928Y-11912500D01*
X15098214Y-11941071D01*
X15098214Y-12098214D01*
X15098214Y-11941071D02*
X15112500Y-11912500D01*
X15141071Y-11898214D01*
X15183928Y-11898214D01*
X15212500Y-11912500D01*
X15226786Y-11941071D01*
X15226786Y-12098214D01*
X15812500Y-11783929D02*
X15555357Y-12169643D01*
X16198214Y-11798214D02*
X16226786Y-11798214D01*
X16255357Y-11812500D01*
X16269643Y-11826786D01*
X16283928Y-11855357D01*
X16298214Y-11912500D01*
X16298214Y-11983929D01*
X16283928Y-12041071D01*
X16269643Y-12069643D01*
X16255357Y-12083929D01*
X16226786Y-12098214D01*
X16198214Y-12098214D01*
X16169643Y-12083929D01*
X16155357Y-12069643D01*
X16141071Y-12041071D01*
X16126786Y-11983929D01*
X16126786Y-11912500D01*
X16141071Y-11855357D01*
X16155357Y-11826786D01*
X16169643Y-11812500D01*
X16198214Y-11798214D01*
X16426786Y-12069643D02*
X16441071Y-12083929D01*
X16426786Y-12098214D01*
X16412500Y-12083929D01*
X16426786Y-12069643D01*
X16426786Y-12098214D01*
X16626786Y-11798214D02*
X16655357Y-11798214D01*
X16683928Y-11812500D01*
X16698214Y-11826786D01*
X16712500Y-11855357D01*
X16726786Y-11912500D01*
X16726786Y-11983929D01*
X16712500Y-12041071D01*
X16698214Y-12069643D01*
X16683928Y-12083929D01*
X16655357Y-12098214D01*
X16626786Y-12098214D01*
X16598214Y-12083929D01*
X16583928Y-12069643D01*
X16569643Y-12041071D01*
X16555357Y-11983929D01*
X16555357Y-11912500D01*
X16569643Y-11855357D01*
X16583928Y-11826786D01*
X16598214Y-11812500D01*
X16626786Y-11798214D01*
X17012500Y-12098214D02*
X16841071Y-12098214D01*
X16926786Y-12098214D02*
X16926786Y-11798214D01*
X16898214Y-11841071D01*
X16869643Y-11869643D01*
X16841071Y-11883929D01*
X17283928Y-11798214D02*
X17141071Y-11798214D01*
X17126786Y-11941071D01*
X17141071Y-11926786D01*
X17169643Y-11912500D01*
X17241071Y-11912500D01*
X17269643Y-11926786D01*
X17283928Y-11941071D01*
X17298214Y-11969643D01*
X17298214Y-12041071D01*
X17283928Y-12069643D01*
X17269643Y-12083929D01*
X17241071Y-12098214D01*
X17169643Y-12098214D01*
X17141071Y-12083929D01*
X17126786Y-12069643D01*
X17398214Y-11798214D02*
X17598214Y-11798214D01*
X17469643Y-12098214D01*
X17698214Y-11798214D02*
X17698214Y-11855357D01*
X17812500Y-11798214D02*
X17812500Y-11855357D01*
X18255357Y-12212500D02*
X18241071Y-12198214D01*
X18212500Y-12155357D01*
X18198214Y-12126786D01*
X18183928Y-12083929D01*
X18169643Y-12012500D01*
X18169643Y-11955357D01*
X18183928Y-11883929D01*
X18198214Y-11841071D01*
X18212500Y-11812500D01*
X18241071Y-11769643D01*
X18255357Y-11755357D01*
X18512500Y-11798214D02*
X18369643Y-11798214D01*
X18355357Y-11941071D01*
X18369643Y-11926786D01*
X18398214Y-11912500D01*
X18469643Y-11912500D01*
X18498214Y-11926786D01*
X18512500Y-11941071D01*
X18526786Y-11969643D01*
X18526786Y-12041071D01*
X18512500Y-12069643D01*
X18498214Y-12083929D01*
X18469643Y-12098214D01*
X18398214Y-12098214D01*
X18369643Y-12083929D01*
X18355357Y-12069643D01*
X18798214Y-11798214D02*
X18655357Y-11798214D01*
X18641071Y-11941071D01*
X18655357Y-11926786D01*
X18683928Y-11912500D01*
X18755357Y-11912500D01*
X18783928Y-11926786D01*
X18798214Y-11941071D01*
X18812500Y-11969643D01*
X18812500Y-12041071D01*
X18798214Y-12069643D01*
X18783928Y-12083929D01*
X18755357Y-12098214D01*
X18683928Y-12098214D01*
X18655357Y-12083929D01*
X18641071Y-12069643D01*
X19169643Y-12098214D02*
X19169643Y-11798214D01*
X19298214Y-12098214D02*
X19298214Y-11941071D01*
X19283928Y-11912500D01*
X19255357Y-11898214D01*
X19212500Y-11898214D01*
X19183928Y-11912500D01*
X19169643Y-11926786D01*
X19483928Y-12098214D02*
X19455357Y-12083929D01*
X19441071Y-12069643D01*
X19426786Y-12041071D01*
X19426786Y-11955357D01*
X19441071Y-11926786D01*
X19455357Y-11912500D01*
X19483928Y-11898214D01*
X19526786Y-11898214D01*
X19555357Y-11912500D01*
X19569643Y-11926786D01*
X19583928Y-11955357D01*
X19583928Y-12041071D01*
X19569643Y-12069643D01*
X19555357Y-12083929D01*
X19526786Y-12098214D01*
X19483928Y-12098214D01*
X19755357Y-12098214D02*
X19726786Y-12083929D01*
X19712500Y-12055357D01*
X19712500Y-11798214D01*
X19983928Y-12083929D02*
X19955357Y-12098214D01*
X19898214Y-12098214D01*
X19869643Y-12083929D01*
X19855357Y-12055357D01*
X19855357Y-11941071D01*
X19869643Y-11912500D01*
X19898214Y-11898214D01*
X19955357Y-11898214D01*
X19983928Y-11912500D01*
X19998214Y-11941071D01*
X19998214Y-11969643D01*
X19855357Y-11998214D01*
X20112500Y-12083929D02*
X20141071Y-12098214D01*
X20198214Y-12098214D01*
X20226786Y-12083929D01*
X20241071Y-12055357D01*
X20241071Y-12041071D01*
X20226786Y-12012500D01*
X20198214Y-11998214D01*
X20155357Y-11998214D01*
X20126786Y-11983929D01*
X20112500Y-11955357D01*
X20112500Y-11941071D01*
X20126786Y-11912500D01*
X20155357Y-11898214D01*
X20198214Y-11898214D01*
X20226786Y-11912500D01*
X20341071Y-12212500D02*
X20355357Y-12198214D01*
X20383928Y-12155357D01*
X20398214Y-12126786D01*
X20412500Y-12083929D01*
X20426786Y-12012500D01*
X20426786Y-11955357D01*
X20412500Y-11883929D01*
X20398214Y-11841071D01*
X20383928Y-11812500D01*
X20355357Y-11769643D01*
X20341071Y-11755357D01*
X12997500Y-12358500D02*
G75*
G03*
X12997500Y-12358500I-30000J0D01*
G01*
X13341071Y-12194214D02*
X13369643Y-12194214D01*
X13398214Y-12208500D01*
X13412500Y-12222786D01*
X13426786Y-12251357D01*
X13441071Y-12308500D01*
X13441071Y-12379929D01*
X13426786Y-12437071D01*
X13412500Y-12465643D01*
X13398214Y-12479929D01*
X13369643Y-12494214D01*
X13341071Y-12494214D01*
X13312500Y-12479929D01*
X13298214Y-12465643D01*
X13283928Y-12437071D01*
X13269643Y-12379929D01*
X13269643Y-12308500D01*
X13283928Y-12251357D01*
X13298214Y-12222786D01*
X13312500Y-12208500D01*
X13341071Y-12194214D01*
X13569643Y-12465643D02*
X13583928Y-12479929D01*
X13569643Y-12494214D01*
X13555357Y-12479929D01*
X13569643Y-12465643D01*
X13569643Y-12494214D01*
X13841071Y-12194214D02*
X13783928Y-12194214D01*
X13755357Y-12208500D01*
X13741071Y-12222786D01*
X13712500Y-12265643D01*
X13698214Y-12322786D01*
X13698214Y-12437071D01*
X13712500Y-12465643D01*
X13726786Y-12479929D01*
X13755357Y-12494214D01*
X13812500Y-12494214D01*
X13841071Y-12479929D01*
X13855357Y-12465643D01*
X13869643Y-12437071D01*
X13869643Y-12365643D01*
X13855357Y-12337071D01*
X13841071Y-12322786D01*
X13812500Y-12308500D01*
X13755357Y-12308500D01*
X13726786Y-12322786D01*
X13712500Y-12337071D01*
X13698214Y-12365643D01*
X14055357Y-12194214D02*
X14083928Y-12194214D01*
X14112500Y-12208500D01*
X14126786Y-12222786D01*
X14141071Y-12251357D01*
X14155357Y-12308500D01*
X14155357Y-12379929D01*
X14141071Y-12437071D01*
X14126786Y-12465643D01*
X14112500Y-12479929D01*
X14083928Y-12494214D01*
X14055357Y-12494214D01*
X14026786Y-12479929D01*
X14012500Y-12465643D01*
X13998214Y-12437071D01*
X13983928Y-12379929D01*
X13983928Y-12308500D01*
X13998214Y-12251357D01*
X14012500Y-12222786D01*
X14026786Y-12208500D01*
X14055357Y-12194214D01*
X14341071Y-12194214D02*
X14369643Y-12194214D01*
X14398214Y-12208500D01*
X14412500Y-12222786D01*
X14426786Y-12251357D01*
X14441071Y-12308500D01*
X14441071Y-12379929D01*
X14426786Y-12437071D01*
X14412500Y-12465643D01*
X14398214Y-12479929D01*
X14369643Y-12494214D01*
X14341071Y-12494214D01*
X14312500Y-12479929D01*
X14298214Y-12465643D01*
X14283928Y-12437071D01*
X14269643Y-12379929D01*
X14269643Y-12308500D01*
X14283928Y-12251357D01*
X14298214Y-12222786D01*
X14312500Y-12208500D01*
X14341071Y-12194214D01*
X14569643Y-12494214D02*
X14569643Y-12294214D01*
X14569643Y-12322786D02*
X14583928Y-12308500D01*
X14612500Y-12294214D01*
X14655357Y-12294214D01*
X14683928Y-12308500D01*
X14698214Y-12337071D01*
X14698214Y-12494214D01*
X14698214Y-12337071D02*
X14712500Y-12308500D01*
X14741071Y-12294214D01*
X14783928Y-12294214D01*
X14812500Y-12308500D01*
X14826786Y-12337071D01*
X14826786Y-12494214D01*
X14969643Y-12494214D02*
X14969643Y-12294214D01*
X14969643Y-12322786D02*
X14983928Y-12308500D01*
X15012500Y-12294214D01*
X15055357Y-12294214D01*
X15083928Y-12308500D01*
X15098214Y-12337071D01*
X15098214Y-12494214D01*
X15098214Y-12337071D02*
X15112500Y-12308500D01*
X15141071Y-12294214D01*
X15183928Y-12294214D01*
X15212500Y-12308500D01*
X15226786Y-12337071D01*
X15226786Y-12494214D01*
X15812500Y-12179929D02*
X15555357Y-12565643D01*
X16198214Y-12194214D02*
X16226786Y-12194214D01*
X16255357Y-12208500D01*
X16269643Y-12222786D01*
X16283928Y-12251357D01*
X16298214Y-12308500D01*
X16298214Y-12379929D01*
X16283928Y-12437071D01*
X16269643Y-12465643D01*
X16255357Y-12479929D01*
X16226786Y-12494214D01*
X16198214Y-12494214D01*
X16169643Y-12479929D01*
X16155357Y-12465643D01*
X16141071Y-12437071D01*
X16126786Y-12379929D01*
X16126786Y-12308500D01*
X16141071Y-12251357D01*
X16155357Y-12222786D01*
X16169643Y-12208500D01*
X16198214Y-12194214D01*
X16426786Y-12465643D02*
X16441071Y-12479929D01*
X16426786Y-12494214D01*
X16412500Y-12479929D01*
X16426786Y-12465643D01*
X16426786Y-12494214D01*
X16626786Y-12194214D02*
X16655357Y-12194214D01*
X16683928Y-12208500D01*
X16698214Y-12222786D01*
X16712500Y-12251357D01*
X16726786Y-12308500D01*
X16726786Y-12379929D01*
X16712500Y-12437071D01*
X16698214Y-12465643D01*
X16683928Y-12479929D01*
X16655357Y-12494214D01*
X16626786Y-12494214D01*
X16598214Y-12479929D01*
X16583928Y-12465643D01*
X16569643Y-12437071D01*
X16555357Y-12379929D01*
X16555357Y-12308500D01*
X16569643Y-12251357D01*
X16583928Y-12222786D01*
X16598214Y-12208500D01*
X16626786Y-12194214D01*
X16841071Y-12222786D02*
X16855357Y-12208500D01*
X16883928Y-12194214D01*
X16955357Y-12194214D01*
X16983928Y-12208500D01*
X16998214Y-12222786D01*
X17012500Y-12251357D01*
X17012500Y-12279929D01*
X16998214Y-12322786D01*
X16826786Y-12494214D01*
X17012500Y-12494214D01*
X17112500Y-12194214D02*
X17298214Y-12194214D01*
X17198214Y-12308500D01*
X17241071Y-12308500D01*
X17269643Y-12322786D01*
X17283928Y-12337071D01*
X17298214Y-12365643D01*
X17298214Y-12437071D01*
X17283928Y-12465643D01*
X17269643Y-12479929D01*
X17241071Y-12494214D01*
X17155357Y-12494214D01*
X17126786Y-12479929D01*
X17112500Y-12465643D01*
X17555357Y-12194214D02*
X17498214Y-12194214D01*
X17469643Y-12208500D01*
X17455357Y-12222786D01*
X17426786Y-12265643D01*
X17412500Y-12322786D01*
X17412500Y-12437071D01*
X17426786Y-12465643D01*
X17441071Y-12479929D01*
X17469643Y-12494214D01*
X17526786Y-12494214D01*
X17555357Y-12479929D01*
X17569643Y-12465643D01*
X17583928Y-12437071D01*
X17583928Y-12365643D01*
X17569643Y-12337071D01*
X17555357Y-12322786D01*
X17526786Y-12308500D01*
X17469643Y-12308500D01*
X17441071Y-12322786D01*
X17426786Y-12337071D01*
X17412500Y-12365643D01*
X17698214Y-12194214D02*
X17698214Y-12251357D01*
X17812500Y-12194214D02*
X17812500Y-12251357D01*
X18255357Y-12608500D02*
X18241071Y-12594214D01*
X18212500Y-12551357D01*
X18198214Y-12522786D01*
X18183928Y-12479929D01*
X18169643Y-12408500D01*
X18169643Y-12351357D01*
X18183928Y-12279929D01*
X18198214Y-12237071D01*
X18212500Y-12208500D01*
X18241071Y-12165643D01*
X18255357Y-12151357D01*
X18426786Y-12194214D02*
X18455357Y-12194214D01*
X18483928Y-12208500D01*
X18498214Y-12222786D01*
X18512500Y-12251357D01*
X18526786Y-12308500D01*
X18526786Y-12379929D01*
X18512500Y-12437071D01*
X18498214Y-12465643D01*
X18483928Y-12479929D01*
X18455357Y-12494214D01*
X18426786Y-12494214D01*
X18398214Y-12479929D01*
X18383928Y-12465643D01*
X18369643Y-12437071D01*
X18355357Y-12379929D01*
X18355357Y-12308500D01*
X18369643Y-12251357D01*
X18383928Y-12222786D01*
X18398214Y-12208500D01*
X18426786Y-12194214D01*
X18883928Y-12494214D02*
X18883928Y-12194214D01*
X19012500Y-12494214D02*
X19012500Y-12337071D01*
X18998214Y-12308500D01*
X18969643Y-12294214D01*
X18926786Y-12294214D01*
X18898214Y-12308500D01*
X18883928Y-12322786D01*
X19198214Y-12494214D02*
X19169643Y-12479929D01*
X19155357Y-12465643D01*
X19141071Y-12437071D01*
X19141071Y-12351357D01*
X19155357Y-12322786D01*
X19169643Y-12308500D01*
X19198214Y-12294214D01*
X19241071Y-12294214D01*
X19269643Y-12308500D01*
X19283928Y-12322786D01*
X19298214Y-12351357D01*
X19298214Y-12437071D01*
X19283928Y-12465643D01*
X19269643Y-12479929D01*
X19241071Y-12494214D01*
X19198214Y-12494214D01*
X19469643Y-12494214D02*
X19441071Y-12479929D01*
X19426786Y-12451357D01*
X19426786Y-12194214D01*
X19698214Y-12479929D02*
X19669643Y-12494214D01*
X19612500Y-12494214D01*
X19583928Y-12479929D01*
X19569643Y-12451357D01*
X19569643Y-12337071D01*
X19583928Y-12308500D01*
X19612500Y-12294214D01*
X19669643Y-12294214D01*
X19698214Y-12308500D01*
X19712500Y-12337071D01*
X19712500Y-12365643D01*
X19569643Y-12394214D01*
X19826786Y-12479929D02*
X19855357Y-12494214D01*
X19912500Y-12494214D01*
X19941071Y-12479929D01*
X19955357Y-12451357D01*
X19955357Y-12437071D01*
X19941071Y-12408500D01*
X19912500Y-12394214D01*
X19869643Y-12394214D01*
X19841071Y-12379929D01*
X19826786Y-12351357D01*
X19826786Y-12337071D01*
X19841071Y-12308500D01*
X19869643Y-12294214D01*
X19912500Y-12294214D01*
X19941071Y-12308500D01*
X20312500Y-12379929D02*
X20541071Y-12379929D01*
X20426786Y-12494214D02*
X20426786Y-12265643D01*
X20898214Y-12222786D02*
X20912500Y-12208500D01*
X20941071Y-12194214D01*
X21012500Y-12194214D01*
X21041071Y-12208500D01*
X21055357Y-12222786D01*
X21069643Y-12251357D01*
X21069643Y-12279929D01*
X21055357Y-12322786D01*
X20883928Y-12494214D01*
X21069643Y-12494214D01*
X21412500Y-12479929D02*
X21441071Y-12494214D01*
X21498214Y-12494214D01*
X21526786Y-12479929D01*
X21541071Y-12451357D01*
X21541071Y-12437071D01*
X21526786Y-12408500D01*
X21498214Y-12394214D01*
X21455357Y-12394214D01*
X21426786Y-12379929D01*
X21412500Y-12351357D01*
X21412500Y-12337071D01*
X21426786Y-12308500D01*
X21455357Y-12294214D01*
X21498214Y-12294214D01*
X21526786Y-12308500D01*
X21712500Y-12494214D02*
X21683928Y-12479929D01*
X21669643Y-12451357D01*
X21669643Y-12194214D01*
X21869643Y-12494214D02*
X21841071Y-12479929D01*
X21826786Y-12465643D01*
X21812500Y-12437071D01*
X21812500Y-12351357D01*
X21826786Y-12322786D01*
X21841071Y-12308500D01*
X21869643Y-12294214D01*
X21912500Y-12294214D01*
X21941071Y-12308500D01*
X21955357Y-12322786D01*
X21969643Y-12351357D01*
X21969643Y-12437071D01*
X21955357Y-12465643D01*
X21941071Y-12479929D01*
X21912500Y-12494214D01*
X21869643Y-12494214D01*
X22055357Y-12294214D02*
X22169643Y-12294214D01*
X22098214Y-12194214D02*
X22098214Y-12451357D01*
X22112500Y-12479929D01*
X22141071Y-12494214D01*
X22169643Y-12494214D01*
X22255357Y-12479929D02*
X22283928Y-12494214D01*
X22341071Y-12494214D01*
X22369643Y-12479929D01*
X22383928Y-12451357D01*
X22383928Y-12437071D01*
X22369643Y-12408500D01*
X22341071Y-12394214D01*
X22298214Y-12394214D01*
X22269643Y-12379929D01*
X22255357Y-12351357D01*
X22255357Y-12337071D01*
X22269643Y-12308500D01*
X22298214Y-12294214D01*
X22341071Y-12294214D01*
X22369643Y-12308500D01*
X22483928Y-12608500D02*
X22498214Y-12594214D01*
X22526786Y-12551357D01*
X22541071Y-12522786D01*
X22555357Y-12479929D01*
X22569643Y-12408500D01*
X22569643Y-12351357D01*
X22555357Y-12279929D01*
X22541071Y-12237071D01*
X22526786Y-12208500D01*
X22498214Y-12165643D01*
X22483928Y-12151357D01*
X12955000Y-12712000D02*
X12955000Y-12797000D01*
X12912500Y-12754500D02*
X12997500Y-12754500D01*
X13341071Y-12590214D02*
X13369643Y-12590214D01*
X13398214Y-12604500D01*
X13412500Y-12618786D01*
X13426786Y-12647357D01*
X13441071Y-12704500D01*
X13441071Y-12775929D01*
X13426786Y-12833071D01*
X13412500Y-12861643D01*
X13398214Y-12875929D01*
X13369643Y-12890214D01*
X13341071Y-12890214D01*
X13312500Y-12875929D01*
X13298214Y-12861643D01*
X13283928Y-12833071D01*
X13269643Y-12775929D01*
X13269643Y-12704500D01*
X13283928Y-12647357D01*
X13298214Y-12618786D01*
X13312500Y-12604500D01*
X13341071Y-12590214D01*
X13569643Y-12861643D02*
X13583928Y-12875929D01*
X13569643Y-12890214D01*
X13555357Y-12875929D01*
X13569643Y-12861643D01*
X13569643Y-12890214D01*
X13755357Y-12718786D02*
X13726786Y-12704500D01*
X13712500Y-12690214D01*
X13698214Y-12661643D01*
X13698214Y-12647357D01*
X13712500Y-12618786D01*
X13726786Y-12604500D01*
X13755357Y-12590214D01*
X13812500Y-12590214D01*
X13841071Y-12604500D01*
X13855357Y-12618786D01*
X13869643Y-12647357D01*
X13869643Y-12661643D01*
X13855357Y-12690214D01*
X13841071Y-12704500D01*
X13812500Y-12718786D01*
X13755357Y-12718786D01*
X13726786Y-12733071D01*
X13712500Y-12747357D01*
X13698214Y-12775929D01*
X13698214Y-12833071D01*
X13712500Y-12861643D01*
X13726786Y-12875929D01*
X13755357Y-12890214D01*
X13812500Y-12890214D01*
X13841071Y-12875929D01*
X13855357Y-12861643D01*
X13869643Y-12833071D01*
X13869643Y-12775929D01*
X13855357Y-12747357D01*
X13841071Y-12733071D01*
X13812500Y-12718786D01*
X14141071Y-12590214D02*
X13998214Y-12590214D01*
X13983928Y-12733071D01*
X13998214Y-12718786D01*
X14026786Y-12704500D01*
X14098214Y-12704500D01*
X14126786Y-12718786D01*
X14141071Y-12733071D01*
X14155357Y-12761643D01*
X14155357Y-12833071D01*
X14141071Y-12861643D01*
X14126786Y-12875929D01*
X14098214Y-12890214D01*
X14026786Y-12890214D01*
X13998214Y-12875929D01*
X13983928Y-12861643D01*
X14341071Y-12590214D02*
X14369643Y-12590214D01*
X14398214Y-12604500D01*
X14412500Y-12618786D01*
X14426786Y-12647357D01*
X14441071Y-12704500D01*
X14441071Y-12775929D01*
X14426786Y-12833071D01*
X14412500Y-12861643D01*
X14398214Y-12875929D01*
X14369643Y-12890214D01*
X14341071Y-12890214D01*
X14312500Y-12875929D01*
X14298214Y-12861643D01*
X14283928Y-12833071D01*
X14269643Y-12775929D01*
X14269643Y-12704500D01*
X14283928Y-12647357D01*
X14298214Y-12618786D01*
X14312500Y-12604500D01*
X14341071Y-12590214D01*
X14569643Y-12890214D02*
X14569643Y-12690214D01*
X14569643Y-12718786D02*
X14583928Y-12704500D01*
X14612500Y-12690214D01*
X14655357Y-12690214D01*
X14683928Y-12704500D01*
X14698214Y-12733071D01*
X14698214Y-12890214D01*
X14698214Y-12733071D02*
X14712500Y-12704500D01*
X14741071Y-12690214D01*
X14783928Y-12690214D01*
X14812500Y-12704500D01*
X14826786Y-12733071D01*
X14826786Y-12890214D01*
X14969643Y-12890214D02*
X14969643Y-12690214D01*
X14969643Y-12718786D02*
X14983928Y-12704500D01*
X15012500Y-12690214D01*
X15055357Y-12690214D01*
X15083928Y-12704500D01*
X15098214Y-12733071D01*
X15098214Y-12890214D01*
X15098214Y-12733071D02*
X15112500Y-12704500D01*
X15141071Y-12690214D01*
X15183928Y-12690214D01*
X15212500Y-12704500D01*
X15226786Y-12733071D01*
X15226786Y-12890214D01*
X15812500Y-12575929D02*
X15555357Y-12961643D01*
X16198214Y-12590214D02*
X16226786Y-12590214D01*
X16255357Y-12604500D01*
X16269643Y-12618786D01*
X16283928Y-12647357D01*
X16298214Y-12704500D01*
X16298214Y-12775929D01*
X16283928Y-12833071D01*
X16269643Y-12861643D01*
X16255357Y-12875929D01*
X16226786Y-12890214D01*
X16198214Y-12890214D01*
X16169643Y-12875929D01*
X16155357Y-12861643D01*
X16141071Y-12833071D01*
X16126786Y-12775929D01*
X16126786Y-12704500D01*
X16141071Y-12647357D01*
X16155357Y-12618786D01*
X16169643Y-12604500D01*
X16198214Y-12590214D01*
X16426786Y-12861643D02*
X16441071Y-12875929D01*
X16426786Y-12890214D01*
X16412500Y-12875929D01*
X16426786Y-12861643D01*
X16426786Y-12890214D01*
X16626786Y-12590214D02*
X16655357Y-12590214D01*
X16683928Y-12604500D01*
X16698214Y-12618786D01*
X16712500Y-12647357D01*
X16726786Y-12704500D01*
X16726786Y-12775929D01*
X16712500Y-12833071D01*
X16698214Y-12861643D01*
X16683928Y-12875929D01*
X16655357Y-12890214D01*
X16626786Y-12890214D01*
X16598214Y-12875929D01*
X16583928Y-12861643D01*
X16569643Y-12833071D01*
X16555357Y-12775929D01*
X16555357Y-12704500D01*
X16569643Y-12647357D01*
X16583928Y-12618786D01*
X16598214Y-12604500D01*
X16626786Y-12590214D01*
X16826786Y-12590214D02*
X17012500Y-12590214D01*
X16912500Y-12704500D01*
X16955357Y-12704500D01*
X16983928Y-12718786D01*
X16998214Y-12733071D01*
X17012500Y-12761643D01*
X17012500Y-12833071D01*
X16998214Y-12861643D01*
X16983928Y-12875929D01*
X16955357Y-12890214D01*
X16869643Y-12890214D01*
X16841071Y-12875929D01*
X16826786Y-12861643D01*
X17112500Y-12590214D02*
X17298214Y-12590214D01*
X17198214Y-12704500D01*
X17241071Y-12704500D01*
X17269643Y-12718786D01*
X17283928Y-12733071D01*
X17298214Y-12761643D01*
X17298214Y-12833071D01*
X17283928Y-12861643D01*
X17269643Y-12875929D01*
X17241071Y-12890214D01*
X17155357Y-12890214D01*
X17126786Y-12875929D01*
X17112500Y-12861643D01*
X17569643Y-12590214D02*
X17426786Y-12590214D01*
X17412500Y-12733071D01*
X17426786Y-12718786D01*
X17455357Y-12704500D01*
X17526786Y-12704500D01*
X17555357Y-12718786D01*
X17569643Y-12733071D01*
X17583928Y-12761643D01*
X17583928Y-12833071D01*
X17569643Y-12861643D01*
X17555357Y-12875929D01*
X17526786Y-12890214D01*
X17455357Y-12890214D01*
X17426786Y-12875929D01*
X17412500Y-12861643D01*
X17698214Y-12590214D02*
X17698214Y-12647357D01*
X17812500Y-12590214D02*
X17812500Y-12647357D01*
X18255357Y-13004500D02*
X18241071Y-12990214D01*
X18212500Y-12947357D01*
X18198214Y-12918786D01*
X18183928Y-12875929D01*
X18169643Y-12804500D01*
X18169643Y-12747357D01*
X18183928Y-12675929D01*
X18198214Y-12633071D01*
X18212500Y-12604500D01*
X18241071Y-12561643D01*
X18255357Y-12547357D01*
X18355357Y-12618786D02*
X18369643Y-12604500D01*
X18398214Y-12590214D01*
X18469643Y-12590214D01*
X18498214Y-12604500D01*
X18512500Y-12618786D01*
X18526786Y-12647357D01*
X18526786Y-12675929D01*
X18512500Y-12718786D01*
X18341071Y-12890214D01*
X18526786Y-12890214D01*
X18883928Y-12890214D02*
X18883928Y-12590214D01*
X19012500Y-12890214D02*
X19012500Y-12733071D01*
X18998214Y-12704500D01*
X18969643Y-12690214D01*
X18926786Y-12690214D01*
X18898214Y-12704500D01*
X18883928Y-12718786D01*
X19198214Y-12890214D02*
X19169643Y-12875929D01*
X19155357Y-12861643D01*
X19141071Y-12833071D01*
X19141071Y-12747357D01*
X19155357Y-12718786D01*
X19169643Y-12704500D01*
X19198214Y-12690214D01*
X19241071Y-12690214D01*
X19269643Y-12704500D01*
X19283928Y-12718786D01*
X19298214Y-12747357D01*
X19298214Y-12833071D01*
X19283928Y-12861643D01*
X19269643Y-12875929D01*
X19241071Y-12890214D01*
X19198214Y-12890214D01*
X19469643Y-12890214D02*
X19441071Y-12875929D01*
X19426786Y-12847357D01*
X19426786Y-12590214D01*
X19698214Y-12875929D02*
X19669643Y-12890214D01*
X19612500Y-12890214D01*
X19583928Y-12875929D01*
X19569643Y-12847357D01*
X19569643Y-12733071D01*
X19583928Y-12704500D01*
X19612500Y-12690214D01*
X19669643Y-12690214D01*
X19698214Y-12704500D01*
X19712500Y-12733071D01*
X19712500Y-12761643D01*
X19569643Y-12790214D01*
X19826786Y-12875929D02*
X19855357Y-12890214D01*
X19912500Y-12890214D01*
X19941071Y-12875929D01*
X19955357Y-12847357D01*
X19955357Y-12833071D01*
X19941071Y-12804500D01*
X19912500Y-12790214D01*
X19869643Y-12790214D01*
X19841071Y-12775929D01*
X19826786Y-12747357D01*
X19826786Y-12733071D01*
X19841071Y-12704500D01*
X19869643Y-12690214D01*
X19912500Y-12690214D01*
X19941071Y-12704500D01*
X20055357Y-13004500D02*
X20069643Y-12990214D01*
X20098214Y-12947357D01*
X20112500Y-12918786D01*
X20126786Y-12875929D01*
X20141071Y-12804500D01*
X20141071Y-12747357D01*
X20126786Y-12675929D01*
X20112500Y-12633071D01*
X20098214Y-12604500D01*
X20069643Y-12561643D01*
X20055357Y-12547357D01*
X12982856Y-13185856D02*
X12982856Y-13115144D01*
X12912144Y-13115144D01*
X12912144Y-13185856D01*
X12982856Y-13185856D01*
X13441071Y-13286214D02*
X13269643Y-13286214D01*
X13355357Y-13286214D02*
X13355357Y-12986214D01*
X13326786Y-13029071D01*
X13298214Y-13057643D01*
X13269643Y-13071929D01*
X13569643Y-13257643D02*
X13583928Y-13271929D01*
X13569643Y-13286214D01*
X13555357Y-13271929D01*
X13569643Y-13257643D01*
X13569643Y-13286214D01*
X13769643Y-12986214D02*
X13798214Y-12986214D01*
X13826786Y-13000500D01*
X13841071Y-13014786D01*
X13855357Y-13043357D01*
X13869643Y-13100500D01*
X13869643Y-13171929D01*
X13855357Y-13229071D01*
X13841071Y-13257643D01*
X13826786Y-13271929D01*
X13798214Y-13286214D01*
X13769643Y-13286214D01*
X13741071Y-13271929D01*
X13726786Y-13257643D01*
X13712500Y-13229071D01*
X13698214Y-13171929D01*
X13698214Y-13100500D01*
X13712500Y-13043357D01*
X13726786Y-13014786D01*
X13741071Y-13000500D01*
X13769643Y-12986214D01*
X14055357Y-12986214D02*
X14083928Y-12986214D01*
X14112500Y-13000500D01*
X14126786Y-13014786D01*
X14141071Y-13043357D01*
X14155357Y-13100500D01*
X14155357Y-13171929D01*
X14141071Y-13229071D01*
X14126786Y-13257643D01*
X14112500Y-13271929D01*
X14083928Y-13286214D01*
X14055357Y-13286214D01*
X14026786Y-13271929D01*
X14012500Y-13257643D01*
X13998214Y-13229071D01*
X13983928Y-13171929D01*
X13983928Y-13100500D01*
X13998214Y-13043357D01*
X14012500Y-13014786D01*
X14026786Y-13000500D01*
X14055357Y-12986214D01*
X14341071Y-12986214D02*
X14369643Y-12986214D01*
X14398214Y-13000500D01*
X14412500Y-13014786D01*
X14426786Y-13043357D01*
X14441071Y-13100500D01*
X14441071Y-13171929D01*
X14426786Y-13229071D01*
X14412500Y-13257643D01*
X14398214Y-13271929D01*
X14369643Y-13286214D01*
X14341071Y-13286214D01*
X14312500Y-13271929D01*
X14298214Y-13257643D01*
X14283928Y-13229071D01*
X14269643Y-13171929D01*
X14269643Y-13100500D01*
X14283928Y-13043357D01*
X14298214Y-13014786D01*
X14312500Y-13000500D01*
X14341071Y-12986214D01*
X14569643Y-13286214D02*
X14569643Y-13086214D01*
X14569643Y-13114786D02*
X14583928Y-13100500D01*
X14612500Y-13086214D01*
X14655357Y-13086214D01*
X14683928Y-13100500D01*
X14698214Y-13129071D01*
X14698214Y-13286214D01*
X14698214Y-13129071D02*
X14712500Y-13100500D01*
X14741071Y-13086214D01*
X14783928Y-13086214D01*
X14812500Y-13100500D01*
X14826786Y-13129071D01*
X14826786Y-13286214D01*
X14969643Y-13286214D02*
X14969643Y-13086214D01*
X14969643Y-13114786D02*
X14983928Y-13100500D01*
X15012500Y-13086214D01*
X15055357Y-13086214D01*
X15083928Y-13100500D01*
X15098214Y-13129071D01*
X15098214Y-13286214D01*
X15098214Y-13129071D02*
X15112500Y-13100500D01*
X15141071Y-13086214D01*
X15183928Y-13086214D01*
X15212500Y-13100500D01*
X15226786Y-13129071D01*
X15226786Y-13286214D01*
X15812500Y-12971929D02*
X15555357Y-13357643D01*
X16198214Y-12986214D02*
X16226786Y-12986214D01*
X16255357Y-13000500D01*
X16269643Y-13014786D01*
X16283928Y-13043357D01*
X16298214Y-13100500D01*
X16298214Y-13171929D01*
X16283928Y-13229071D01*
X16269643Y-13257643D01*
X16255357Y-13271929D01*
X16226786Y-13286214D01*
X16198214Y-13286214D01*
X16169643Y-13271929D01*
X16155357Y-13257643D01*
X16141071Y-13229071D01*
X16126786Y-13171929D01*
X16126786Y-13100500D01*
X16141071Y-13043357D01*
X16155357Y-13014786D01*
X16169643Y-13000500D01*
X16198214Y-12986214D01*
X16426786Y-13257643D02*
X16441071Y-13271929D01*
X16426786Y-13286214D01*
X16412500Y-13271929D01*
X16426786Y-13257643D01*
X16426786Y-13286214D01*
X16626786Y-12986214D02*
X16655357Y-12986214D01*
X16683928Y-13000500D01*
X16698214Y-13014786D01*
X16712500Y-13043357D01*
X16726786Y-13100500D01*
X16726786Y-13171929D01*
X16712500Y-13229071D01*
X16698214Y-13257643D01*
X16683928Y-13271929D01*
X16655357Y-13286214D01*
X16626786Y-13286214D01*
X16598214Y-13271929D01*
X16583928Y-13257643D01*
X16569643Y-13229071D01*
X16555357Y-13171929D01*
X16555357Y-13100500D01*
X16569643Y-13043357D01*
X16583928Y-13014786D01*
X16598214Y-13000500D01*
X16626786Y-12986214D01*
X16826786Y-12986214D02*
X17012500Y-12986214D01*
X16912500Y-13100500D01*
X16955357Y-13100500D01*
X16983928Y-13114786D01*
X16998214Y-13129071D01*
X17012500Y-13157643D01*
X17012500Y-13229071D01*
X16998214Y-13257643D01*
X16983928Y-13271929D01*
X16955357Y-13286214D01*
X16869643Y-13286214D01*
X16841071Y-13271929D01*
X16826786Y-13257643D01*
X17155357Y-13286214D02*
X17212500Y-13286214D01*
X17241071Y-13271929D01*
X17255357Y-13257643D01*
X17283928Y-13214786D01*
X17298214Y-13157643D01*
X17298214Y-13043357D01*
X17283928Y-13014786D01*
X17269643Y-13000500D01*
X17241071Y-12986214D01*
X17183928Y-12986214D01*
X17155357Y-13000500D01*
X17141071Y-13014786D01*
X17126786Y-13043357D01*
X17126786Y-13114786D01*
X17141071Y-13143357D01*
X17155357Y-13157643D01*
X17183928Y-13171929D01*
X17241071Y-13171929D01*
X17269643Y-13157643D01*
X17283928Y-13143357D01*
X17298214Y-13114786D01*
X17555357Y-13086214D02*
X17555357Y-13286214D01*
X17483928Y-12971929D02*
X17412500Y-13186214D01*
X17598214Y-13186214D01*
X17698214Y-12986214D02*
X17698214Y-13043357D01*
X17812500Y-12986214D02*
X17812500Y-13043357D01*
X18255357Y-13400500D02*
X18241071Y-13386214D01*
X18212500Y-13343357D01*
X18198214Y-13314786D01*
X18183928Y-13271929D01*
X18169643Y-13200500D01*
X18169643Y-13143357D01*
X18183928Y-13071929D01*
X18198214Y-13029071D01*
X18212500Y-13000500D01*
X18241071Y-12957643D01*
X18255357Y-12943357D01*
X18412500Y-13114786D02*
X18383928Y-13100500D01*
X18369643Y-13086214D01*
X18355357Y-13057643D01*
X18355357Y-13043357D01*
X18369643Y-13014786D01*
X18383928Y-13000500D01*
X18412500Y-12986214D01*
X18469643Y-12986214D01*
X18498214Y-13000500D01*
X18512500Y-13014786D01*
X18526786Y-13043357D01*
X18526786Y-13057643D01*
X18512500Y-13086214D01*
X18498214Y-13100500D01*
X18469643Y-13114786D01*
X18412500Y-13114786D01*
X18383928Y-13129071D01*
X18369643Y-13143357D01*
X18355357Y-13171929D01*
X18355357Y-13229071D01*
X18369643Y-13257643D01*
X18383928Y-13271929D01*
X18412500Y-13286214D01*
X18469643Y-13286214D01*
X18498214Y-13271929D01*
X18512500Y-13257643D01*
X18526786Y-13229071D01*
X18526786Y-13171929D01*
X18512500Y-13143357D01*
X18498214Y-13129071D01*
X18469643Y-13114786D01*
X18883928Y-13286214D02*
X18883928Y-12986214D01*
X19012500Y-13286214D02*
X19012500Y-13129071D01*
X18998214Y-13100500D01*
X18969643Y-13086214D01*
X18926786Y-13086214D01*
X18898214Y-13100500D01*
X18883928Y-13114786D01*
X19198214Y-13286214D02*
X19169643Y-13271929D01*
X19155357Y-13257643D01*
X19141071Y-13229071D01*
X19141071Y-13143357D01*
X19155357Y-13114786D01*
X19169643Y-13100500D01*
X19198214Y-13086214D01*
X19241071Y-13086214D01*
X19269643Y-13100500D01*
X19283928Y-13114786D01*
X19298214Y-13143357D01*
X19298214Y-13229071D01*
X19283928Y-13257643D01*
X19269643Y-13271929D01*
X19241071Y-13286214D01*
X19198214Y-13286214D01*
X19469643Y-13286214D02*
X19441071Y-13271929D01*
X19426786Y-13243357D01*
X19426786Y-12986214D01*
X19698214Y-13271929D02*
X19669643Y-13286214D01*
X19612500Y-13286214D01*
X19583928Y-13271929D01*
X19569643Y-13243357D01*
X19569643Y-13129071D01*
X19583928Y-13100500D01*
X19612500Y-13086214D01*
X19669643Y-13086214D01*
X19698214Y-13100500D01*
X19712500Y-13129071D01*
X19712500Y-13157643D01*
X19569643Y-13186214D01*
X19826786Y-13271929D02*
X19855357Y-13286214D01*
X19912500Y-13286214D01*
X19941071Y-13271929D01*
X19955357Y-13243357D01*
X19955357Y-13229071D01*
X19941071Y-13200500D01*
X19912500Y-13186214D01*
X19869643Y-13186214D01*
X19841071Y-13171929D01*
X19826786Y-13143357D01*
X19826786Y-13129071D01*
X19841071Y-13100500D01*
X19869643Y-13086214D01*
X19912500Y-13086214D01*
X19941071Y-13100500D01*
X20055357Y-13400500D02*
X20069643Y-13386214D01*
X20098214Y-13343357D01*
X20112500Y-13314786D01*
X20126786Y-13271929D01*
X20141071Y-13200500D01*
X20141071Y-13143357D01*
X20126786Y-13071929D01*
X20112500Y-13029071D01*
X20098214Y-13000500D01*
X20069643Y-12957643D01*
X20055357Y-12943357D01*
M02*
