G04 Layer_Color=65535*
%FSLAX43Y43*%
%MOMM*%
G71*
G01*
G75*
%ADD42C,0.200*%
%ADD43C,0.127*%
%ADD44C,0.152*%
%ADD45C,0.090*%
D42*
X27050Y39000D02*
G03*
X27050Y39000I-150J0D01*
G01*
X24313Y13200D02*
G03*
X24313Y13200I-100J0D01*
G01*
X25410Y3770D02*
X30490D01*
X25410Y1230D02*
Y3770D01*
Y1230D02*
X30490D01*
Y3770D01*
X969Y24190D02*
Y29270D01*
Y24190D02*
X3509D01*
Y29270D01*
X969D02*
X3509D01*
X20850Y18900D02*
X22150D01*
X22516Y15095D02*
Y18651D01*
X20484Y15095D02*
X22516D01*
X20484D02*
Y18651D01*
X20850Y10257D02*
X22150D01*
X20484Y10506D02*
Y14062D01*
X22516D01*
Y10506D02*
Y14062D01*
X18352Y6850D02*
Y8150D01*
X18601Y8516D02*
X22157D01*
Y6484D02*
Y8516D01*
X18601Y6484D02*
X22157D01*
X18352Y4100D02*
Y5400D01*
X18601Y5766D02*
X22157D01*
Y3734D02*
Y5766D01*
X18601Y3734D02*
X22157D01*
X23400Y1350D02*
Y2650D01*
X19595Y984D02*
X23151D01*
X19595D02*
Y3016D01*
X23151D01*
X10850Y30002D02*
X12150D01*
X12516Y26197D02*
Y29753D01*
X10484Y26197D02*
X12516D01*
X10484D02*
Y29753D01*
X22648Y22850D02*
Y24150D01*
X22897Y24516D02*
X26453D01*
Y22484D02*
Y24516D01*
X22897Y22484D02*
X26453D01*
X25644Y30900D02*
X26944D01*
X25278Y31149D02*
Y34705D01*
X27310D01*
Y31149D02*
Y34705D01*
X11949Y31100D02*
X13249D01*
X11583Y31349D02*
Y34905D01*
X13615D01*
Y31349D02*
Y34905D01*
X1850Y36350D02*
X3150D01*
X1484Y36599D02*
Y40155D01*
X3516D01*
Y36599D02*
Y40155D01*
X8824Y21526D02*
Y22826D01*
X5019Y21160D02*
X8575D01*
X5019D02*
Y23192D01*
X8575D01*
X4931Y25252D02*
X6231D01*
X4565Y25501D02*
Y29057D01*
X6597D01*
Y25501D02*
Y29057D01*
X600Y1100D02*
Y2400D01*
X849Y2766D02*
X4405D01*
Y734D02*
Y2766D01*
X849Y734D02*
X4405D01*
X1121Y3500D02*
X2421D01*
X755Y3749D02*
Y7305D01*
X2787D01*
Y3749D02*
Y7305D01*
X1121Y12679D02*
X2421D01*
X2787Y8874D02*
Y12430D01*
X755Y8874D02*
X2787D01*
X755D02*
Y12430D01*
X25000Y38800D02*
X25300Y38500D01*
X25000Y38200D02*
X25300Y38500D01*
X25000Y38200D02*
Y38800D01*
X28180Y26860D02*
X30720D01*
X28180D02*
Y39560D01*
X30720Y26860D02*
Y39560D01*
X28180D02*
X30720D01*
X7119Y37984D02*
Y38184D01*
Y35784D02*
Y35984D01*
X5719Y38184D02*
X7119D01*
X5719Y35784D02*
X7119D01*
X5719D02*
Y35984D01*
Y37984D02*
Y38184D01*
X25481Y5730D02*
X30561D01*
Y8270D01*
X25481D02*
X30561D01*
X25481Y5730D02*
Y8270D01*
D43*
X7250Y16935D02*
G03*
X7250Y16935I-1778J0D01*
G01*
X13000Y1000D02*
G03*
X13000Y1000I-200J0D01*
G01*
X24800Y37850D02*
X25400D01*
X24800Y39150D02*
X25400D01*
X29450Y10750D02*
Y18250D01*
X30750D01*
Y10750D02*
Y18250D01*
X29450Y10750D02*
X30750D01*
X2572Y14035D02*
X8272D01*
X2572D02*
Y19835D01*
X8272D01*
Y14035D02*
Y19835D01*
X7300Y1170D02*
X11700D01*
Y9830D01*
X7300D02*
X11700D01*
X7300Y1170D02*
Y9830D01*
D44*
X14276Y33900D02*
G03*
X14276Y33900I-76J0D01*
G01*
X5008Y32398D02*
Y32602D01*
X6430Y32398D02*
Y32602D01*
X11204Y37648D02*
Y37852D01*
X9782Y37648D02*
Y37852D01*
X7297Y32460D02*
Y32663D01*
X8720Y32460D02*
Y32663D01*
X2137Y21424D02*
X2340D01*
X2137Y22846D02*
X2340D01*
X3805Y32298D02*
Y32502D01*
X2382Y32298D02*
Y32502D01*
X7398Y10793D02*
X7602D01*
X7398Y12216D02*
X7602D01*
X14789Y12246D02*
Y12449D01*
X16211Y12246D02*
Y12449D01*
X17375Y12246D02*
Y12449D01*
X18797Y12246D02*
Y12449D01*
X20648Y37789D02*
X20852D01*
X20648Y39211D02*
X20852D01*
X23221Y33800D02*
Y34221D01*
X22800Y26779D02*
X23221D01*
X15779D02*
Y27200D01*
Y33800D02*
Y34221D01*
X22800D02*
X23221D01*
Y26779D02*
Y27200D01*
X15779Y26779D02*
X16200D01*
X15779Y34221D02*
X16200D01*
D45*
X5759Y39050D02*
Y38717D01*
X5825Y38650D01*
X5959D01*
X6025Y38717D01*
Y39050D01*
X6425Y38650D02*
X6159D01*
X6425Y38917D01*
Y38983D01*
X6359Y39050D01*
X6225D01*
X6159Y38983D01*
X6559D02*
X6625Y39050D01*
X6758D01*
X6825Y38983D01*
Y38717D01*
X6758Y38650D01*
X6625D01*
X6559Y38717D01*
Y38983D01*
X6958Y38650D02*
X7092D01*
X7025D01*
Y39050D01*
X6958Y38983D01*
X19091Y2593D02*
X19157Y2660D01*
Y2793D01*
X19091Y2860D01*
X18824D01*
X18757Y2793D01*
Y2660D01*
X18824Y2593D01*
X18757Y2460D02*
Y2327D01*
Y2393D01*
X19157D01*
X19091Y2460D01*
Y2127D02*
X19157Y2060D01*
Y1927D01*
X19091Y1860D01*
X18824D01*
X18757Y1927D01*
Y2060D01*
X18824Y2127D01*
X19091D01*
X19157Y1460D02*
X19091Y1594D01*
X18957Y1727D01*
X18824D01*
X18757Y1660D01*
Y1527D01*
X18824Y1460D01*
X18891D01*
X18957Y1527D01*
Y1727D01*
X11417Y10860D02*
Y10527D01*
X11484Y10461D01*
X11617D01*
X11684Y10527D01*
Y10860D01*
X12083Y10461D02*
X11817D01*
X12083Y10727D01*
Y10794D01*
X12017Y10860D01*
X11883D01*
X11817Y10794D01*
X12217D02*
X12283Y10860D01*
X12417D01*
X12483Y10794D01*
Y10527D01*
X12417Y10461D01*
X12283D01*
X12217Y10527D01*
Y10794D01*
X12617D02*
X12683Y10860D01*
X12816D01*
X12883Y10794D01*
Y10727D01*
X12816Y10660D01*
X12750D01*
X12816D01*
X12883Y10594D01*
Y10527D01*
X12816Y10461D01*
X12683D01*
X12617Y10527D01*
X21199Y19656D02*
X21132Y19722D01*
X20999D01*
X20932Y19656D01*
Y19389D01*
X20999Y19322D01*
X21132D01*
X21199Y19389D01*
X21332Y19322D02*
X21465D01*
X21399D01*
Y19722D01*
X21332Y19656D01*
X21665D02*
X21732Y19722D01*
X21865D01*
X21932Y19656D01*
Y19389D01*
X21865Y19322D01*
X21732D01*
X21665Y19389D01*
Y19656D01*
X22065D02*
X22132Y19722D01*
X22265D01*
X22332Y19656D01*
Y19389D01*
X22265Y19322D01*
X22132D01*
X22065Y19389D01*
Y19656D01*
X19648Y10508D02*
X19582Y10442D01*
Y10308D01*
X19648Y10242D01*
X19915D01*
X19981Y10308D01*
Y10442D01*
X19915Y10508D01*
X19981Y10642D02*
Y10775D01*
Y10708D01*
X19582D01*
X19648Y10642D01*
Y10975D02*
X19582Y11042D01*
Y11175D01*
X19648Y11242D01*
X19915D01*
X19981Y11175D01*
Y11042D01*
X19915Y10975D01*
X19648D01*
X19981Y11375D02*
Y11508D01*
Y11441D01*
X19582D01*
X19648Y11375D01*
X17685Y8133D02*
X17752Y8200D01*
Y8333D01*
X17685Y8400D01*
X17418D01*
X17352Y8333D01*
Y8200D01*
X17418Y8133D01*
X17352Y8000D02*
Y7867D01*
Y7933D01*
X17752D01*
X17685Y8000D01*
Y7667D02*
X17752Y7600D01*
Y7467D01*
X17685Y7400D01*
X17418D01*
X17352Y7467D01*
Y7600D01*
X17418Y7667D01*
X17685D01*
X17352Y7000D02*
Y7267D01*
X17618Y7000D01*
X17685D01*
X17752Y7067D01*
Y7200D01*
X17685Y7267D01*
Y5283D02*
X17752Y5350D01*
Y5483D01*
X17685Y5550D01*
X17418D01*
X17352Y5483D01*
Y5350D01*
X17418Y5283D01*
X17352Y5150D02*
Y5017D01*
Y5083D01*
X17752D01*
X17685Y5150D01*
Y4817D02*
X17752Y4750D01*
Y4617D01*
X17685Y4550D01*
X17418D01*
X17352Y4617D01*
Y4750D01*
X17418Y4817D01*
X17685D01*
Y4417D02*
X17752Y4350D01*
Y4217D01*
X17685Y4150D01*
X17618D01*
X17552Y4217D01*
Y4284D01*
Y4217D01*
X17485Y4150D01*
X17418D01*
X17352Y4217D01*
Y4350D01*
X17418Y4417D01*
X11017Y25661D02*
X10950Y25728D01*
X10817D01*
X10750Y25661D01*
Y25394D01*
X10817Y25328D01*
X10950D01*
X11017Y25394D01*
X11416Y25328D02*
X11150D01*
X11416Y25594D01*
Y25661D01*
X11350Y25728D01*
X11217D01*
X11150Y25661D01*
X11550D02*
X11616Y25728D01*
X11750D01*
X11816Y25661D01*
Y25394D01*
X11750Y25328D01*
X11616D01*
X11550Y25394D01*
Y25661D01*
X11950D02*
X12016Y25728D01*
X12150D01*
X12216Y25661D01*
Y25394D01*
X12150Y25328D01*
X12016D01*
X11950Y25394D01*
Y25661D01*
X21827Y22934D02*
X21760Y22867D01*
Y22734D01*
X21827Y22667D01*
X22093D01*
X22160Y22734D01*
Y22867D01*
X22093Y22934D01*
X22160Y23334D02*
Y23067D01*
X21893Y23334D01*
X21827D01*
X21760Y23267D01*
Y23134D01*
X21827Y23067D01*
Y23467D02*
X21760Y23534D01*
Y23667D01*
X21827Y23733D01*
X22093D01*
X22160Y23667D01*
Y23534D01*
X22093Y23467D01*
X21827D01*
X22160Y23867D02*
Y24000D01*
Y23933D01*
X21760D01*
X21827Y23867D01*
X25802Y35457D02*
X25735Y35524D01*
X25602D01*
X25535Y35457D01*
Y35191D01*
X25602Y35124D01*
X25735D01*
X25802Y35191D01*
X26201Y35124D02*
X25935D01*
X26201Y35391D01*
Y35457D01*
X26135Y35524D01*
X26002D01*
X25935Y35457D01*
X26335D02*
X26401Y35524D01*
X26535D01*
X26601Y35457D01*
Y35191D01*
X26535Y35124D01*
X26401D01*
X26335Y35191D01*
Y35457D01*
X27001Y35124D02*
X26735D01*
X27001Y35391D01*
Y35457D01*
X26935Y35524D01*
X26801D01*
X26735Y35457D01*
X10766Y32487D02*
X10699Y32420D01*
Y32287D01*
X10766Y32220D01*
X11032D01*
X11099Y32287D01*
Y32420D01*
X11032Y32487D01*
X11099Y32887D02*
Y32620D01*
X10832Y32887D01*
X10766D01*
X10699Y32820D01*
Y32687D01*
X10766Y32620D01*
Y33020D02*
X10699Y33087D01*
Y33220D01*
X10766Y33287D01*
X11032D01*
X11099Y33220D01*
Y33087D01*
X11032Y33020D01*
X10766D01*
Y33420D02*
X10699Y33487D01*
Y33620D01*
X10766Y33687D01*
X10832D01*
X10899Y33620D01*
Y33553D01*
Y33620D01*
X10965Y33687D01*
X11032D01*
X11099Y33620D01*
Y33487D01*
X11032Y33420D01*
X2117Y35833D02*
X2050Y35900D01*
X1917D01*
X1850Y35833D01*
Y35567D01*
X1917Y35500D01*
X2050D01*
X2117Y35567D01*
X2516Y35500D02*
X2250D01*
X2516Y35767D01*
Y35833D01*
X2450Y35900D01*
X2317D01*
X2250Y35833D01*
X2650D02*
X2716Y35900D01*
X2850D01*
X2916Y35833D01*
Y35567D01*
X2850Y35500D01*
X2716D01*
X2650Y35567D01*
Y35833D01*
X3250Y35500D02*
Y35900D01*
X3050Y35700D01*
X3316D01*
X9977Y22941D02*
X10043Y23008D01*
Y23141D01*
X9977Y23208D01*
X9710D01*
X9643Y23141D01*
Y23008D01*
X9710Y22941D01*
X9643Y22541D02*
Y22808D01*
X9910Y22541D01*
X9977D01*
X10043Y22608D01*
Y22741D01*
X9977Y22808D01*
Y22408D02*
X10043Y22341D01*
Y22208D01*
X9977Y22141D01*
X9710D01*
X9643Y22208D01*
Y22341D01*
X9710Y22408D01*
X9977D01*
X10043Y21742D02*
Y22008D01*
X9843D01*
X9910Y21875D01*
Y21808D01*
X9843Y21742D01*
X9710D01*
X9643Y21808D01*
Y21941D01*
X9710Y22008D01*
X5198Y29850D02*
X5131Y29916D01*
X4998D01*
X4931Y29850D01*
Y29583D01*
X4998Y29517D01*
X5131D01*
X5198Y29583D01*
X5597Y29517D02*
X5331D01*
X5597Y29783D01*
Y29850D01*
X5531Y29916D01*
X5397D01*
X5331Y29850D01*
X5731D02*
X5797Y29916D01*
X5931D01*
X5997Y29850D01*
Y29583D01*
X5931Y29517D01*
X5797D01*
X5731Y29583D01*
Y29850D01*
X6397Y29916D02*
X6264Y29850D01*
X6131Y29717D01*
Y29583D01*
X6197Y29517D01*
X6330D01*
X6397Y29583D01*
Y29650D01*
X6330Y29717D01*
X6131D01*
X3635Y7183D02*
X3568Y7250D01*
X3435D01*
X3369Y7183D01*
Y6917D01*
X3435Y6850D01*
X3568D01*
X3635Y6917D01*
X4035Y6850D02*
X3768D01*
X4035Y7117D01*
Y7183D01*
X3968Y7250D01*
X3835D01*
X3768Y7183D01*
X4168D02*
X4235Y7250D01*
X4368D01*
X4435Y7183D01*
Y6917D01*
X4368Y6850D01*
X4235D01*
X4168Y6917D01*
Y7183D01*
X4568Y6917D02*
X4635Y6850D01*
X4768D01*
X4835Y6917D01*
Y7183D01*
X4768Y7250D01*
X4635D01*
X4568Y7183D01*
Y7117D01*
X4635Y7050D01*
X4835D01*
X24350Y40150D02*
Y39750D01*
X24550D01*
X24617Y39817D01*
Y40083D01*
X24550Y40150D01*
X24350D01*
X25016Y39750D02*
X24750D01*
X25016Y40017D01*
Y40083D01*
X24950Y40150D01*
X24817D01*
X24750Y40083D01*
X25150D02*
X25216Y40150D01*
X25350D01*
X25416Y40083D01*
Y39817D01*
X25350Y39750D01*
X25216D01*
X25150Y39817D01*
Y40083D01*
X25550D02*
X25616Y40150D01*
X25750D01*
X25816Y40083D01*
Y39817D01*
X25750Y39750D01*
X25616D01*
X25550Y39817D01*
Y40083D01*
X24614Y5750D02*
X24947D01*
X25013Y5817D01*
Y5950D01*
X24947Y6017D01*
X24614D01*
X24680Y6416D02*
X24614Y6350D01*
Y6217D01*
X24680Y6150D01*
X24747D01*
X24814Y6217D01*
Y6350D01*
X24880Y6416D01*
X24947D01*
X25013Y6350D01*
Y6217D01*
X24947Y6150D01*
X24614Y6550D02*
X25013D01*
Y6750D01*
X24947Y6816D01*
X24880D01*
X24814Y6750D01*
Y6550D01*
Y6750D01*
X24747Y6816D01*
X24680D01*
X24614Y6750D01*
Y6550D01*
X25080Y6950D02*
Y7216D01*
X25013Y7349D02*
X24614D01*
Y7549D01*
X24680Y7616D01*
X24814D01*
X24880Y7549D01*
Y7349D01*
X24614Y7949D02*
Y7816D01*
X24680Y7749D01*
X24947D01*
X25013Y7816D01*
Y7949D01*
X24947Y8016D01*
X24680D01*
X24614Y7949D01*
Y8149D02*
X25013D01*
X24880Y8283D01*
X25013Y8416D01*
X24614D01*
X24572Y2000D02*
X24972D01*
Y2200D01*
X24905Y2267D01*
X24839D01*
X24772Y2200D01*
Y2000D01*
Y2200D01*
X24705Y2267D01*
X24639D01*
X24572Y2200D01*
Y2000D01*
X24972Y2400D02*
X24705D01*
X24572Y2533D01*
X24705Y2666D01*
X24972D01*
X24772D01*
Y2400D01*
X24572Y2800D02*
Y3066D01*
Y2933D01*
X24972D01*
X1507Y30204D02*
Y29804D01*
X1706D01*
X1773Y29871D01*
Y29938D01*
X1706Y30004D01*
X1507D01*
X1706D01*
X1773Y30071D01*
Y30138D01*
X1706Y30204D01*
X1507D01*
X2106D02*
X1973D01*
X1906Y30138D01*
Y29871D01*
X1973Y29804D01*
X2106D01*
X2173Y29871D01*
Y30138D01*
X2106Y30204D01*
X2506D02*
X2373D01*
X2306Y30138D01*
Y29871D01*
X2373Y29804D01*
X2506D01*
X2573Y29871D01*
Y30138D01*
X2506Y30204D01*
X2706D02*
X2973D01*
X2839D01*
Y29804D01*
X5009Y34250D02*
Y34650D01*
X5209D01*
X5275Y34583D01*
Y34450D01*
X5209Y34383D01*
X5009D01*
X5142D02*
X5275Y34250D01*
X5675D02*
X5409D01*
X5675Y34517D01*
Y34583D01*
X5609Y34650D01*
X5475D01*
X5409Y34583D01*
X5809D02*
X5875Y34650D01*
X6008D01*
X6075Y34583D01*
Y34317D01*
X6008Y34250D01*
X5875D01*
X5809Y34317D01*
Y34583D01*
X6208D02*
X6275Y34650D01*
X6408D01*
X6475Y34583D01*
Y34317D01*
X6408Y34250D01*
X6275D01*
X6208Y34317D01*
Y34583D01*
X9782Y39600D02*
Y40000D01*
X9982D01*
X10048Y39933D01*
Y39800D01*
X9982Y39733D01*
X9782D01*
X9915D02*
X10048Y39600D01*
X10448D02*
X10181D01*
X10448Y39867D01*
Y39933D01*
X10381Y40000D01*
X10248D01*
X10181Y39933D01*
X10581D02*
X10648Y40000D01*
X10781D01*
X10848Y39933D01*
Y39667D01*
X10781Y39600D01*
X10648D01*
X10581Y39667D01*
Y39933D01*
X10981Y39600D02*
X11114D01*
X11048D01*
Y40000D01*
X10981Y39933D01*
X7297Y34250D02*
Y34650D01*
X7497D01*
X7564Y34583D01*
Y34450D01*
X7497Y34383D01*
X7297D01*
X7430D02*
X7564Y34250D01*
X7964D02*
X7697D01*
X7964Y34517D01*
Y34583D01*
X7897Y34650D01*
X7764D01*
X7697Y34583D01*
X8097D02*
X8164Y34650D01*
X8297D01*
X8363Y34583D01*
Y34317D01*
X8297Y34250D01*
X8164D01*
X8097Y34317D01*
Y34583D01*
X8763Y34250D02*
X8497D01*
X8763Y34517D01*
Y34583D01*
X8697Y34650D01*
X8563D01*
X8497Y34583D01*
X4552Y21500D02*
X4152D01*
Y21700D01*
X4219Y21767D01*
X4352D01*
X4419Y21700D01*
Y21500D01*
Y21633D02*
X4552Y21767D01*
Y22166D02*
Y21900D01*
X4286Y22166D01*
X4219D01*
X4152Y22100D01*
Y21967D01*
X4219Y21900D01*
Y22300D02*
X4152Y22366D01*
Y22500D01*
X4219Y22566D01*
X4485D01*
X4552Y22500D01*
Y22366D01*
X4485Y22300D01*
X4219D01*
Y22700D02*
X4152Y22766D01*
Y22900D01*
X4219Y22966D01*
X4286D01*
X4352Y22900D01*
Y22833D01*
Y22900D01*
X4419Y22966D01*
X4485D01*
X4552Y22900D01*
Y22766D01*
X4485Y22700D01*
X2340Y34252D02*
Y34651D01*
X2540D01*
X2607Y34585D01*
Y34452D01*
X2540Y34385D01*
X2340D01*
X2473D02*
X2607Y34252D01*
X3007D02*
X2740D01*
X3007Y34518D01*
Y34585D01*
X2940Y34651D01*
X2807D01*
X2740Y34585D01*
X3140D02*
X3207Y34651D01*
X3340D01*
X3406Y34585D01*
Y34318D01*
X3340Y34252D01*
X3207D01*
X3140Y34318D01*
Y34585D01*
X3740Y34252D02*
Y34651D01*
X3540Y34452D01*
X3806D01*
X6660Y12705D02*
Y13104D01*
X6860D01*
X6927Y13038D01*
Y12904D01*
X6860Y12838D01*
X6660D01*
X6794D02*
X6927Y12705D01*
X7327D02*
X7060D01*
X7327Y12971D01*
Y13038D01*
X7260Y13104D01*
X7127D01*
X7060Y13038D01*
X7460D02*
X7527Y13104D01*
X7660D01*
X7727Y13038D01*
Y12771D01*
X7660Y12705D01*
X7527D01*
X7460Y12771D01*
Y13038D01*
X7860D02*
X7927Y13104D01*
X8060D01*
X8127Y13038D01*
Y12971D01*
X8060Y12904D01*
X8127Y12838D01*
Y12771D01*
X8060Y12705D01*
X7927D01*
X7860Y12771D01*
Y12838D01*
X7927Y12904D01*
X7860Y12971D01*
Y13038D01*
X7927Y12904D02*
X8060D01*
X14789Y14298D02*
Y14698D01*
X14989D01*
X15055Y14631D01*
Y14498D01*
X14989Y14431D01*
X14789D01*
X14922D02*
X15055Y14298D01*
X15455D02*
X15189D01*
X15455Y14564D01*
Y14631D01*
X15389Y14698D01*
X15255D01*
X15189Y14631D01*
X15589D02*
X15655Y14698D01*
X15788D01*
X15855Y14631D01*
Y14364D01*
X15788Y14298D01*
X15655D01*
X15589Y14364D01*
Y14631D01*
X15988Y14364D02*
X16055Y14298D01*
X16188D01*
X16255Y14364D01*
Y14631D01*
X16188Y14698D01*
X16055D01*
X15988Y14631D01*
Y14564D01*
X16055Y14498D01*
X16255D01*
X17375Y14298D02*
Y14698D01*
X17575D01*
X17641Y14631D01*
Y14498D01*
X17575Y14431D01*
X17375D01*
X17508D02*
X17641Y14298D01*
X18041D02*
X17774D01*
X18041Y14564D01*
Y14631D01*
X17974Y14698D01*
X17841D01*
X17774Y14631D01*
X18174Y14298D02*
X18308D01*
X18241D01*
Y14698D01*
X18174Y14631D01*
X18508D02*
X18574Y14698D01*
X18707D01*
X18774Y14631D01*
Y14364D01*
X18707Y14298D01*
X18574D01*
X18508Y14364D01*
Y14631D01*
X20060Y39750D02*
Y40150D01*
X20260D01*
X20326Y40083D01*
Y39950D01*
X20260Y39883D01*
X20060D01*
X20193D02*
X20326Y39750D01*
X20726D02*
X20460D01*
X20726Y40017D01*
Y40083D01*
X20659Y40150D01*
X20526D01*
X20460Y40083D01*
X20859Y39750D02*
X20993D01*
X20926D01*
Y40150D01*
X20859Y40083D01*
X21193Y39750D02*
X21326D01*
X21259D01*
Y40150D01*
X21193Y40083D01*
X4838Y20583D02*
X4772Y20650D01*
X4638D01*
X4572Y20583D01*
Y20517D01*
X4638Y20450D01*
X4772D01*
X4838Y20383D01*
Y20317D01*
X4772Y20250D01*
X4638D01*
X4572Y20317D01*
X5238Y20250D02*
X4971D01*
X5238Y20517D01*
Y20583D01*
X5171Y20650D01*
X5038D01*
X4971Y20583D01*
X5371D02*
X5438Y20650D01*
X5571D01*
X5638Y20583D01*
Y20317D01*
X5571Y20250D01*
X5438D01*
X5371Y20317D01*
Y20583D01*
X5771D02*
X5838Y20650D01*
X5971D01*
X6038Y20583D01*
Y20317D01*
X5971Y20250D01*
X5838D01*
X5771Y20317D01*
Y20583D01*
X16299Y36582D02*
Y36248D01*
X16366Y36182D01*
X16499D01*
X16566Y36248D01*
Y36582D01*
X16966Y36182D02*
X16699D01*
X16966Y36448D01*
Y36515D01*
X16899Y36582D01*
X16766D01*
X16699Y36515D01*
X17099D02*
X17166Y36582D01*
X17299D01*
X17365Y36515D01*
Y36248D01*
X17299Y36182D01*
X17166D01*
X17099Y36248D01*
Y36515D01*
X17499D02*
X17565Y36582D01*
X17699D01*
X17765Y36515D01*
Y36248D01*
X17699Y36182D01*
X17565D01*
X17499Y36248D01*
Y36515D01*
X5167Y767D02*
X5100Y700D01*
Y567D01*
X5167Y500D01*
X5433D01*
X5500Y567D01*
Y700D01*
X5433Y767D01*
X5500Y1166D02*
Y900D01*
X5233Y1166D01*
X5167D01*
X5100Y1100D01*
Y967D01*
X5167Y900D01*
X5500Y1300D02*
Y1433D01*
Y1366D01*
X5100D01*
X5167Y1300D01*
Y1633D02*
X5100Y1700D01*
Y1833D01*
X5167Y1900D01*
X5433D01*
X5500Y1833D01*
Y1700D01*
X5433Y1633D01*
X5167D01*
X3538Y10358D02*
X3472Y10291D01*
Y10158D01*
X3538Y10091D01*
X3805D01*
X3872Y10158D01*
Y10291D01*
X3805Y10358D01*
X3872Y10758D02*
Y10491D01*
X3605Y10758D01*
X3538D01*
X3472Y10691D01*
Y10558D01*
X3538Y10491D01*
X3872Y10891D02*
Y11024D01*
Y10958D01*
X3472D01*
X3538Y10891D01*
X3872Y11224D02*
Y11358D01*
Y11291D01*
X3472D01*
X3538Y11224D01*
X28977Y26429D02*
X28843D01*
X28910D01*
Y26095D01*
X28843Y26029D01*
X28777D01*
X28710Y26095D01*
X29110Y26429D02*
X29376D01*
X29243D01*
Y26029D01*
X29510D02*
Y26295D01*
X29643Y26429D01*
X29776Y26295D01*
Y26029D01*
Y26229D01*
X29510D01*
X30176Y26362D02*
X30110Y26429D01*
X29976D01*
X29910Y26362D01*
Y26095D01*
X29976Y26029D01*
X30110D01*
X30176Y26095D01*
Y26229D01*
X30043D01*
X11360Y14582D02*
X11706Y14781D01*
X11533Y14682D01*
X11833Y14162D01*
X12029Y14622D02*
X12375Y14822D01*
X12398Y15181D02*
X12698Y14662D01*
X13045Y14862D01*
X13304Y15012D02*
X13478Y15112D01*
X13514Y15248D01*
X13414Y15421D01*
X13278Y15458D01*
X13104Y15358D01*
X13068Y15222D01*
X13168Y15048D01*
X13304Y15012D01*
X14010Y15189D02*
X14097Y15239D01*
X14134Y15375D01*
X13884Y15808D01*
X13624Y15658D01*
X13587Y15521D01*
X13687Y15348D01*
X13824Y15312D01*
X14084Y15462D01*
X14776Y15862D02*
X14476Y16381D01*
X14736Y16531D01*
X14873Y16494D01*
X14973Y16321D01*
X14936Y16185D01*
X14676Y16035D01*
X14849Y16135D02*
X15122Y16061D01*
X15555Y16311D02*
X15382Y16211D01*
X15246Y16248D01*
X15146Y16421D01*
X15182Y16558D01*
X15355Y16658D01*
X15492Y16621D01*
X15542Y16535D01*
X15196Y16335D01*
X15615Y16808D02*
X15988Y16561D01*
X15961Y17008D01*
X16854Y17061D02*
X17027Y17161D01*
X16941Y17111D01*
X16641Y17631D01*
X16604Y17494D01*
X17287Y17311D02*
X17237Y17398D01*
X17323Y17448D01*
X17373Y17361D01*
X17287Y17311D01*
X17470Y17994D02*
X17506Y18130D01*
X17680Y18230D01*
X17816Y18194D01*
X18016Y17847D01*
X17979Y17711D01*
X17806Y17611D01*
X17670Y17648D01*
X17470Y17994D01*
X26531Y450D02*
X26798D01*
X29291D02*
X29557D01*
X29424Y583D02*
Y317D01*
M02*
