M48
;Layer_Color=9474304
;FILE_FORMAT=4:3
METRIC,LZ
;TYPE=PLATED
T3F00S00C0.400
T4F00S00C0.900
;TYPE=NON_PLATED
T1F00S00C0.350
T2F00S00C0.500
%
T03
X0004241Y0003734
X0004049Y00055
X0004178Y0008206
X0001771Y000809
X000875Y0008305
X001Y0009
Y0011487
X000975Y0006
X0008019Y0005175
X001Y00015
X0017Y000625
X002315Y0005
X0023Y0021545
X0020498Y0021
X00195Y0022176
X0017825Y0022156
X0019Y00235
X0015025Y0021545
X0025498Y0020984
X0029291Y0020818
X002807Y002675
X0026342Y0026779
X00265Y002825
X0026531Y002975
X002496Y002611
X00215Y003
X002216Y003183
X002075Y003225
X0019302Y003175
X0018257Y0033
X0021182Y0036683
X0024759Y0035124
X0014296Y003869
X0009012Y00355
X001Y0032209
X0010855Y003106
X00085Y0030007
X000925Y002569
X001125Y0022484
X0009447Y001625
X000625Y0016504
X000485Y001675
X00015Y0017371
X0000999Y00305
X0001434Y0035
T04
X002668Y00025
X002922
X0029291Y0007
X0026751
X002945Y002813
Y003067
Y003321
Y003575
Y003829
X0002239Y0028
Y002546
T01
X00256Y001085
Y001815
T02
X0028Y001125
Y001775
M30
