G04 Layer_Color=16711935*
%FSLAX43Y43*%
%MOMM*%
G71*
G01*
G75*
%ADD29C,0.350*%
%ADD30C,0.500*%
%ADD46R,1.700X1.500*%
%ADD47R,1.500X1.700*%
%ADD49R,1.597X1.216*%
%ADD50R,1.216X1.597*%
%ADD54C,1.700*%
%ADD55R,1.700X1.700*%
%ADD56R,1.700X1.700*%
%ADD57C,1.200*%
%ADD58R,1.420X0.820*%
%ADD59R,1.820X1.370*%
%ADD60R,2.160X0.670*%
%ADD61R,1.620X0.670*%
%ADD62R,0.470X1.120*%
%ADD63R,0.470X1.170*%
%ADD64R,1.320X0.670*%
%ADD65R,1.170X0.620*%
%ADD66R,1.520X1.180*%
%ADD67R,1.810X0.810*%
G36*
X29445Y10336D02*
X26848D01*
Y10129D01*
X24350D01*
Y11635D01*
X26560D01*
Y12150D01*
X29445D01*
Y10336D01*
D02*
G37*
G36*
X26847Y18650D02*
X29441D01*
Y16852D01*
X26560D01*
Y17372D01*
X24350D01*
Y18865D01*
X26847D01*
Y18650D01*
D02*
G37*
D29*
X25600Y18150D02*
D03*
Y10850D02*
D03*
D30*
X28000Y17750D02*
D03*
Y11250D02*
D03*
D46*
X1750Y2050D02*
D03*
Y3950D02*
D03*
D47*
X7094Y22000D02*
D03*
X8994D02*
D03*
D49*
X5500Y31060D02*
D03*
Y32940D02*
D03*
X15500Y25690D02*
D03*
Y23810D02*
D03*
D50*
X4118Y22135D02*
D03*
X2239D02*
D03*
D54*
X29220Y2500D02*
D03*
X2239Y28000D02*
D03*
X29450Y35750D02*
D03*
Y33210D02*
D03*
Y30670D02*
D03*
Y28130D02*
D03*
X26751Y7000D02*
D03*
D55*
X26680Y2500D02*
D03*
X29291Y7000D02*
D03*
D56*
X2239Y25460D02*
D03*
X29450Y38290D02*
D03*
D57*
X23150Y5000D02*
D03*
X10000Y9000D02*
D03*
X1771Y8090D02*
D03*
X4178Y8206D02*
D03*
X10000Y32209D02*
D03*
X8019Y5175D02*
D03*
X1500Y17371D02*
D03*
X9012Y35500D02*
D03*
X10000Y11487D02*
D03*
X22160Y31830D02*
D03*
X19302Y31750D02*
D03*
X1434Y35000D02*
D03*
X6250Y16504D02*
D03*
X4850Y16750D02*
D03*
X999Y30500D02*
D03*
X28070Y26750D02*
D03*
X10855Y31060D02*
D03*
X20750Y32250D02*
D03*
X21500Y30000D02*
D03*
X8750Y8305D02*
D03*
X9447Y16250D02*
D03*
X29291Y20818D02*
D03*
X23000Y21545D02*
D03*
X17000Y6250D02*
D03*
X15025Y21545D02*
D03*
X9250Y25690D02*
D03*
X11250Y22484D02*
D03*
X14296Y38690D02*
D03*
X24759Y35124D02*
D03*
X25498Y20984D02*
D03*
X4241Y3734D02*
D03*
X4049Y5500D02*
D03*
X10000Y1500D02*
D03*
X9750Y6000D02*
D03*
X8500Y30007D02*
D03*
X20498Y21000D02*
D03*
X19500Y22176D02*
D03*
X19000Y23500D02*
D03*
X17825Y22156D02*
D03*
X18257Y33000D02*
D03*
X21182Y36683D02*
D03*
X24960Y26110D02*
D03*
X26342Y26779D02*
D03*
X26500Y28250D02*
D03*
X26531Y29750D02*
D03*
D58*
X12599Y11335D02*
D03*
Y12435D02*
D03*
Y13535D02*
D03*
Y14635D02*
D03*
Y15735D02*
D03*
Y16835D02*
D03*
Y17935D02*
D03*
Y19035D02*
D03*
D59*
X14649Y19925D02*
D03*
D60*
X8019Y20250D02*
D03*
D61*
X2939D02*
D03*
D62*
X1434Y20025D02*
D03*
D63*
X774Y20000D02*
D03*
D64*
X999Y6350D02*
D03*
D65*
X6924Y6325D02*
D03*
D66*
X14899Y6605D02*
D03*
D67*
X12635Y24595D02*
D03*
Y25865D02*
D03*
Y27135D02*
D03*
Y28405D02*
D03*
X5425D02*
D03*
Y27135D02*
D03*
Y25865D02*
D03*
Y24595D02*
D03*
M02*
