G04 Layer_Color=32896*
%FSLAX43Y43*%
%MOMM*%
G71*
G01*
G75*
%ADD42C,0.200*%
%ADD43C,0.127*%
%ADD44C,0.152*%
%ADD45C,0.090*%
%ADD68C,0.300*%
D42*
X9944Y21350D02*
Y22650D01*
X6139Y23016D02*
X9695D01*
X6139Y20984D02*
Y23016D01*
Y20984D02*
X9695D01*
X1100Y4900D02*
X2400D01*
X734Y1095D02*
Y4651D01*
Y1095D02*
X2766D01*
Y4651D01*
D43*
X13959Y11240D02*
G03*
X13959Y11240I-101J0D01*
G01*
X5317Y23795D02*
G03*
X5317Y23795I-127J0D01*
G01*
X649Y7060D02*
Y19070D01*
X1939Y6325D02*
X5999D01*
X8019D02*
X13749D01*
X4049Y20275D02*
X6439D01*
X9619D02*
X13229D01*
X11530Y23900D02*
Y29130D01*
X6530Y23900D02*
Y29130D01*
X11530D01*
X6530Y23900D02*
X11530D01*
D44*
X4789Y31898D02*
Y32102D01*
X6211Y31898D02*
Y32102D01*
X16211Y24648D02*
Y24852D01*
X14789Y24648D02*
Y24852D01*
X3077Y21424D02*
X3280D01*
X3077Y22846D02*
X3280D01*
D45*
X15233Y21600D02*
X15367D01*
X15300D01*
Y21267D01*
X15367Y21200D01*
X15433D01*
X15500Y21267D01*
X14834Y21200D02*
X15100D01*
X14834Y21467D01*
Y21533D01*
X14900Y21600D01*
X15033D01*
X15100Y21533D01*
X14700D02*
X14634Y21600D01*
X14500D01*
X14434Y21533D01*
Y21267D01*
X14500Y21200D01*
X14634D01*
X14700Y21267D01*
Y21533D01*
X14300D02*
X14234Y21600D01*
X14100D01*
X14034Y21533D01*
Y21267D01*
X14100Y21200D01*
X14234D01*
X14300Y21267D01*
Y21533D01*
X10833Y21467D02*
X10900Y21400D01*
Y21267D01*
X10833Y21200D01*
X10567D01*
X10500Y21267D01*
Y21400D01*
X10567Y21467D01*
X10500Y21866D02*
Y21600D01*
X10767Y21866D01*
X10833D01*
X10900Y21800D01*
Y21667D01*
X10833Y21600D01*
Y22000D02*
X10900Y22066D01*
Y22200D01*
X10833Y22266D01*
X10567D01*
X10500Y22200D01*
Y22066D01*
X10567Y22000D01*
X10833D01*
X10900Y22400D02*
Y22666D01*
X10833D01*
X10567Y22400D01*
X10500D01*
X1215Y5435D02*
X1149Y5368D01*
X1015D01*
X949Y5435D01*
Y5701D01*
X1015Y5768D01*
X1149D01*
X1215Y5701D01*
X1615Y5768D02*
X1349D01*
X1615Y5501D01*
Y5435D01*
X1549Y5368D01*
X1415D01*
X1349Y5435D01*
X1748D02*
X1815Y5368D01*
X1948D01*
X2015Y5435D01*
Y5701D01*
X1948Y5768D01*
X1815D01*
X1748Y5701D01*
Y5435D01*
X2148D02*
X2215Y5368D01*
X2348D01*
X2415Y5435D01*
Y5501D01*
X2348Y5568D01*
X2415Y5635D01*
Y5701D01*
X2348Y5768D01*
X2215D01*
X2148Y5701D01*
Y5635D01*
X2215Y5568D01*
X2148Y5501D01*
Y5435D01*
X2215Y5568D02*
X2348D01*
X6672Y31052D02*
X7071D01*
Y31252D01*
X7005Y31319D01*
X6872D01*
X6805Y31252D01*
Y31052D01*
Y31185D02*
X6672Y31319D01*
Y31719D02*
Y31452D01*
X6938Y31719D01*
X7005D01*
X7071Y31652D01*
Y31519D01*
X7005Y31452D01*
Y31852D02*
X7071Y31918D01*
Y32052D01*
X7005Y32118D01*
X6738D01*
X6672Y32052D01*
Y31918D01*
X6738Y31852D01*
X7005D01*
X7071Y32518D02*
Y32252D01*
X6872D01*
X6938Y32385D01*
Y32452D01*
X6872Y32518D01*
X6738D01*
X6672Y32452D01*
Y32318D01*
X6738Y32252D01*
X17300Y25450D02*
X16900D01*
Y25250D01*
X16967Y25183D01*
X17100D01*
X17167Y25250D01*
Y25450D01*
Y25317D02*
X17300Y25183D01*
Y24784D02*
Y25050D01*
X17033Y24784D01*
X16967D01*
X16900Y24850D01*
Y24983D01*
X16967Y25050D01*
Y24650D02*
X16900Y24584D01*
Y24450D01*
X16967Y24384D01*
X17233D01*
X17300Y24450D01*
Y24584D01*
X17233Y24650D01*
X16967D01*
X16900Y23984D02*
X16967Y24117D01*
X17100Y24250D01*
X17233D01*
X17300Y24184D01*
Y24050D01*
X17233Y23984D01*
X17167D01*
X17100Y24050D01*
Y24250D01*
X3500Y23500D02*
Y23900D01*
X3300D01*
X3233Y23833D01*
Y23700D01*
X3300Y23633D01*
X3500D01*
X3367D02*
X3233Y23500D01*
X2834D02*
X3100D01*
X2834Y23767D01*
Y23833D01*
X2900Y23900D01*
X3033D01*
X3100Y23833D01*
X2700D02*
X2634Y23900D01*
X2500D01*
X2434Y23833D01*
Y23567D01*
X2500Y23500D01*
X2634D01*
X2700Y23567D01*
Y23833D01*
X2300Y23900D02*
X2034D01*
Y23833D01*
X2300Y23567D01*
Y23500D01*
X12330Y30496D02*
Y30163D01*
X12264Y30096D01*
X12130D01*
X12064Y30163D01*
Y30496D01*
X11664Y30096D02*
X11930D01*
X11664Y30363D01*
Y30429D01*
X11731Y30496D01*
X11864D01*
X11930Y30429D01*
X11531D02*
X11464Y30496D01*
X11331D01*
X11264Y30429D01*
Y30163D01*
X11331Y30096D01*
X11464D01*
X11531Y30163D01*
Y30429D01*
X10864Y30096D02*
X11131D01*
X10864Y30363D01*
Y30429D01*
X10931Y30496D01*
X11064D01*
X11131Y30429D01*
D68*
X7114Y24495D02*
G03*
X7114Y24495I-127J0D01*
G01*
M02*
